<svg width="253" height="349" viewBox="0 0 253 349" fill="none" xmlns="http://www.w3.org/2000/svg">
<path d="M91.2412 254.39C91.2412 250.67 93.4835 247.316 96.9214 245.895L124.742 234.394C126.991 233.464 129.517 233.464 131.766 234.394L159.587 245.895C163.025 247.316 165.267 250.67 165.267 254.39V288.236C165.267 291.622 163.406 294.733 160.423 296.335L130.608 312.341C127.74 313.88 124.272 313.789 121.49 312.099L95.6627 296.419C92.9175 294.752 91.2412 291.773 91.2412 288.562V254.39Z" fill="#00C2FF"/>
<path d="M125.277 239.354L99.5354 250.363C98.1135 250.971 98.1028 252.983 99.5182 253.606L125.193 264.91C127.404 265.883 129.924 265.868 132.123 264.869L156.919 253.598C158.309 252.966 158.299 250.988 156.902 250.371L132.041 239.394C129.889 238.444 127.44 238.429 125.277 239.354Z" fill="#FEEF97"/>
<path d="M0 288.313C0 284.593 2.24228 281.24 5.68017 279.818L33.5013 268.317C35.7501 267.387 38.2759 267.387 40.5248 268.317L68.3459 279.818C71.7837 281.24 74.026 284.593 74.026 288.313V322.159C74.026 325.545 72.1648 328.657 69.1818 330.258L39.3666 346.264C36.4988 347.804 33.0307 347.712 30.2484 346.023L4.42151 330.342C1.67625 328.675 0 325.697 0 322.485V288.313Z" fill="#00C2FF"/>
<path d="M34.0349 273.278L8.29319 284.287C6.87128 284.895 6.86064 286.907 8.27602 287.53L33.9512 298.834C36.1617 299.807 38.6822 299.792 40.881 298.793L65.6772 287.522C67.067 286.89 67.0563 284.912 65.6597 284.295L40.7986 273.318C38.647 272.368 36.1975 272.353 34.0349 273.278Z" fill="#FEEF97"/>
<path d="M177.804 213.448C177.804 209.728 180.046 206.374 183.484 204.953L211.305 193.452C213.554 192.522 216.08 192.522 218.328 193.452L246.15 204.953C249.587 206.374 251.83 209.728 251.83 213.448V247.294C251.83 250.68 249.969 253.791 246.986 255.393L217.17 271.399C214.302 272.939 210.834 272.847 208.052 271.157L182.225 255.477C179.48 253.81 177.804 250.831 177.804 247.62V213.448Z" fill="#00C2FF"/>
<path d="M89.0723 158.876C89.0723 155.156 91.3145 151.803 94.7524 150.382L122.574 138.88C124.822 137.951 127.348 137.951 129.597 138.88L157.418 150.382C160.856 151.803 163.098 155.156 163.098 158.876V192.723C163.098 196.108 161.237 199.22 158.254 200.821L128.439 216.827C125.571 218.367 122.103 218.275 119.321 216.586L93.4938 200.905C90.7485 199.239 89.0723 196.26 89.0723 193.048V158.876Z" fill="#00C2FF"/>
<path d="M123.108 143.841L97.3664 154.85C95.9445 155.458 95.9339 157.47 97.3493 158.093L123.024 169.397C125.235 170.37 127.755 170.355 129.954 169.356L154.75 158.085C156.14 157.453 156.13 155.475 154.733 154.858L129.872 143.881C127.72 142.931 125.271 142.916 123.108 143.841Z" fill="#FEEF97"/>
<path d="M0.169922 192.799C0.169922 189.079 2.4122 185.726 5.85009 184.305L33.6712 172.803C35.92 171.874 38.4458 171.874 40.6947 172.803L68.5158 184.305C71.9537 185.726 74.196 189.079 74.196 192.799V226.646C74.196 230.031 72.3348 233.143 69.3517 234.744L39.5365 250.751C36.6687 252.29 33.2006 252.198 30.4184 250.509L4.59143 234.828C1.84617 233.162 0.169922 230.183 0.169922 226.971V192.799Z" fill="#00C2FF"/>
<path d="M34.2048 177.764L8.46311 188.773C7.04121 189.381 7.03056 191.393 8.44594 192.016L34.1211 203.32C36.3316 204.293 38.8522 204.278 41.051 203.279L65.8471 192.008C67.2369 191.376 67.2262 189.398 65.8297 188.781L40.9685 177.804C38.8169 176.854 36.3674 176.839 34.2048 177.764Z" fill="#FEEF97"/>
<path d="M177.974 117.934C177.974 114.214 180.216 110.861 183.654 109.44L211.475 97.9384C213.724 97.0087 216.25 97.0087 218.498 97.9384L246.319 109.44C249.757 110.861 252 114.214 252 117.934V151.781C252 155.166 250.138 158.278 247.155 159.879L217.34 175.886C214.472 177.425 211.004 177.333 208.222 175.644L182.395 159.963C179.65 158.297 177.974 155.318 177.974 152.106V117.934Z" fill="#00C2FF"/>
<path d="M212.009 102.899L186.268 113.908C184.846 114.516 184.835 116.528 186.251 117.151L211.926 128.455C214.136 129.428 216.657 129.413 218.856 128.414L243.652 117.143C245.042 116.511 245.031 114.533 243.634 113.916L218.773 102.939C216.622 101.989 214.172 101.974 212.009 102.899Z" fill="#FEEF97"/>
<path d="M89.2334 62.3898C89.2334 58.6697 91.4757 55.3164 94.9136 53.8951L122.735 42.3937C124.984 41.464 127.509 41.464 129.758 42.3937L157.579 53.8951C161.017 55.3164 163.259 58.6697 163.259 62.3898V96.2361C163.259 99.6218 161.398 102.733 158.415 104.335L128.6 120.341C125.732 121.88 122.264 121.789 119.482 120.099L93.6549 104.419C90.9096 102.752 89.2334 99.7732 89.2334 96.5616V62.3898Z" fill="#00C2FF"/>
<path d="M123.269 47.3543L97.5276 58.3633C96.1057 58.9714 96.095 60.9833 97.5104 61.6064L123.186 72.91C125.396 73.8832 127.917 73.8681 130.115 72.8687L154.912 61.5977C156.301 60.966 156.291 58.9881 154.894 58.3714L130.033 47.3938C127.881 46.4437 125.432 46.4294 123.269 47.3543Z" fill="#FEEF97"/>
<path d="M0 96.3129C0 92.5928 2.24228 89.2395 5.68017 87.8182L33.5013 76.3168C35.7501 75.3871 38.2759 75.3871 40.5248 76.3168L68.3459 87.8182C71.7837 89.2395 74.026 92.5928 74.026 96.3129V130.159C74.026 133.545 72.1648 136.656 69.1818 138.258L39.3666 154.264C36.4988 155.804 33.0307 155.712 30.2484 154.022L4.42151 138.342C1.67625 136.675 0 133.696 0 130.485V96.3129Z" fill="#00C2FF"/>
<path d="M34.0359 81.2776L8.29416 92.2867C6.87226 92.8948 6.86161 94.9067 8.277 95.5298L33.9521 106.833C36.1627 107.806 38.6832 107.791 40.882 106.792L65.6782 95.5211C67.068 94.8893 67.0573 92.9114 65.6607 92.2948L40.7996 81.3171C38.6479 80.3671 36.1985 80.3528 34.0359 81.2776Z" fill="#FEEF97"/>
<path d="M178.466 21.4479C178.466 17.7278 180.708 14.3745 184.146 12.9532L211.967 1.45179C214.216 0.522087 216.742 0.522085 218.991 1.45179L246.812 12.9532C250.25 14.3745 252.492 17.7278 252.492 21.4479V55.2942C252.492 58.6799 250.631 61.7915 247.648 63.3929L217.832 79.399C214.965 80.9385 211.496 80.8467 208.714 79.1574L182.887 63.4768C180.142 61.81 178.466 58.8313 178.466 55.6197V21.4479Z" fill="#00C2FF"/>
<path d="M212.502 6.41289L186.76 17.4219C185.338 18.03 185.327 20.0419 186.743 20.665L212.418 31.9686C214.629 32.9418 217.149 32.9267 219.348 31.9273L244.144 20.6563C245.534 20.0246 245.523 18.0467 244.127 17.43L219.265 6.45239C217.114 5.50231 214.664 5.48801 212.502 6.41289Z" fill="#FEEF97"/>
<path d="M212.487 199.45L186.745 210.459C185.323 211.067 185.313 213.079 186.728 213.702L212.403 225.006C214.614 225.979 217.134 225.964 219.333 224.964L244.129 213.693C245.519 213.062 245.508 211.084 244.112 210.467L219.251 199.49C217.099 198.539 214.65 198.525 212.487 199.45Z" fill="#FEEF97"/>
</svg>
