<svg width="512" height="512" viewBox="0 0 512 512" fill="none" xmlns="http://www.w3.org/2000/svg">
<g clip-path="url(#clip0_3992_411)">
<rect width="512" height="512" fill="white" fill-opacity="0.1"/>
<path d="M270.5 80C270.5 71.9919 264.008 65.5 256 65.5C247.992 65.5 241.5 71.9919 241.5 80L270.5 80ZM245.747 299.253C251.41 304.916 260.59 304.916 266.253 299.253L358.53 206.976C364.193 201.313 364.193 192.132 358.53 186.47C352.868 180.807 343.687 180.807 338.024 186.47L256 268.494L173.976 186.469C168.313 180.807 159.132 180.807 153.47 186.469C147.807 192.132 147.807 201.313 153.47 206.976L245.747 299.253ZM241.5 80L241.5 289L270.5 289L270.5 80L241.5 80Z" fill="white"/>
<path d="M161.554 255H147.383C141.626 255 136.312 258.094 133.469 263.101L75.5666 365.101C69.5117 375.767 77.216 389 89.481 389H421.519C433.784 389 441.488 375.767 435.433 365.101L377.531 263.101C374.688 258.094 369.374 255 363.617 255H349.446" stroke="#FFDA03" stroke-width="27" stroke-linecap="round"/>
<path d="M491.796 30.3768C491.593 28.1668 490.793 26.6988 487.179 26.2931C483.565 25.8927 440.538 22.8125 395.643 22.8125C350.749 22.8125 307.722 25.898 304.108 26.2984C300.494 26.6988 299.688 28.1721 299.49 30.3768C299.288 32.5869 299.613 54.7193 301.418 60.8744C303.222 67.0294 303.585 68.2465 307.786 69.4529C313.525 71.1078 340.195 77.7646 356.364 80.0227C368.343 81.6936 375.31 81.2132 380.99 70.4565C386.365 60.2658 388.426 55.3332 390.092 51.6018C391.234 49.0394 393.439 47.9771 395.643 47.9771C397.848 47.9771 400.058 49.0447 401.195 51.6018C402.861 55.3386 404.921 60.2658 410.297 70.4565C415.971 81.2185 422.943 81.6989 434.922 80.0227C451.092 77.7646 477.762 71.1025 483.501 69.4529C487.702 68.2412 488.065 67.0294 489.869 60.8744C491.673 54.7193 491.999 32.5869 491.796 30.3768ZM382.063 44.5553C380.477 50.438 377.83 57.271 373.484 66.7091C370.927 72.2662 367.212 73.0136 363.918 73.0136C362.493 73.0136 361.057 72.8534 359.327 72.6132C352.948 71.7217 347.151 70.8516 335.636 68.4867C324.943 66.2874 324.116 64.419 322.466 60.6982L322.322 60.3779C320.774 56.892 320.694 48.6177 320.641 43.146L320.625 41.726C320.566 36.8041 321.319 35.2667 326.705 33.852C331.771 32.5228 343.601 31.7274 358.35 31.7274C362.204 31.7274 366.213 31.7808 370.265 31.8876C376.789 32.0584 378.63 33.5851 380.077 35.272L380.349 35.587C382.175 37.6956 383.499 39.217 382.057 44.5499L382.063 44.5553ZM470.651 41.726L470.635 43.1406C470.582 48.6177 470.507 56.892 468.954 60.3779L468.81 60.6982C467.16 64.4243 466.333 66.2927 455.64 68.4867C444.126 70.8516 438.328 71.7217 431.949 72.6132C430.225 72.8534 428.783 73.0136 427.358 73.0136C424.064 73.0136 420.349 72.2662 417.792 66.7091C413.447 57.2657 410.799 50.4327 409.213 44.5553C407.772 39.217 409.09 37.6956 410.916 35.5923L411.188 35.2774C412.64 33.5905 414.482 32.0637 421.005 31.8929C425.057 31.7861 429.066 31.7327 432.921 31.7327C447.67 31.7327 459.5 32.5281 464.566 33.8574C469.952 35.272 470.705 36.8041 470.646 41.7313L470.651 41.726Z" fill="white" fill-opacity="0.3"/>
</g>
<defs>
<clipPath id="clip0_3992_411">
<rect width="512" height="512" fill="white"/>
</clipPath>
</defs>
</svg>
