<svg width="512" height="512" viewBox="0 0 512 512" fill="none" xmlns="http://www.w3.org/2000/svg">
<g clip-path="url(#clip0_4462_256)">
<rect width="512" height="512" fill="#FF6682"/>
<path d="M496.796 35.3768C496.593 33.1668 495.793 31.6988 492.179 31.2931C488.565 30.8927 445.538 27.8125 400.643 27.8125C355.749 27.8125 312.722 30.898 309.108 31.2984C305.494 31.6988 304.688 33.1721 304.49 35.3768C304.288 37.5869 304.613 59.7193 306.418 65.8744C308.222 72.0294 308.585 73.2465 312.786 74.4529C318.525 76.1078 345.195 82.7646 361.364 85.0227C373.343 86.6936 380.31 86.2132 385.99 75.4565C391.365 65.2658 393.426 60.3332 395.092 56.6018C396.234 54.0394 398.439 52.9771 400.643 52.9771C402.848 52.9771 405.058 54.0447 406.195 56.6018C407.861 60.3386 409.921 65.2658 415.297 75.4565C420.971 86.2185 427.943 86.6989 439.922 85.0227C456.092 82.7646 482.762 76.1025 488.501 74.4529C492.702 73.2412 493.065 72.0294 494.869 65.8744C496.673 59.7193 496.999 37.5869 496.796 35.3768ZM387.063 49.5553C385.477 55.438 382.83 62.271 378.484 71.7091C375.927 77.2662 372.212 78.0136 368.918 78.0136C367.493 78.0136 366.057 77.8534 364.327 77.6132C357.948 76.7217 352.151 75.8516 340.636 73.4867C329.943 71.2874 329.116 69.419 327.466 65.6982L327.322 65.3779C325.774 61.892 325.694 53.6177 325.641 48.146L325.625 46.726C325.566 41.8041 326.319 40.2667 331.705 38.852C336.771 37.5228 348.601 36.7274 363.35 36.7274C367.204 36.7274 371.213 36.7808 375.265 36.8876C381.789 37.0584 383.63 38.5851 385.077 40.272L385.349 40.587C387.175 42.6956 388.499 44.217 387.057 49.5499L387.063 49.5553ZM475.651 46.726L475.635 48.1406C475.582 53.6177 475.507 61.892 473.954 65.3779L473.81 65.6982C472.16 69.4243 471.333 71.2927 460.64 73.4867C449.126 75.8516 443.328 76.7217 436.949 77.6132C435.225 77.8534 433.783 78.0136 432.358 78.0136C429.064 78.0136 425.349 77.2662 422.792 71.7091C418.447 62.2657 415.799 55.4327 414.213 49.5553C412.772 44.217 414.09 42.6956 415.916 40.5923L416.188 40.2774C417.64 38.5905 419.482 37.0637 426.005 36.8929C430.057 36.7861 434.066 36.7327 437.921 36.7327C452.67 36.7327 464.5 37.5281 469.566 38.8574C474.952 40.272 475.705 41.8041 475.646 46.7313L475.651 46.726Z" fill="white" fill-opacity="0.3"/>
<path d="M255.5 435C221.562 435 188.387 433.62 160.175 431.035C131.963 428.451 109.981 424.777 97.0136 420.479C84.0458 416.182 80.6747 411.454 87.3269 406.894C93.9791 402.334 110.356 398.146 134.383 394.862C158.411 391.578 189.009 389.345 222.305 388.444C255.601 387.544 290.097 388.018 321.427 389.806C352.757 391.593 379.512 394.615 398.305 398.487C417.098 402.359 427.084 406.908 426.999 411.559C426.886 417.781 408.767 423.743 376.617 428.138C344.467 432.532 300.91 435 255.5 435Z" fill="#FE5171"/>
<path d="M406.37 275.903C393.289 216.767 373.887 179.044 342.791 169.852C336.768 168.095 330.523 167.219 324.25 167.25C305.133 167.25 290.046 178.625 256 178.625C221.953 178.625 206.838 167.25 187.75 167.25C181.214 167.216 174.706 168.092 168.412 169.852C137.273 179.044 118.035 216.802 104.805 275.903C91.2967 336.268 93.7424 383.965 120.147 393.122C138.631 399.52 155.16 386.29 170.815 366.817C188.589 344.636 210.478 337.811 256 337.811C301.521 337.811 322.558 344.636 340.359 366.817C356 386.304 373.141 399.371 391.135 393.236C420.297 383.275 419.885 336.979 406.37 275.903Z" stroke="#F6F6F6" stroke-width="25" stroke-miterlimit="10"/>
<path d="M281.594 272.469C289.447 272.469 295.812 266.103 295.812 258.25C295.812 250.397 289.447 244.031 281.594 244.031C273.741 244.031 267.375 250.397 267.375 258.25C267.375 266.103 273.741 272.469 281.594 272.469Z" fill="#00C2FF"/>
<path d="M189.172 281C201.736 281 211.922 270.814 211.922 258.25C211.922 245.686 201.736 235.5 189.172 235.5C176.607 235.5 166.422 245.686 166.422 258.25C166.422 270.814 176.607 281 189.172 281Z" fill="#C3D2DF"/>
<path d="M195.614 286.505C208.179 286.505 218.364 276.319 218.364 263.755C218.364 251.19 208.179 241.005 195.614 241.005C183.05 241.005 172.864 251.19 172.864 263.755C172.864 276.319 183.05 286.505 195.614 286.505Z" fill="#7A7A7A"/>
<path d="M312.875 303.75C310.061 303.75 307.311 302.915 304.972 301.351C302.633 299.787 300.81 297.565 299.735 294.964C298.66 292.364 298.381 289.503 298.932 286.744C299.484 283.985 300.841 281.452 302.833 279.465C304.826 277.477 307.362 276.126 310.123 275.581C312.883 275.037 315.743 275.323 318.341 276.405C320.938 277.487 323.157 279.315 324.715 281.658C326.273 284.001 327.101 286.753 327.094 289.567C327.084 293.332 325.582 296.939 322.917 299.598C320.251 302.257 316.64 303.75 312.875 303.75Z" fill="#A2D063"/>
<path d="M312.875 241.188C320.728 241.188 327.094 234.822 327.094 226.969C327.094 219.116 320.728 212.75 312.875 212.75C305.022 212.75 298.656 219.116 298.656 226.969C298.656 234.822 305.022 241.188 312.875 241.188Z" fill="#FFD500"/>
<path d="M344.156 272.469C352.009 272.469 358.375 266.103 358.375 258.25C358.375 250.397 352.009 244.031 344.156 244.031C336.303 244.031 329.938 250.397 329.938 258.25C329.938 266.103 336.303 272.469 344.156 272.469Z" fill="#FC444D"/>
</g>
<defs>
<clipPath id="clip0_4462_256">
<rect width="512" height="512" fill="white"/>
</clipPath>
</defs>
</svg>
