<svg width="461" height="496" viewBox="0 0 461 496" fill="none" xmlns="http://www.w3.org/2000/svg">
<path d="M148.999 458H433.999" stroke="#4D4D4D" stroke-width="54" stroke-linecap="round"/>
<path d="M51.7227 465.262C54.4536 464.091 57.5445 464.091 60.2754 465.262L93.999 479.714L60.2754 494.167C57.5445 495.337 54.4535 495.337 51.7227 494.167L17.999 479.714L51.7227 465.262ZM50.5703 445.861C50.5703 449.974 48.2466 453.733 44.5684 455.572L17.999 468.857V442.996C17.999 438.884 20.3227 435.124 24.001 433.285L50.5703 420V445.861ZM87.9971 433.285C91.6753 435.124 93.999 438.884 93.999 442.996V468.857L67.4297 455.572C63.7515 453.733 61.4277 449.974 61.4277 445.861V420L87.9971 433.285Z" fill="#B9BCC0"/>
<path d="M80.999 131C80.999 144.255 91.7442 155 104.999 155C118.254 155 128.999 144.255 128.999 131C128.999 117.745 118.254 107 104.999 107C91.7442 107 80.999 117.745 80.999 131ZM254.076 279.499C256.561 279.457 258.541 277.408 258.498 274.923L257.807 234.429C257.765 231.944 255.716 229.964 253.231 230.007C250.746 230.049 248.766 232.098 248.809 234.583L249.423 270.577L213.428 271.192C210.943 271.234 208.963 273.283 209.006 275.768C209.048 278.253 211.097 280.233 213.582 280.19L254.076 279.499ZM104.999 131L101.872 134.236L108.08 140.236L111.207 137L114.335 133.764L108.126 127.764L104.999 131ZM123.624 149L120.497 152.236L132.913 164.236L136.041 161L139.168 157.764L126.751 145.764L123.624 149ZM148.457 173L145.33 176.236L157.747 188.236L160.874 185L164.001 181.764L151.585 169.764L148.457 173ZM173.291 197L170.163 200.236L182.58 212.236L185.707 209L188.835 205.764L176.418 193.764L173.291 197ZM198.124 221L194.997 224.236L207.413 236.236L210.541 233L213.668 229.764L201.251 217.764L198.124 221ZM222.957 245L219.83 248.236L232.247 260.236L235.374 257L238.501 253.764L226.085 241.764L222.957 245ZM247.791 269L244.663 272.236L250.872 278.236L253.999 275L257.126 271.764L250.918 265.764L247.791 269Z" fill="white"/>
<path d="M269.203 458.598C270.085 457.933 270.261 456.679 269.597 455.797L258.767 441.419C258.102 440.537 256.848 440.36 255.966 441.025C255.084 441.69 254.907 442.943 255.572 443.826L265.198 456.606L252.418 466.232C251.536 466.897 251.36 468.151 252.024 469.033C252.689 469.915 253.943 470.092 254.825 469.427L269.203 458.598ZM37.9997 169L36.0822 168.431C35.2018 171.4 34.4075 174.504 33.705 177.732L35.6592 178.157L37.6134 178.582C38.2962 175.446 39.0662 172.437 39.9171 169.569L37.9997 169ZM32.7853 196.887L30.7943 196.697C30.211 202.814 29.9154 209.217 29.9355 215.845L31.9355 215.838L33.9355 215.832C33.9158 209.331 34.2058 203.059 34.7762 197.077L32.7853 196.887ZM32.8347 234.796L30.8429 234.977C31.4065 241.187 32.2395 247.531 33.3619 253.968L35.3322 253.625L37.3024 253.281C36.1988 246.952 35.3802 240.716 34.8265 234.616L32.8347 234.796ZM39.327 272.14L37.3903 272.638C38.9547 278.711 40.7824 284.828 42.8894 290.957L44.7807 290.307L46.6721 289.657C44.5999 283.629 42.8024 277.613 41.2638 271.641L39.327 272.14ZM51.6584 308.001L49.8246 308.799C52.3321 314.561 55.1008 320.304 58.144 326.002L59.9081 325.06L61.6723 324.117C58.6804 318.516 55.958 312.868 53.4923 307.203L51.6584 308.001ZM69.5258 341.433L67.8439 342.516C71.244 347.8 74.9016 353.018 78.8281 358.147L80.4162 356.931L82.0042 355.716C78.145 350.675 74.5499 345.545 71.2078 340.351L69.5258 341.433ZM92.5601 371.516L91.0768 372.857C95.2889 377.515 99.7503 382.071 104.47 386.507L105.84 385.05L107.21 383.592C102.569 379.231 98.1836 374.752 94.0434 370.174L92.5601 371.516ZM120.154 397.464L118.905 399.026C123.801 402.943 128.931 406.738 134.303 410.393L135.428 408.739L136.553 407.086C131.266 403.489 126.219 399.756 121.404 395.903L120.154 397.464ZM151.513 418.824L150.514 420.557C155.915 423.672 161.529 426.655 167.362 429.493L168.237 427.694L169.111 425.896C163.363 423.099 157.832 420.16 152.512 417.092L151.513 418.824ZM185.543 435.408L184.789 437.261C190.562 439.61 196.524 441.824 202.682 443.895L203.32 441.999L203.957 440.103C197.877 438.059 191.992 435.873 186.297 433.556L185.543 435.408ZM221.463 447.514L220.936 449.443C226.942 451.083 233.116 452.593 239.462 453.965L239.885 452.01L240.308 450.055C234.03 448.698 227.926 447.205 221.99 445.584L221.463 447.514ZM258.513 455.551L258.188 457.525C261.326 458.042 264.504 458.528 267.72 458.98L267.999 457L268.278 455.02C265.092 454.571 261.946 454.09 258.838 453.578L258.513 455.551Z" fill="#9B9B9B"/>
<path d="M-0.000976562 54.3851C-0.000976562 43.8626 6.34146 34.3775 16.0658 30.3574L79.5658 4.106C85.9269 1.47627 93.0712 1.47627 99.4323 4.10599L162.932 30.3574C172.657 34.3775 178.999 43.8626 178.999 54.3851V131.448C178.999 141.024 173.735 149.826 165.297 154.355L97.0899 190.972C88.9782 195.326 79.1684 195.067 71.2986 190.289L12.5056 154.593C4.74042 149.878 -0.000976562 141.453 -0.000976562 132.368V54.3851Z" fill="#FFD500"/>
<path d="M80.9089 16.1009L21.593 41.4688C17.571 43.1888 17.5409 48.8796 21.5444 50.6421L80.6721 76.6732C86.9248 79.4259 94.0543 79.3835 100.274 76.5565L157.34 50.6175C161.271 48.8306 161.24 43.236 157.29 41.4917L100.041 16.2127C93.9545 13.5253 87.026 13.4848 80.9089 16.1009Z" fill="#FEEF97"/>
<path d="M451.999 341.614C451.999 352.137 445.657 361.622 435.932 365.642L372.432 391.894C366.071 394.523 358.927 394.523 352.566 391.894L289.066 365.642C279.341 361.622 272.999 352.137 272.999 341.614L272.999 264.552C272.999 254.975 278.264 246.174 286.701 241.644L354.908 205.028C363.02 200.673 372.83 200.933 380.699 205.711L439.492 241.407C447.258 246.121 451.999 254.547 451.999 263.631L451.999 341.614Z" fill="#00C2FF"/>
<path d="M371.089 379.898L430.405 354.531C434.427 352.81 434.457 347.12 430.454 345.357L371.326 319.326C365.073 316.573 357.944 316.616 351.724 319.443L294.659 345.382C290.727 347.169 290.758 352.763 294.708 354.508L351.957 379.787C358.044 382.474 364.972 382.514 371.089 379.898Z" fill="#9FE8FF"/>
</svg>
