<svg width="146" height="67" viewBox="0 0 146 67" fill="none" xmlns="http://www.w3.org/2000/svg">
<path d="M127.334 51.7067C126.169 53.1734 123.808 52.3698 123.779 50.497L123.369 23.1057H141.787C145.123 23.1057 146.984 26.9588 144.909 29.5714L127.334 51.7067Z" fill="url(#paint0_linear_1_488)"/>
<path d="M127.334 51.7067C126.169 53.1734 123.808 52.3698 123.779 50.497L123.369 23.1057H141.787C145.123 23.1057 146.984 26.9588 144.909 29.5714L127.334 51.7067Z" fill="url(#paint1_linear_1_488)" fill-opacity="0.2"/>
<path d="M119.843 7.63078C121.008 6.16398 123.37 6.96768 123.398 8.84048L123.578 36.2317H105.39C102.054 36.2317 100.193 32.3787 102.268 29.766L119.843 7.63078Z" fill="#3ECF8E"/>
<path d="M77.3955 9.87329V57.1267" stroke="#F3F3F3" stroke-opacity="0.4" stroke-width="2.5371" stroke-linecap="round"/>
<path d="M28.0156 15.3063C31.2927 14.4382 35.3881 16.1873 37.6455 18.2282C37.8921 18.4511 38.2101 18.4289 38.375 18.2067C38.4815 18.063 38.6146 17.9208 38.7988 17.7653C40.7918 16.3176 43.523 16.0627 46.3096 17.362C51.1561 19.622 54.332 25.7238 53.4033 30.9909C53.3699 31.1803 53.3321 31.3663 53.2891 31.5485C53.2103 31.8822 53.3036 32.2815 53.5332 32.5935C55.6018 35.4044 56.6517 39.0595 56.0654 42.3845C55.6989 44.463 54.7476 46.1008 53.4326 47.1833C53.0587 47.4666 52.4542 47.755 51.7452 48.1035L43.0819 52.0717L37.8926 44.2312L31.2148 41.1179L31.1436 41.0837C25.0876 38.2121 21.0182 30.8201 21.6533 24.1267L18.2588 19.9235L26.0282 16.1341L26.2282 16.0381C26.8122 15.7661 27.3429 15.4846 28.0156 15.3063Z" fill="url(#paint2_radial_1_488)" stroke="url(#paint3_linear_1_488)"/>
<path d="M13.3802 26.9464C14.0225 23.304 16.0792 20.1606 19.5925 19.2296C22.8697 18.3612 26.9656 20.11 29.223 22.151C29.4697 22.3741 29.7876 22.3519 29.9525 22.1294C30.0589 21.9857 30.1918 21.8442 30.3761 21.6887C32.3691 20.2409 35.1005 19.9856 37.8873 21.2851C42.7338 23.5451 45.9098 29.647 44.981 34.9142C44.9476 35.1036 44.9093 35.2894 44.8663 35.4716C44.7875 35.8053 44.8809 36.2046 45.1105 36.5166C47.1791 39.3276 48.2289 42.9824 47.6426 46.3073C47.2761 48.3861 46.3249 50.0242 45.0098 51.1067C43.8403 51.9927 40.6381 53.3623 37.1856 51.7523L22.7925 45.0407L22.7205 45.0067C16.3296 41.9763 12.152 33.9117 13.3802 26.9464Z" fill="url(#paint4_linear_1_488)" fill-opacity="0.44"/>
<g filter="url(#filter0_ii_1_488)">
<path d="M13.3802 26.9464C14.0225 23.304 16.0792 20.1606 19.5925 19.2296C22.8697 18.3612 26.9656 20.11 29.223 22.151C29.4697 22.3741 29.7876 22.3519 29.9525 22.1294C30.0589 21.9857 30.1918 21.8442 30.3761 21.6887C32.3691 20.2409 35.1005 19.9856 37.8873 21.2851C42.7338 23.5451 45.9098 29.647 44.981 34.9142C44.9476 35.1036 44.9093 35.2894 44.8663 35.4716C44.7875 35.8053 44.8809 36.2046 45.1105 36.5166C47.1791 39.3276 48.2289 42.9824 47.6426 46.3073C47.2761 48.3861 46.3249 50.0242 45.0098 51.1067C43.8403 51.9927 40.6381 53.3623 37.1856 51.7523L22.7925 45.0407L22.7205 45.0067C16.3296 41.9763 12.152 33.9117 13.3802 26.9464Z" fill="url(#paint5_linear_1_488)"/>
</g>
<path d="M37.8008 21.7777C42.3968 23.921 45.409 29.7083 44.5282 34.7035C44.4965 34.8831 44.4595 35.0594 44.4187 35.2321C44.2997 35.7365 44.441 36.339 44.7879 36.8104C46.7507 39.4775 47.7456 42.9438 47.1897 46.0965C46.8423 48.0664 45.9414 49.6172 44.6964 50.6437C44.1512 51.0546 43.1099 51.594 41.7899 51.8353C40.4666 52.0771 38.8918 52.0148 37.2727 51.2599L22.8107 44.5161C16.6684 41.6036 12.653 33.8521 13.8334 27.1575C14.4528 23.6452 16.4299 20.6423 19.7825 19.7536C22.905 18.9262 26.8441 20.6045 28.992 22.5462C29.4703 22.9786 30.0438 22.9109 30.3289 22.5264C30.4141 22.4114 30.5243 22.2912 30.6868 22.1531C32.577 20.7857 35.1629 20.5476 37.8008 21.7777Z" stroke="url(#paint6_linear_1_488)" stroke-linecap="round"/>
<defs>
<filter id="filter0_ii_1_488" x="12.166" y="17.0015" width="35.6379" height="38.7959" filterUnits="userSpaceOnUse" color-interpolation-filters="sRGB">
<feFlood flood-opacity="0" result="BackgroundImageFix"/>
<feBlend mode="normal" in="SourceGraphic" in2="BackgroundImageFix" result="shape"/>
<feColorMatrix in="SourceAlpha" type="matrix" values="0 0 0 0 0 0 0 0 0 0 0 0 0 0 0 0 0 0 127 0" result="hardAlpha"/>
<feOffset dy="-2"/>
<feGaussianBlur stdDeviation="1.25"/>
<feComposite in2="hardAlpha" operator="arithmetic" k2="-1" k3="1"/>
<feColorMatrix type="matrix" values="0 0 0 0 0 0 0 0 0 0 0 0 0 0 0 0 0 0 0.28 0"/>
<feBlend mode="normal" in2="shape" result="effect1_innerShadow_1_488"/>
<feColorMatrix in="SourceAlpha" type="matrix" values="0 0 0 0 0 0 0 0 0 0 0 0 0 0 0 0 0 0 127 0" result="hardAlpha"/>
<feOffset dx="-1" dy="5"/>
<feGaussianBlur stdDeviation="1.65"/>
<feComposite in2="hardAlpha" operator="arithmetic" k2="-1" k3="1"/>
<feColorMatrix type="matrix" values="0 0 0 0 1 0 0 0 0 1 0 0 0 0 1 0 0 0 0.1 0"/>
<feBlend mode="normal" in2="effect1_innerShadow_1_488" result="effect2_innerShadow_1_488"/>
</filter>
<linearGradient id="paint0_linear_1_488" x1="123.369" y1="29.179" x2="139.738" y2="36.0443" gradientUnits="userSpaceOnUse">
<stop stop-color="#249361"/>
<stop offset="1" stop-color="#3ECF8E"/>
</linearGradient>
<linearGradient id="paint1_linear_1_488" x1="116.112" y1="19.2426" x2="123.577" y2="33.2954" gradientUnits="userSpaceOnUse">
<stop/>
<stop offset="1" stop-opacity="0"/>
</linearGradient>
<radialGradient id="paint2_radial_1_488" cx="0" cy="0" r="1" gradientUnits="userSpaceOnUse" gradientTransform="translate(34.927 36.1615) rotate(-38.899) scale(25.5495 22.8632)">
<stop stop-color="#F8F653"/>
<stop offset="1" stop-color="#9A9A9A"/>
</radialGradient>
<linearGradient id="paint3_linear_1_488" x1="48.8499" y1="18.4373" x2="32.5075" y2="35.3528" gradientUnits="userSpaceOnUse">
<stop stop-color="#9A9A9A"/>
<stop offset="1" stop-color="#9A9A9A" stop-opacity="0"/>
</linearGradient>
<linearGradient id="paint4_linear_1_488" x1="35.3749" y1="45.7324" x2="32.8497" y2="53.2808" gradientUnits="userSpaceOnUse">
<stop stop-opacity="0"/>
<stop offset="1"/>
</linearGradient>
<linearGradient id="paint5_linear_1_488" x1="41.6588" y1="29.4049" x2="23.029" y2="17.8387" gradientUnits="userSpaceOnUse">
<stop stop-color="#F8F653"/>
<stop offset="1" stop-color="#E2E2CB"/>
</linearGradient>
<linearGradient id="paint6_linear_1_488" x1="30.013" y1="46.2676" x2="27.8497" y2="50.2531" gradientUnits="userSpaceOnUse">
<stop stop-color="#F8F653" stop-opacity="0"/>
<stop offset="1" stop-color="#F8F653"/>
</linearGradient>
</defs>
</svg>
