<svg width="70" height="70" viewBox="0 0 70 70" fill="none" xmlns="http://www.w3.org/2000/svg">
<path d="M26.948 8.01303C31.6007 6.72525 37.4151 9.31972 40.62 12.3471C40.9701 12.6777 41.4216 12.6448 41.6557 12.3152C41.8069 12.1021 41.9959 11.8911 42.2575 11.6605C45.0869 9.5131 48.9646 9.13501 52.9208 11.0622C59.8016 14.4145 64.3107 23.4654 62.9922 31.2783C62.9448 31.5592 62.8911 31.8351 62.83 32.1054C62.7181 32.6004 62.8507 33.1926 63.1766 33.6554C66.1135 37.8249 67.6041 43.2467 66.7717 48.1786C66.2513 51.2618 64.9007 53.6912 63.0338 55.2968C62.5029 55.717 61.6448 56.1449 60.6381 56.6618L48.3383 62.5479L40.9708 50.9178L31.4901 46.2998L31.3889 46.2491C22.7909 41.9896 17.0133 31.025 17.9151 21.0964L13.0957 14.8618L24.1263 9.2409L24.4102 9.0985C25.2394 8.69501 25.9929 8.27745 26.948 8.01303Z" fill="url(#paint0_radial_1_489)" stroke="url(#paint1_linear_1_489)"/>
<path d="M6.16949 25.2789C7.08133 19.8761 10.0014 15.2134 14.9894 13.8324C19.7372 12.518 25.6952 15.2459 28.8553 18.3518C29.0989 18.5912 29.4205 18.5769 29.5667 18.3346C29.7387 18.0493 29.9564 17.7826 30.2994 17.4801C33.129 15.3325 37.0069 14.9539 40.9634 16.8814C47.8443 20.2337 52.3534 29.2848 51.0348 37.0977C50.9874 37.3786 50.933 37.6543 50.8719 37.9246C50.7601 38.4196 50.8926 39.0119 51.2186 39.4747C54.1555 43.6442 55.646 49.0655 54.8136 53.9974C54.2932 57.0809 52.9428 59.5107 51.0757 61.1164C49.4152 62.4307 44.869 64.4622 39.9672 62.0741L19.5325 52.1186L19.4304 52.0682C10.3568 47.5731 4.42579 35.6107 6.16949 25.2789Z" fill="url(#paint2_linear_1_489)" fill-opacity="0.44"/>
<g filter="url(#filter0_ii_1_489)">
<path d="M6.16949 25.2789C7.08133 19.8761 10.0014 15.2134 14.9894 13.8324C19.7372 12.518 25.6952 15.2459 28.8553 18.3518C29.0989 18.5912 29.4205 18.5769 29.5667 18.3346C29.7387 18.0493 29.9564 17.7826 30.2994 17.4801C33.129 15.3325 37.0069 14.9539 40.9634 16.8814C47.8443 20.2337 52.3534 29.2848 51.0348 37.0977C50.9874 37.3786 50.933 37.6543 50.8719 37.9246C50.7601 38.4196 50.8926 39.0119 51.2186 39.4747C54.1555 43.6442 55.646 49.0655 54.8136 53.9974C54.2932 57.0809 52.9428 59.5107 51.0757 61.1164C49.4152 62.4307 44.869 64.4622 39.9672 62.0741L19.5325 52.1186L19.4304 52.0682C10.3568 47.5731 4.42579 35.6107 6.16949 25.2789Z" fill="url(#paint3_linear_1_489)"/>
</g>
<path d="M40.8806 17.3746C47.4984 20.599 51.8606 29.3222 50.5853 36.8789C50.5395 37.1504 50.4866 37.4172 50.4275 37.6784C50.279 38.3363 50.4535 39.1294 50.8957 39.7573C53.7274 43.7775 55.1685 49.0113 54.3639 53.7784C53.861 56.7583 52.5566 59.1034 50.7552 60.6532C49.9625 61.2778 48.4623 62.0877 46.5651 62.45C44.6627 62.8132 42.3913 62.7217 40.0506 61.5813L19.6179 51.6268L19.5162 51.5762L19.5171 51.5767C10.7044 47.2108 4.91836 35.5745 6.61901 25.4978C7.51006 20.2183 10.3571 15.6967 15.1876 14.3594C17.4735 13.7265 20.0661 14.064 22.482 14.9473C24.901 15.8317 27.1078 17.2508 28.6155 18.7326C29.0903 19.1991 29.6918 19.1547 29.9599 18.7102C30.1085 18.4639 30.2991 18.2262 30.6141 17.9472C33.3447 15.88 37.0774 15.5218 40.8806 17.3746Z" stroke="url(#paint4_linear_1_489)" stroke-linecap="round"/>
<defs>
<filter id="filter0_ii_1_489" x="4.86536" y="10.994" width="50.1772" height="55.4852" filterUnits="userSpaceOnUse" color-interpolation-filters="sRGB">
<feFlood flood-opacity="0" result="BackgroundImageFix"/>
<feBlend mode="normal" in="SourceGraphic" in2="BackgroundImageFix" result="shape"/>
<feColorMatrix in="SourceAlpha" type="matrix" values="0 0 0 0 0 0 0 0 0 0 0 0 0 0 0 0 0 0 127 0" result="hardAlpha"/>
<feOffset dy="-5"/>
<feGaussianBlur stdDeviation="1.25"/>
<feComposite in2="hardAlpha" operator="arithmetic" k2="-1" k3="1"/>
<feColorMatrix type="matrix" values="0 0 0 0 0 0 0 0 0 0 0 0 0 0 0 0 0 0 0.28 0"/>
<feBlend mode="normal" in2="shape" result="effect1_innerShadow_1_489"/>
<feColorMatrix in="SourceAlpha" type="matrix" values="0 0 0 0 0 0 0 0 0 0 0 0 0 0 0 0 0 0 127 0" result="hardAlpha"/>
<feOffset dx="-1" dy="5"/>
<feGaussianBlur stdDeviation="1.65"/>
<feComposite in2="hardAlpha" operator="arithmetic" k2="-1" k3="1"/>
<feColorMatrix type="matrix" values="0 0 0 0 1 0 0 0 0 1 0 0 0 0 1 0 0 0 0.17 0"/>
<feBlend mode="normal" in2="effect1_innerShadow_1_489" result="effect2_innerShadow_1_489"/>
</filter>
<radialGradient id="paint0_radial_1_489" cx="0" cy="0" r="1" gradientTransform="matrix(28.2304 -23.7981 20.3833 26.3933 36.7604 38.948)" gradientUnits="userSpaceOnUse">
<stop stop-color="#F8F653"/>
<stop offset="1" stop-color="#8F8D8D"/>
</radialGradient>
<linearGradient id="paint1_linear_1_489" x1="56.5275" y1="12.6573" x2="32.2731" y2="36.6862" gradientUnits="userSpaceOnUse">
<stop stop-color="#9A9A9A"/>
<stop offset="1" stop-color="#9A9A9A" stop-opacity="0"/>
</linearGradient>
<linearGradient id="paint2_linear_1_489" x1="37.3965" y1="53.1446" x2="33.5188" y2="64.2391" gradientUnits="userSpaceOnUse">
<stop stop-opacity="0"/>
<stop offset="1"/>
</linearGradient>
<linearGradient id="paint3_linear_1_489" x1="46.3181" y1="28.9257" x2="19.2364" y2="12.8327" gradientUnits="userSpaceOnUse">
<stop stop-color="#F8F653"/>
<stop offset="1" stop-color="#E2E2CB"/>
</linearGradient>
<linearGradient id="paint4_linear_1_489" x1="29.7839" y1="53.9384" x2="26.4998" y2="59.7297" gradientUnits="userSpaceOnUse">
<stop stop-color="#F8F653" stop-opacity="0"/>
<stop offset="1" stop-color="#F8F653"/>
</linearGradient>
</defs>
</svg>
