<svg width="45" height="46" viewBox="0 0 45 46" fill="none" xmlns="http://www.w3.org/2000/svg">
<path d="M25.9381 44.8334C24.7731 46.3001 22.4121 45.4965 22.3831 43.6237L21.9731 16.2324H40.3911C43.7271 16.2324 45.5882 20.0855 43.5132 22.6981L25.9381 44.8334Z" fill="url(#paint0_linear_1_494)"/>
<path d="M25.9381 44.8334C24.7731 46.3001 22.4121 45.4965 22.3831 43.6237L21.9731 16.2324H40.3911C43.7271 16.2324 45.5882 20.0855 43.5132 22.6981L25.9381 44.8334Z" fill="url(#paint1_linear_1_494)" fill-opacity="0.2"/>
<path d="M18.4472 0.757487C19.6122 -0.709313 21.9742 0.0943885 22.0022 1.96719L22.1822 29.3584H3.99423C0.658226 29.3584 -1.20278 25.5054 0.872217 22.8927L18.4472 0.757487Z" fill="#3ECF8E"/>
<defs>
<linearGradient id="paint0_linear_1_494" x1="21.9731" y1="22.3057" x2="38.3421" y2="29.171" gradientUnits="userSpaceOnUse">
<stop stop-color="#249361"/>
<stop offset="1" stop-color="#3ECF8E"/>
</linearGradient>
<linearGradient id="paint1_linear_1_494" x1="14.7161" y1="12.3693" x2="22.1811" y2="26.4221" gradientUnits="userSpaceOnUse">
<stop/>
<stop offset="1" stop-opacity="0"/>
</linearGradient>
</defs>
</svg>
