<svg width="206" height="222" viewBox="0 0 206 222" fill="none" xmlns="http://www.w3.org/2000/svg">
<path d="M109.733 102.514L7.05199 173.818C3.90421 176.004 4.28471 180.773 7.73926 182.432L87.4282 220.705C89.0888 221.502 91.0534 221.322 92.5412 220.236L198.606 142.797C201.8 140.465 201.15 135.522 197.462 134.095L114.389 101.958C112.841 101.359 111.097 101.567 109.733 102.514Z" fill="#D9D9D9" fill-opacity="0.5"/>
<rect x="45.3954" y="55.7656" width="19.7559" height="125.591" rx="9.87795" transform="rotate(-22.1025 45.3954 55.7656)" fill="#FFDA03"/>
<path d="M37.1251 33.401C38.1482 25.7231 47.1356 22.0733 53.2222 26.8638L84.3989 51.4016C90.4293 56.1479 89.087 65.6372 81.9768 68.5248L45.5596 83.3141C38.4493 86.2016 30.8709 80.335 31.8845 72.7281L37.1251 33.401Z" fill="#FFDA03"/>
</svg>
