<svg width="333" height="333" viewBox="0 0 333 333" fill="none" xmlns="http://www.w3.org/2000/svg">
<g filter="url(#filter0_d_1014_107)">
<rect x="64" y="56" width="205" height="205" rx="64.0625" fill="url(#paint0_linear_1014_107)"/>
<path opacity="0.4" d="M167.822 72.8604L196.589 56.25C197.706 56.2831 198.798 56.3198 199.865 56.3623L169.557 73.8613L203.297 93.3418L239.11 72.6641L212.388 57.2354C213.941 57.4058 215.433 57.5996 216.87 57.8203L240.845 71.6631L244.407 69.6055C244.896 69.9875 245.378 70.3767 245.854 70.7725L242.579 72.6641L254.609 79.6094C255.549 80.7634 256.449 81.9513 257.309 83.1709L240.845 73.666L205.031 94.3428L242.62 116.045L265.378 102.906L265.457 102.865C265.699 102.756 265.969 102.769 266.195 102.881C266.294 103.317 266.388 103.758 266.479 104.204C266.433 104.261 266.382 104.315 266.32 104.359L266.245 104.408L244.354 117.046L268.821 131.171C268.836 131.838 268.85 132.514 268.862 133.198L242.62 118.047L208.881 137.526L242.102 156.707L268.96 141.2C268.965 141.858 268.967 142.523 268.971 143.196L243.836 157.708L268.979 172.225C268.977 172.897 268.973 173.563 268.969 174.221L242.102 158.71L203.285 181.121L242.459 203.737L268.75 188.559C268.73 189.249 268.707 189.929 268.684 190.6L244.193 204.739L265.469 217.022C265.308 217.602 265.139 218.172 264.964 218.733L242.459 205.74L209.99 224.485L246.586 245.613C246.118 246.014 245.641 246.406 245.161 246.793L208.256 225.486L170.106 247.513L193.183 260.836C192.085 260.859 190.965 260.879 189.819 260.896L168.372 248.514L146.847 260.94C145.691 260.929 144.558 260.916 143.449 260.899L166.638 247.513L127.464 224.896L88.5508 247.362C88.063 246.98 87.5816 246.59 87.1055 246.194L125.729 223.895L92.5088 204.714L75.9141 214.296L75.835 214.336C75.4343 214.516 74.954 214.367 74.7295 213.979C74.505 213.59 74.6163 213.099 74.9727 212.842L75.0469 212.794L90.7744 203.713L68.9775 191.129C68.5632 190.889 68.4212 190.359 68.6602 189.944C68.8996 189.53 69.43 189.388 69.8447 189.627L92.5088 202.712L130.658 180.686L93.0703 158.983L64.8584 175.272L64.7793 175.312C64.5356 175.422 64.2632 175.408 64.0361 175.294C64.0327 174.783 64.0311 174.269 64.0283 173.749L91.3359 157.982L70.9287 146.2C70.5143 145.961 70.3723 145.43 70.6113 145.016C70.8508 144.601 71.3813 144.459 71.7959 144.698L93.0703 156.98L125.537 138.236L91.7969 118.756L64.8584 134.31L64.7793 134.35C64.5631 134.447 64.325 134.445 64.1152 134.364C64.1243 133.81 64.1349 133.261 64.1455 132.718L90.0625 117.755L68.5439 105.331C68.1297 105.092 67.9876 104.561 68.2266 104.146C68.466 103.732 68.9965 103.59 69.4111 103.829L91.7969 116.753L130.614 94.3418L94.8018 73.666L74.0195 85.6641C74.7352 84.5397 75.4836 83.4388 76.2656 82.3643L93.0674 72.6641L88.2432 69.8789C88.7329 69.4903 89.2301 69.1108 89.7314 68.7363L94.8008 71.6631L119.587 57.3525C120.939 57.1922 122.338 57.0533 123.789 56.9287L96.5352 72.6641L132.349 93.3408L166.088 73.8613L135.625 56.2734C136.705 56.2391 137.809 56.2108 138.938 56.1846L167.822 72.8604ZM129.198 223.895L168.372 246.512L206.522 224.485L167.349 201.868L129.198 223.895ZM169.083 200.867L208.257 223.483L240.725 204.739L201.551 182.122L169.083 200.867ZM94.2432 203.713L127.464 222.894L165.614 200.867L132.393 181.687L94.2432 203.713ZM134.127 180.685L167.349 199.865L199.816 181.121L166.595 161.94L134.127 180.685ZM168.33 160.938L201.551 180.119L240.367 157.708L207.146 138.528L168.33 160.938ZM94.8047 157.982L132.393 179.684L164.86 160.939L127.271 139.237L94.8047 157.982ZM129.007 138.235L166.596 159.938L205.412 137.526L167.823 115.825L129.007 138.235ZM93.5312 117.755L127.272 137.234L166.089 114.823L132.349 95.3438L93.5312 117.755ZM169.558 114.823L207.146 136.525L240.886 117.046L203.297 95.3438L169.558 114.823ZM134.083 94.3418L167.823 113.822L201.563 94.3428L167.822 74.8623L134.083 94.3418Z" fill="url(#paint1_radial_1014_107)"/>
<path d="M147.901 56.0479C144.438 60.5017 142.477 66.1076 142.477 72.0157C142.477 80.9722 148.082 90.4336 155.289 94.4375C159.223 96.4604 167.461 100.391 168.102 104.047C168.742 100.391 176.981 96.4604 180.914 94.4375C188.121 90.7312 193.727 80.9722 193.727 72.0157C193.727 66.1225 191.774 60.5305 188.327 56.0821C190.357 56.1078 192.311 56.1422 194.195 56.1866C196.987 60.8786 198.531 66.3403 198.531 72.0157C198.531 77.4496 196.848 82.9431 194.193 87.5821C191.633 92.0562 187.97 96.0749 183.542 98.4825L183.111 98.71C181.014 99.7885 178.253 101.139 175.872 102.671C174.688 103.433 173.787 104.123 173.2 104.703C172.951 104.95 172.824 105.115 172.766 105.196C172.241 107.329 170.325 108.852 168.102 108.852C165.878 108.852 163.961 107.329 163.437 105.196C163.378 105.115 163.251 104.949 163.003 104.703C162.416 104.123 161.515 103.433 160.331 102.671C158.545 101.522 156.545 100.475 154.772 99.5684L153.092 98.71L152.956 98.6377C144.172 93.7577 137.672 82.6572 137.672 72.0157C137.672 66.3141 139.23 60.8276 142.046 56.1211C143.929 56.0892 145.879 56.0651 147.901 56.0479Z" fill="url(#paint2_linear_1014_107)"/>
<path d="M166.5 56C174.647 56 181.869 56.0003 188.327 56.082C191.774 60.5304 193.727 66.1224 193.727 72.0156C193.727 80.9722 188.121 90.7312 180.914 94.4375C176.981 96.4603 168.742 100.391 168.102 104.047C167.461 100.391 159.222 96.4603 155.289 94.4375C148.082 90.4336 142.477 80.9722 142.477 72.0156C142.477 66.1075 144.438 60.5017 147.901 56.0479C153.516 56 159.684 56 166.5 56Z" fill="url(#paint3_linear_1014_107)"/>
<circle opacity="0.3" cx="168.102" cy="72.0156" r="9.60938" fill="url(#paint4_linear_1014_107)"/>
<g filter="url(#filter1_f_1014_107)">
<path d="M188.922 188.93L102.438 210.551L145.68 216.957L158.492 243.383L188.922 188.93Z" fill="#939393"/>
</g>
<path d="M166.5 201.742L228.096 166.081C234.515 162.365 234.483 153.088 228.04 149.416L168.102 115.258" stroke="url(#paint5_linear_1014_107)" stroke-width="4.80469" stroke-linecap="round" stroke-linejoin="round"/>
<circle cx="168.102" cy="115.258" r="7.20703" fill="#E3E3E3" stroke="black" stroke-width="4.80469"/>
<path d="M102.438 193.734V181.723L158.492 177.719L188.922 160.102V174.516L158.492 228.969L145.68 200.141L102.438 193.734Z" fill="#C5C437"/>
<path d="M124.859 184.125L145.68 185.727V200.141L124.859 198.539V184.125Z" fill="url(#paint6_linear_1014_107)"/>
<path d="M177.711 179.32L188.922 160.102V176.117L177.711 195.336V179.32Z" fill="url(#paint7_linear_1014_107)"/>
<path d="M172.105 189.73L158.492 214.555V228.969L172.105 205.746V189.73Z" fill="url(#paint8_linear_1014_107)"/>
<path d="M148.883 193.734L158.492 214.555V228.969L148.883 208.148V193.734Z" fill="url(#paint9_linear_1014_107)"/>
<path d="M188.52 158.551C188.999 158.426 189.51 158.532 189.902 158.835C190.294 159.138 190.523 159.606 190.523 160.102V174.516C190.523 174.789 190.454 175.058 190.32 175.297L159.891 229.75C159.595 230.279 159.025 230.596 158.419 230.568C157.813 230.541 157.275 230.173 157.028 229.619L144.573 201.595L102.203 195.318C101.418 195.202 100.836 194.528 100.836 193.734V181.723C100.836 180.983 101.343 180.339 102.062 180.166L145.277 169.762L188.52 158.551Z" stroke="black" stroke-width="3.20312" stroke-linejoin="round"/>
<path d="M188.922 160.102L102.438 181.723L145.68 188.129L158.492 214.555L188.922 160.102Z" fill="url(#paint10_linear_1014_107)"/>
</g>
<defs>
<filter id="filter0_d_1014_107" x="0" y="0" width="333" height="333" filterUnits="userSpaceOnUse" color-interpolation-filters="sRGB">
<feFlood flood-opacity="0" result="BackgroundImageFix"/>
<feColorMatrix in="SourceAlpha" type="matrix" values="0 0 0 0 0 0 0 0 0 0 0 0 0 0 0 0 0 0 127 0" result="hardAlpha"/>
<feOffset dy="8"/>
<feGaussianBlur stdDeviation="32"/>
<feComposite in2="hardAlpha" operator="out"/>
<feColorMatrix type="matrix" values="0 0 0 0 0 0 0 0 0 0 0 0 0 0 0 0 0 0 0.1 0"/>
<feBlend mode="normal" in2="BackgroundImageFix" result="effect1_dropShadow_1014_107"/>
<feBlend mode="normal" in="SourceGraphic" in2="effect1_dropShadow_1014_107" result="shape"/>
</filter>
<filter id="filter1_f_1014_107" x="91.707" y="178.199" width="107.945" height="75.9141" filterUnits="userSpaceOnUse" color-interpolation-filters="sRGB">
<feFlood flood-opacity="0" result="BackgroundImageFix"/>
<feBlend mode="normal" in="SourceGraphic" in2="BackgroundImageFix" result="shape"/>
<feGaussianBlur stdDeviation="5.36523" result="effect1_foregroundBlur_1014_107"/>
</filter>
<linearGradient id="paint0_linear_1014_107" x1="166.5" y1="56" x2="166.5" y2="261" gradientUnits="userSpaceOnUse">
<stop stop-color="#D9D9D9"/>
<stop offset="1" stop-color="white"/>
</linearGradient>
<radialGradient id="paint1_radial_1014_107" cx="0" cy="0" r="1" gradientTransform="matrix(8.11978e-06 89.7332 -113.12 -0.360884 167.205 160.885)" gradientUnits="userSpaceOnUse">
<stop stop-color="#A4A4A4"/>
<stop offset="1" stop-color="#C4C4C4" stop-opacity="0"/>
</radialGradient>
<linearGradient id="paint2_linear_1014_107" x1="168.102" y1="56.0479" x2="168.102" y2="108.852" gradientUnits="userSpaceOnUse">
<stop offset="0.24854" stop-color="#DCDCDC" stop-opacity="0"/>
<stop offset="0.75"/>
</linearGradient>
<linearGradient id="paint3_linear_1014_107" x1="168.102" y1="56" x2="168.102" y2="104.047" gradientUnits="userSpaceOnUse">
<stop stop-color="white" stop-opacity="0"/>
<stop offset="0.75" stop-color="white"/>
</linearGradient>
<linearGradient id="paint4_linear_1014_107" x1="168.102" y1="62.4062" x2="168.102" y2="81.625" gradientUnits="userSpaceOnUse">
<stop stop-color="#ADADAD" stop-opacity="0"/>
<stop offset="1" stop-color="#ADADAD"/>
</linearGradient>
<linearGradient id="paint5_linear_1014_107" x1="204.537" y1="115.258" x2="204.938" y2="198.539" gradientUnits="userSpaceOnUse">
<stop/>
<stop offset="0.5" stop-color="#666666"/>
<stop offset="1"/>
</linearGradient>
<linearGradient id="paint6_linear_1014_107" x1="124.859" y1="192.133" x2="145.68" y2="193.734" gradientUnits="userSpaceOnUse">
<stop stop-color="#C5C437"/>
<stop offset="1" stop-color="#A5A427"/>
</linearGradient>
<linearGradient id="paint7_linear_1014_107" x1="177.711" y1="184.926" x2="188.922" y2="169.711" gradientUnits="userSpaceOnUse">
<stop stop-color="#C5C437"/>
<stop offset="1" stop-color="#A5A427"/>
</linearGradient>
<linearGradient id="paint8_linear_1014_107" x1="172.906" y1="197.738" x2="158.492" y2="222.562" gradientUnits="userSpaceOnUse">
<stop stop-color="#C5C437"/>
<stop offset="1" stop-color="#F1F05D"/>
</linearGradient>
<linearGradient id="paint9_linear_1014_107" x1="148.883" y1="202.543" x2="158.492" y2="222.562" gradientUnits="userSpaceOnUse">
<stop stop-color="#C5C437"/>
<stop offset="1" stop-color="#A5A427"/>
</linearGradient>
<linearGradient id="paint10_linear_1014_107" x1="188.922" y1="160.102" x2="145.68" y2="187.328" gradientUnits="userSpaceOnUse">
<stop stop-color="#FFFE8F"/>
<stop offset="1" stop-color="#FFFD55"/>
</linearGradient>
</defs>
</svg>
