<svg width="93" height="76" viewBox="0 0 93 76" fill="none" xmlns="http://www.w3.org/2000/svg">
<path d="M3.20312 36.836V24.8242L59.2578 20.8203L89.6875 3.20316V17.6172L59.2578 72.0703L46.4453 43.2422L3.20312 36.836Z" fill="#C5C437"/>
<path d="M25.625 27.2266L46.4453 28.8282V43.2422L25.625 41.6407V27.2266Z" fill="url(#paint0_linear_1014_144)"/>
<path d="M78.4766 22.4219L89.6875 3.20316V19.2188L78.4766 38.4375V22.4219Z" fill="url(#paint1_linear_1014_144)"/>
<path d="M72.8711 32.8321L59.2578 57.6563V72.0703L72.8711 48.8477V32.8321Z" fill="url(#paint2_linear_1014_144)"/>
<path d="M49.6484 36.836L59.2578 57.6563V72.0703L49.6484 51.25V36.836Z" fill="url(#paint3_linear_1014_144)"/>
<path d="M89.2852 1.65237C89.7649 1.52799 90.276 1.63324 90.668 1.93655C91.0598 2.23987 91.2891 2.70763 91.2891 3.20316V17.6172C91.2891 17.8907 91.2193 18.1597 91.0859 18.3985L60.6562 72.8516C60.3604 73.381 59.7904 73.6976 59.1846 73.67C58.5788 73.6422 58.0402 73.2749 57.7939 72.7207L45.3389 44.6963L2.96875 38.42C2.18345 38.3036 1.60156 37.6298 1.60156 36.836V24.8242C1.60156 24.0842 2.10869 23.4409 2.82812 23.2676L46.043 12.8633L89.2852 1.65237Z" stroke="black" stroke-width="3.20312" stroke-linejoin="round"/>
<path d="M89.6875 3.20316L3.20312 24.8242L46.4453 31.2305L59.2578 57.6563L89.6875 3.20316Z" fill="url(#paint4_linear_1014_144)"/>
<defs>
<linearGradient id="paint0_linear_1014_144" x1="25.625" y1="35.2344" x2="46.4453" y2="36.836" gradientUnits="userSpaceOnUse">
<stop stop-color="#C5C437"/>
<stop offset="1" stop-color="#A5A427"/>
</linearGradient>
<linearGradient id="paint1_linear_1014_144" x1="78.4766" y1="28.0274" x2="89.6875" y2="12.8125" gradientUnits="userSpaceOnUse">
<stop stop-color="#C5C437"/>
<stop offset="1" stop-color="#A5A427"/>
</linearGradient>
<linearGradient id="paint2_linear_1014_144" x1="73.6719" y1="40.8399" x2="59.2578" y2="65.6641" gradientUnits="userSpaceOnUse">
<stop stop-color="#C5C437"/>
<stop offset="1" stop-color="#F1F05D"/>
</linearGradient>
<linearGradient id="paint3_linear_1014_144" x1="49.6484" y1="45.6446" x2="59.2578" y2="65.6641" gradientUnits="userSpaceOnUse">
<stop stop-color="#C5C437"/>
<stop offset="1" stop-color="#A5A427"/>
</linearGradient>
<linearGradient id="paint4_linear_1014_144" x1="89.6875" y1="3.20316" x2="46.4453" y2="30.4297" gradientUnits="userSpaceOnUse">
<stop stop-color="#FFFE8F"/>
<stop offset="1" stop-color="#FFFD55"/>
</linearGradient>
</defs>
</svg>
