<svg width="308" height="308" viewBox="0 0 308 308" fill="none" xmlns="http://www.w3.org/2000/svg">
<g filter="url(#filter0_d_1023_94)">
<rect x="64" y="56" width="180" height="180" rx="56.25" fill="url(#paint0_linear_1023_94)"/>
<g opacity="0.4">
<path d="M155.161 70.8027L180.417 56.2197C181.399 56.2488 182.358 56.2801 183.295 56.3174L156.685 71.6826L186.311 88.7871L217.756 70.6318L194.291 57.084C195.658 57.2339 196.97 57.4083 198.233 57.6025L219.278 69.7529L222.406 67.9463C222.835 68.2816 223.258 68.6233 223.677 68.9707L220.801 70.6318L231.364 76.7305C232.189 77.7434 232.979 78.786 233.733 79.8564L219.278 71.5107L187.834 89.666L220.837 108.721L240.819 97.1846L240.889 97.1494C241.101 97.0538 241.339 97.065 241.537 97.1631C241.623 97.5455 241.706 97.9325 241.786 98.3242C241.745 98.374 241.701 98.4219 241.646 98.4609L241.581 98.5039L222.36 109.601L243.842 122.003C243.855 122.588 243.868 123.181 243.879 123.782L220.837 110.479L191.212 127.584L220.382 144.425L243.965 130.81C243.969 131.387 243.971 131.972 243.975 132.562L221.904 145.305L243.982 158.051C243.98 158.642 243.976 159.226 243.973 159.804L220.382 146.184L186.299 165.861L220.694 185.72L243.779 172.391C243.761 172.997 243.743 173.594 243.722 174.184L222.218 186.6L240.899 197.385C240.758 197.894 240.61 198.394 240.456 198.888L220.695 187.479L192.187 203.938L224.319 222.489C223.908 222.841 223.49 223.185 223.068 223.525L190.664 204.816L157.166 224.156L177.43 235.855C176.466 235.876 175.482 235.894 174.477 235.909L155.644 225.036L136.742 235.948C135.727 235.938 134.733 235.926 133.759 235.912L154.121 224.156L119.725 204.298L85.5566 224.024C85.1285 223.689 84.706 223.347 84.2881 222.999L118.202 203.419L89.0312 186.577L74.4609 194.99L74.3916 195.026C74.0397 195.184 73.618 195.053 73.4209 194.712C73.2242 194.371 73.3211 193.94 73.6338 193.714L73.6992 193.672L87.5088 185.698L68.3701 174.648C68.0067 174.438 67.8818 173.972 68.0918 173.608C68.3021 173.245 68.768 173.121 69.1318 173.33L89.0312 184.819L122.528 165.479L89.5254 146.424L64.7539 160.727L64.6846 160.763C64.4704 160.859 64.2308 160.847 64.0312 160.746C64.0283 160.298 64.0278 159.845 64.0254 159.389L88.0029 145.545L70.083 135.199C69.7194 134.989 69.5947 134.523 69.8047 134.159C70.0149 133.795 70.4808 133.671 70.8447 133.881L89.5254 144.666L118.033 128.207L88.4072 111.102L64.7539 124.759L64.6846 124.795C64.4947 124.88 64.2858 124.878 64.1016 124.808C64.1095 124.32 64.1186 123.838 64.1279 123.361L86.8848 110.223L67.9902 99.3145C67.6264 99.1041 67.5018 98.6384 67.7119 98.2744C67.9222 97.9106 68.3879 97.7861 68.752 97.9961L88.4072 109.344L122.49 89.665L91.0449 71.5107L72.7988 82.0449C73.4272 81.0577 74.0838 80.0909 74.7705 79.1475L89.5225 70.6309L85.2881 68.1855C85.718 67.8444 86.1536 67.5103 86.5938 67.1816L91.0449 69.752L112.8 57.1904C113.989 57.0492 115.22 56.9251 116.497 56.8154L92.5674 70.6318L124.013 88.7861L153.639 71.6816L126.893 56.2402C127.841 56.2101 128.81 56.1852 129.802 56.1621L155.161 70.8027ZM121.247 203.419L155.644 223.277L189.141 203.937L154.745 184.078L121.247 203.419ZM156.268 183.199L190.663 203.058L219.172 186.599L184.776 166.74L156.268 183.199ZM90.5537 185.698L119.725 202.54L153.222 183.199L124.052 166.357L90.5537 185.698ZM125.574 165.479L154.744 182.32L183.253 165.861L154.083 149.02L125.574 165.479ZM155.605 148.141L184.775 164.982L218.859 145.305L189.688 128.463L155.605 148.141ZM91.0479 145.545L124.051 164.6L152.56 148.141L119.557 129.086L91.0479 145.545ZM121.079 128.207L154.082 147.262L188.166 127.583L155.163 108.528L121.079 128.207ZM89.9297 110.223L119.556 127.328L153.64 107.649L124.014 90.5449L89.9297 110.223ZM156.686 107.649L189.688 126.704L219.313 109.6L186.311 90.5449L156.686 107.649ZM125.536 89.666L155.162 106.771L184.788 89.666L155.162 72.5615L125.536 89.666Z" fill="url(#paint1_radial_1023_94)"/>
</g>
<path d="M137.67 56.042C134.629 59.9527 132.906 64.8748 132.906 70.0625C132.906 77.9268 137.828 86.2344 144.156 89.75C147.61 91.5262 154.844 94.9776 155.406 98.1875C155.969 94.9776 163.202 91.5262 166.656 89.75C172.984 86.4957 177.906 77.9268 177.906 70.0625C177.906 64.8882 176.192 59.9781 173.166 56.0723C174.948 56.0948 176.664 56.1251 178.317 56.1641C180.769 60.2839 182.125 65.0793 182.125 70.0625C182.125 74.8338 180.647 79.6572 178.315 83.7305C175.995 87.7855 172.644 91.4151 168.586 93.502C166.745 94.4489 164.32 95.6346 162.229 96.9795C161.19 97.6482 160.398 98.254 159.883 98.7637C159.665 98.9792 159.553 99.1235 159.501 99.1953C159.041 101.068 157.359 102.406 155.406 102.406C153.453 102.406 151.77 101.068 151.311 99.1953C151.259 99.1233 151.147 98.9788 150.93 98.7637C150.415 98.254 149.623 97.6482 148.583 96.9795C146.492 95.6346 144.068 94.4489 142.227 93.502C142.186 93.4813 142.147 93.4594 142.107 93.4375C134.395 89.1526 128.688 79.4062 128.688 70.0625C128.688 65.0562 130.056 60.239 132.528 56.1064C134.182 56.0784 135.894 56.0571 137.67 56.042Z" fill="url(#paint2_linear_1023_94)"/>
<path d="M154 56C161.154 56 167.496 56.0005 173.166 56.0723C176.192 59.9781 177.906 64.8882 177.906 70.0625C177.906 77.9268 172.984 86.4956 166.656 89.75C163.202 91.5262 155.969 94.9776 155.406 98.1875C154.844 94.9776 147.61 91.5262 144.156 89.75C137.828 86.2344 132.906 77.9268 132.906 70.0625C132.906 64.8745 134.629 59.9518 137.67 56.041C142.6 55.999 148.016 56 154 56Z" fill="url(#paint3_linear_1023_94)"/>
<circle opacity="0.3" cx="155.406" cy="70.0625" r="8.4375" fill="url(#paint4_linear_1023_94)"/>
<g filter="url(#filter1_f_1023_94)">
<path d="M173.688 172.719L97.75 191.703L135.719 197.328L146.969 220.531L173.688 172.719Z" fill="#939393"/>
</g>
<path d="M154 183.969L208.085 152.657C213.72 149.394 213.692 141.248 208.035 138.024L155.406 108.031" stroke="url(#paint5_linear_1023_94)" stroke-width="4.21875" stroke-linecap="round" stroke-linejoin="round"/>
<circle cx="155.406" cy="108.031" r="6.32812" fill="#E3E3E3" stroke="black" stroke-width="4.21875"/>
<path d="M97.75 176.938V166.391L146.969 162.875L173.688 147.406V160.062L146.969 207.875L135.719 182.562L97.75 176.938Z" fill="#C5C437"/>
<path d="M117.438 168.5L135.719 169.906V182.562L117.438 181.156V168.5Z" fill="url(#paint6_linear_1023_94)"/>
<path d="M163.844 164.281L173.688 147.406V161.469L163.844 178.344V164.281Z" fill="url(#paint7_linear_1023_94)"/>
<path d="M158.922 173.422L146.969 195.219V207.875L158.922 187.484V173.422Z" fill="url(#paint8_linear_1023_94)"/>
<path d="M138.531 176.938L146.969 195.219V207.875L138.531 189.594V176.938Z" fill="url(#paint9_linear_1023_94)"/>
<path d="M173.335 146.045C173.756 145.936 174.204 146.028 174.548 146.294C174.892 146.56 175.094 146.971 175.094 147.406V160.062C175.094 160.303 175.032 160.538 174.915 160.748L148.196 208.561C147.937 209.025 147.436 209.304 146.904 209.279C146.372 209.255 145.9 208.933 145.684 208.446L134.747 183.839L97.5439 178.328C96.8544 178.226 96.3438 177.635 96.3438 176.938V166.391C96.3438 165.741 96.7891 165.176 97.4209 165.023L135.378 155.885L173.335 146.045Z" stroke="black" stroke-width="2.8125" stroke-linejoin="round"/>
<path d="M173.688 147.406L97.75 166.391L135.719 172.016L146.969 195.219L173.688 147.406Z" fill="url(#paint10_linear_1023_94)"/>
</g>
<defs>
<filter id="filter0_d_1023_94" x="0" y="0" width="308" height="308" filterUnits="userSpaceOnUse" color-interpolation-filters="sRGB">
<feFlood flood-opacity="0" result="BackgroundImageFix"/>
<feColorMatrix in="SourceAlpha" type="matrix" values="0 0 0 0 0 0 0 0 0 0 0 0 0 0 0 0 0 0 127 0" result="hardAlpha"/>
<feOffset dy="8"/>
<feGaussianBlur stdDeviation="32"/>
<feComposite in2="hardAlpha" operator="out"/>
<feColorMatrix type="matrix" values="0 0 0 0 0 0 0 0 0 0 0 0 0 0 0 0 0 0 0.1 0"/>
<feBlend mode="normal" in2="BackgroundImageFix" result="effect1_dropShadow_1023_94"/>
<feBlend mode="normal" in="SourceGraphic" in2="effect1_dropShadow_1023_94" result="shape"/>
</filter>
<filter id="filter1_f_1023_94" x="88.3281" y="163.297" width="94.7812" height="66.6562" filterUnits="userSpaceOnUse" color-interpolation-filters="sRGB">
<feFlood flood-opacity="0" result="BackgroundImageFix"/>
<feBlend mode="normal" in="SourceGraphic" in2="BackgroundImageFix" result="shape"/>
<feGaussianBlur stdDeviation="4.71094" result="effect1_foregroundBlur_1023_94"/>
</filter>
<linearGradient id="paint0_linear_1023_94" x1="154" y1="56" x2="154" y2="236" gradientUnits="userSpaceOnUse">
<stop stop-color="#D9D9D9"/>
<stop offset="1" stop-color="white"/>
</linearGradient>
<radialGradient id="paint1_radial_1023_94" cx="0" cy="0" r="1" gradientTransform="matrix(7.12956e-06 78.7901 -99.3244 -0.316874 154.619 148.094)" gradientUnits="userSpaceOnUse">
<stop stop-color="#A4A4A4"/>
<stop offset="1" stop-color="#C4C4C4" stop-opacity="0"/>
</radialGradient>
<linearGradient id="paint2_linear_1023_94" x1="155.406" y1="56.042" x2="155.406" y2="102.406" gradientUnits="userSpaceOnUse">
<stop offset="0.24854" stop-color="#DCDCDC" stop-opacity="0"/>
<stop offset="0.75"/>
</linearGradient>
<linearGradient id="paint3_linear_1023_94" x1="155.406" y1="56" x2="155.406" y2="98.1875" gradientUnits="userSpaceOnUse">
<stop stop-color="white" stop-opacity="0"/>
<stop offset="0.75" stop-color="white"/>
</linearGradient>
<linearGradient id="paint4_linear_1023_94" x1="155.406" y1="61.625" x2="155.406" y2="78.5" gradientUnits="userSpaceOnUse">
<stop stop-color="#ADADAD" stop-opacity="0"/>
<stop offset="1" stop-color="#ADADAD"/>
</linearGradient>
<linearGradient id="paint5_linear_1023_94" x1="187.398" y1="108.031" x2="187.75" y2="181.156" gradientUnits="userSpaceOnUse">
<stop/>
<stop offset="0.5" stop-color="#666666"/>
<stop offset="1"/>
</linearGradient>
<linearGradient id="paint6_linear_1023_94" x1="117.438" y1="175.531" x2="135.719" y2="176.937" gradientUnits="userSpaceOnUse">
<stop stop-color="#C5C437"/>
<stop offset="1" stop-color="#A5A427"/>
</linearGradient>
<linearGradient id="paint7_linear_1023_94" x1="163.844" y1="169.203" x2="173.688" y2="155.844" gradientUnits="userSpaceOnUse">
<stop stop-color="#C5C437"/>
<stop offset="1" stop-color="#A5A427"/>
</linearGradient>
<linearGradient id="paint8_linear_1023_94" x1="159.625" y1="180.453" x2="146.969" y2="202.25" gradientUnits="userSpaceOnUse">
<stop stop-color="#C5C437"/>
<stop offset="1" stop-color="#F1F05D"/>
</linearGradient>
<linearGradient id="paint9_linear_1023_94" x1="138.531" y1="184.672" x2="146.969" y2="202.25" gradientUnits="userSpaceOnUse">
<stop stop-color="#C5C437"/>
<stop offset="1" stop-color="#A5A427"/>
</linearGradient>
<linearGradient id="paint10_linear_1023_94" x1="173.688" y1="147.406" x2="135.719" y2="171.313" gradientUnits="userSpaceOnUse">
<stop stop-color="#FFFE8F"/>
<stop offset="1" stop-color="#FFFD55"/>
</linearGradient>
</defs>
</svg>
