<svg width="539" height="539" viewBox="0 0 539 539" fill="none" xmlns="http://www.w3.org/2000/svg">
<g clip-path="url(#clip0_4494_1962)">
<path d="M538.946 0H0.191406V539H538.946V0Z" fill="#262626"/>
<path d="M467.149 515.826H468.468V522.061H471.614V523.233H467.149V515.826ZM475.778 520.221C475.778 520.059 475.754 519.906 475.705 519.759C475.663 519.614 475.592 519.484 475.496 519.373C475.398 519.26 475.272 519.174 475.118 519.111C474.973 519.042 474.799 519.007 474.597 519.007C474.219 519.007 473.9 519.123 473.635 519.351C473.377 519.575 473.234 519.865 473.205 520.221H475.778ZM477.033 520.786C477.033 520.84 477.033 520.897 477.033 520.953C477.033 521.007 477.028 521.064 477.021 521.12H473.205C473.22 521.302 473.264 521.469 473.342 521.621C473.426 521.769 473.534 521.896 473.667 522.009C473.797 522.113 473.949 522.196 474.116 522.26C474.283 522.324 474.457 522.353 474.639 522.353C474.951 522.353 475.216 522.299 475.432 522.186C475.648 522.068 475.827 521.909 475.965 521.705L476.802 522.375C476.306 523.044 475.589 523.38 474.649 523.38C474.258 523.38 473.9 523.321 473.571 523.201C473.244 523.076 472.957 522.901 472.714 522.678C472.478 522.457 472.289 522.184 472.149 521.862C472.016 521.535 471.95 521.164 471.95 520.754C471.95 520.349 472.016 519.983 472.149 519.656C472.289 519.322 472.478 519.039 472.714 518.808C472.952 518.57 473.229 518.391 473.551 518.263C473.878 518.133 474.229 518.066 474.607 518.066C474.956 518.066 475.275 518.125 475.57 518.243C475.869 518.354 476.127 518.526 476.343 518.757C476.559 518.978 476.726 519.26 476.844 519.604C476.969 519.938 477.033 520.332 477.033 520.786ZM478.246 518.211H479.44V519.017H479.459C479.572 518.767 479.764 518.545 480.036 518.359C480.314 518.162 480.643 518.066 481.019 518.066C481.345 518.066 481.625 518.125 481.856 518.243C482.092 518.354 482.283 518.504 482.43 518.693C482.583 518.882 482.696 519.098 482.764 519.341C482.833 519.585 482.87 519.838 482.87 520.096V523.233H481.615V520.449C481.615 520.304 481.603 520.15 481.583 519.99C481.561 519.83 481.517 519.688 481.446 519.56C481.377 519.43 481.279 519.322 481.154 519.236C481.036 519.152 480.876 519.111 480.672 519.111C480.471 519.111 480.297 519.152 480.149 519.236C480.004 519.314 479.882 519.415 479.783 519.54C479.695 519.666 479.624 519.813 479.575 519.98C479.526 520.14 479.501 520.304 479.501 520.472V523.233H478.246V518.211ZM487.084 519.55C486.971 519.405 486.819 519.28 486.622 519.174C486.428 519.064 486.215 519.007 485.986 519.007C485.782 519.007 485.598 519.049 485.431 519.133C485.264 519.216 485.181 519.356 485.181 519.55C485.181 519.747 485.272 519.884 485.451 519.97C485.64 520.047 485.913 520.125 486.269 520.209C486.455 520.253 486.644 520.307 486.831 520.378C487.027 520.447 487.202 520.54 487.354 520.661C487.516 520.771 487.644 520.914 487.742 521.088C487.84 521.255 487.889 521.462 487.889 521.705C487.889 522.012 487.828 522.275 487.71 522.491C487.599 522.7 487.445 522.869 487.251 523.002C487.062 523.135 486.838 523.23 486.58 523.284C486.33 523.348 486.07 523.38 485.797 523.38C485.407 523.38 485.026 523.309 484.658 523.169C484.287 523.024 483.98 522.818 483.737 522.552L484.562 521.778C484.702 521.96 484.884 522.11 485.107 522.228C485.331 522.348 485.576 522.407 485.849 522.407C485.94 522.407 486.03 522.395 486.121 522.375C486.219 522.353 486.305 522.324 486.382 522.282C486.465 522.233 486.531 522.169 486.58 522.093C486.63 522.017 486.654 521.921 486.654 521.81C486.654 521.602 486.556 521.452 486.362 521.361C486.173 521.27 485.888 521.179 485.505 521.088C485.316 521.046 485.132 520.995 484.95 520.931C484.776 520.862 484.618 520.774 484.478 520.67C484.341 520.557 484.228 520.422 484.144 520.263C484.061 520.101 484.019 519.904 484.019 519.666C484.019 519.388 484.076 519.147 484.186 518.943C484.304 518.742 484.459 518.577 484.648 518.452C484.835 518.319 485.048 518.221 485.284 518.16C485.522 518.096 485.765 518.066 486.016 518.066C486.379 518.066 486.73 518.128 487.072 518.253C487.42 518.378 487.695 518.57 487.899 518.828L487.084 519.55ZM495.43 517.376C495.29 517.194 495.091 517.044 494.834 516.924C494.583 516.799 494.328 516.737 494.07 516.737C493.918 516.737 493.765 516.757 493.611 516.799C493.459 516.836 493.319 516.895 493.193 516.978C493.068 517.054 492.962 517.16 492.879 517.29C492.803 517.418 492.764 517.57 492.764 517.752C492.764 517.919 492.798 518.061 492.869 518.179C492.938 518.3 493.031 518.401 493.152 518.484C493.277 518.568 493.427 518.641 493.601 518.703C493.775 518.767 493.967 518.828 494.176 518.892C494.414 518.968 494.657 519.056 494.907 519.152C495.165 519.251 495.398 519.381 495.607 519.54C495.823 519.7 495.998 519.904 496.13 520.147C496.27 520.39 496.339 520.695 496.339 521.056C496.339 521.454 496.268 521.803 496.12 522.103C495.973 522.395 495.779 522.641 495.536 522.835C495.29 523.031 495.006 523.176 494.676 523.275C494.35 523.373 494.004 523.422 493.643 523.422C493.161 523.422 492.69 523.334 492.231 523.159C491.772 522.977 491.393 522.714 491.101 522.366L492.042 521.486C492.223 521.737 492.464 521.936 492.764 522.083C493.071 522.228 493.37 522.302 493.662 522.302C493.817 522.302 493.974 522.285 494.134 522.25C494.293 522.208 494.436 522.142 494.564 522.051C494.694 521.96 494.799 521.85 494.875 521.717C494.959 521.577 495.001 521.405 495.001 521.204C495.001 521.007 494.956 520.847 494.866 520.722C494.775 520.589 494.652 520.479 494.5 520.388C494.347 520.29 494.166 520.206 493.957 520.137C493.746 520.066 493.527 519.992 493.296 519.916C493.073 519.848 492.852 519.764 492.629 519.666C492.405 519.567 492.204 519.44 492.022 519.28C491.848 519.118 491.705 518.924 491.592 518.693C491.482 518.457 491.425 518.162 491.425 517.813C491.425 517.438 491.501 517.113 491.656 516.841C491.816 516.57 492.022 516.347 492.272 516.172C492.53 515.991 492.82 515.858 493.139 515.774C493.468 515.683 493.8 515.639 494.134 515.639C494.509 515.639 494.89 515.706 495.273 515.838C495.664 515.971 496.002 516.167 496.287 516.433L495.43 517.376ZM496.815 519.216V518.211H497.692V516.757H498.927V518.211H500.182V519.216H498.927V521.548C498.927 521.771 498.964 521.958 499.04 522.103C499.126 522.25 499.305 522.324 499.585 522.324C499.669 522.324 499.76 522.317 499.858 522.302C499.954 522.282 500.042 522.253 500.118 522.218L500.16 523.201C500.049 523.243 499.917 523.275 499.762 523.297C499.61 523.324 499.462 523.338 499.322 523.338C498.988 523.338 498.716 523.292 498.507 523.201C498.298 523.105 498.131 522.975 498.006 522.815C497.888 522.648 497.805 522.459 497.756 522.25C497.714 522.034 497.692 521.803 497.692 521.56V519.216H496.815ZM505.668 523.233H504.477V522.427H504.455C504.344 522.678 504.15 522.901 503.87 523.098C503.598 523.284 503.273 523.38 502.898 523.38C502.571 523.38 502.289 523.324 502.051 523.213C501.82 523.093 501.628 522.941 501.476 522.751C501.329 522.565 501.221 522.348 501.152 522.103C501.083 521.86 501.046 521.609 501.046 521.351V518.211H502.301V520.995C502.301 521.14 502.313 521.295 502.333 521.454C502.355 521.614 502.399 521.761 502.468 521.894C502.539 522.019 502.633 522.125 502.75 522.208C502.878 522.292 503.04 522.334 503.244 522.334C503.438 522.334 503.61 522.294 503.755 522.218C503.909 522.135 504.03 522.029 504.121 521.904C504.219 521.778 504.293 521.636 504.342 521.476C504.391 521.309 504.413 521.14 504.413 520.973V518.211H505.668V523.233ZM512.278 523.233H511.085V522.479H511.065C510.891 522.773 510.645 522.997 510.333 523.149C510.026 523.302 509.695 523.38 509.339 523.38C508.956 523.38 508.609 523.309 508.305 523.169C508.003 523.024 507.745 522.832 507.529 522.594C507.32 522.351 507.158 522.068 507.038 521.747C506.927 521.42 506.871 521.071 506.871 520.702C506.871 520.331 506.93 519.988 507.05 519.666C507.168 519.344 507.335 519.066 507.551 518.828C507.767 518.592 508.025 518.408 508.325 518.275C508.624 518.135 508.953 518.066 509.307 518.066C509.538 518.066 509.744 518.093 509.926 518.15C510.105 518.199 510.262 518.26 510.395 518.337C510.535 518.415 510.652 518.499 510.751 518.587C510.849 518.678 510.927 518.767 510.991 518.85H511.023V515.325H512.278V523.233ZM508.148 520.702C508.148 520.897 508.175 521.093 508.231 521.287C508.293 521.484 508.384 521.656 508.501 521.81C508.622 521.963 508.771 522.088 508.953 522.186C509.132 522.285 509.346 522.334 509.589 522.334C509.82 522.334 510.026 522.287 510.208 522.196C510.387 522.1 510.542 521.975 510.667 521.82C510.8 521.668 510.898 521.496 510.959 521.309C511.028 521.113 511.065 520.919 511.065 520.722C511.065 520.528 511.028 520.331 510.959 520.137C510.898 519.941 510.8 519.766 510.667 519.614C510.542 519.459 510.387 519.334 510.208 519.236C510.026 519.14 509.82 519.091 509.589 519.091C509.346 519.091 509.132 519.14 508.953 519.236C508.771 519.327 508.622 519.45 508.501 519.604C508.384 519.757 508.293 519.931 508.231 520.125C508.175 520.314 508.148 520.506 508.148 520.702ZM513.823 518.211H515.077V523.233H513.823V518.211ZM513.643 516.506C513.643 516.305 513.717 516.131 513.864 515.983C514.017 515.831 514.208 515.755 514.439 515.755C514.67 515.755 514.861 515.826 515.014 515.973C515.176 516.113 515.254 516.29 515.254 516.506C515.254 516.723 515.176 516.904 515.014 517.052C514.861 517.189 514.67 517.261 514.439 517.261C514.208 517.261 514.017 517.187 513.864 517.04C513.717 516.887 513.643 516.708 513.643 516.506ZM516.305 520.702C516.305 520.304 516.376 519.946 516.516 519.624C516.661 519.297 516.858 519.017 517.101 518.786C517.344 518.558 517.634 518.378 517.97 518.253C518.304 518.128 518.66 518.066 519.036 518.066C519.412 518.066 519.768 518.128 520.102 518.253C520.436 518.378 520.725 518.558 520.971 518.786C521.214 519.017 521.405 519.297 521.545 519.624C521.69 519.946 521.764 520.304 521.764 520.702C521.764 521.098 521.69 521.462 521.545 521.788C521.405 522.117 521.214 522.4 520.971 522.636C520.725 522.867 520.436 523.049 520.102 523.181C519.768 523.314 519.412 523.38 519.036 523.38C518.66 523.38 518.304 523.314 517.97 523.181C517.634 523.049 517.344 522.867 517.101 522.636C516.858 522.4 516.661 522.117 516.516 521.788C516.376 521.462 516.305 521.098 516.305 520.702ZM517.582 520.702C517.582 520.897 517.609 521.093 517.666 521.287C517.729 521.484 517.818 521.656 517.938 521.81C518.056 521.963 518.206 522.088 518.388 522.186C518.569 522.285 518.785 522.334 519.036 522.334C519.286 522.334 519.502 522.285 519.684 522.186C519.866 522.088 520.016 521.963 520.133 521.81C520.251 521.656 520.34 521.484 520.394 521.287C520.458 521.093 520.49 520.897 520.49 520.702C520.49 520.506 520.458 520.314 520.394 520.125C520.34 519.931 520.251 519.757 520.133 519.604C520.016 519.45 519.866 519.327 519.684 519.236C519.502 519.14 519.286 519.091 519.036 519.091C518.785 519.091 518.569 519.14 518.388 519.236C518.206 519.327 518.056 519.45 517.938 519.604C517.818 519.757 517.729 519.931 517.666 520.125C517.609 520.314 517.582 520.506 517.582 520.702Z" fill="white"/>
<path d="M495.327 467.574L505.002 462.734C505.174 462.648 505.366 462.609 505.557 462.619C505.749 462.628 505.935 462.685 506.097 462.786C506.262 462.886 506.397 463.029 506.49 463.196C506.584 463.363 506.635 463.552 506.635 463.744V480.245L495.327 486.353V467.574Z" fill="url(#paint0_linear_4494_1962)"/>
<path d="M477.119 485.115L495.325 486.36V504.913L479.197 503.611C478.632 503.565 478.104 503.309 477.718 502.891C477.333 502.474 477.119 501.926 477.119 501.358V485.115Z" fill="url(#paint1_linear_4494_1962)"/>
<path d="M477.119 485.115L495.325 486.36V504.913L479.197 503.611C478.632 503.565 478.104 503.309 477.718 502.891C477.333 502.474 477.119 501.926 477.119 501.358V485.115Z" fill="url(#paint2_linear_4494_1962)"/>
<path d="M477.151 485.11L495.244 486.353L483.948 492.463L469.765 491.311C469.519 491.291 469.288 491.193 469.104 491.031C468.922 490.866 468.795 490.647 468.748 490.406C468.699 490.168 468.731 489.918 468.837 489.697C468.942 489.475 469.116 489.294 469.335 489.181L477.151 485.11Z" fill="url(#paint3_linear_4494_1962)"/>
<path opacity="0.2" d="M477.234 485.115L495.327 486.36V505.139L479.309 503.837C478.745 503.791 478.217 503.535 477.834 503.117C477.448 502.7 477.234 502.154 477.234 501.587V485.115Z" fill="url(#paint4_linear_4494_1962)"/>
<path d="M479.506 466.704L495.328 467.591V486.358L477.122 485.112V468.95C477.122 468.35 477.36 467.775 477.785 467.35C478.207 466.928 478.782 466.689 479.381 466.689L479.506 466.704Z" fill="url(#paint5_linear_4494_1962)"/>
<path d="M495.327 486.358L513.081 487.375V503.732C513.081 504.331 512.843 504.906 512.42 505.331C511.996 505.753 511.421 505.992 510.822 505.992H510.665L495.327 504.916V486.358Z" fill="url(#paint6_linear_4494_1962)"/>
<g opacity="0.5">
<path opacity="0.5" d="M495.394 504.867L512.811 487.589L495.394 488.07V504.867Z" fill="url(#paint7_linear_4494_1962)"/>
</g>
<path d="M484.019 492.463L495.315 486.353V504.908L486.696 509.736C486.421 509.891 486.111 509.969 485.794 509.964C485.48 509.962 485.171 509.876 484.901 509.716C484.628 509.559 484.402 509.33 484.247 509.058C484.09 508.783 484.007 508.473 484.007 508.159L484.019 492.463Z" fill="url(#paint8_linear_4494_1962)"/>
<g opacity="0.29">
<path opacity="0.29" d="M495.327 486.358L513.081 487.377L504.877 492.482C503.595 493.283 502.093 493.659 500.585 493.558L484.02 492.468L495.327 486.358Z" fill="url(#paint9_linear_4494_1962)"/>
<path opacity="0.29" d="M495.327 486.358L513.081 487.377L504.877 492.482C503.595 493.283 502.093 493.659 500.585 493.558L484.02 492.468L495.327 486.358Z" fill="url(#paint10_linear_4494_1962)"/>
</g>
<path opacity="0.1" d="M484.019 492.463L495.315 486.353V505.134L486.671 509.802C486.396 509.952 486.087 510.026 485.775 510.021C485.461 510.013 485.156 509.925 484.888 509.765C484.618 509.606 484.397 509.377 484.243 509.104C484.088 508.834 484.007 508.525 484.007 508.213L484.019 492.463Z" fill="#DBC202"/>
<g opacity="0.44">
<path opacity="0.44" d="M484.088 492.468L511.35 487.417L495.327 486.353L484.088 492.468Z" fill="url(#paint11_linear_4494_1962)"/>
</g>
<path d="M506.635 480.246L519.637 480.865C519.878 480.875 520.109 480.963 520.296 481.115C520.485 481.268 520.617 481.474 520.679 481.707C520.74 481.941 520.725 482.189 520.634 482.412C520.546 482.636 520.386 482.825 520.183 482.953L513.081 487.375L495.327 486.355L506.635 480.246Z" fill="url(#paint12_linear_4494_1962)"/>
<path d="M495.327 467.581L510.952 468.476C511.527 468.51 512.069 468.761 512.465 469.181C512.86 469.598 513.081 470.153 513.081 470.731V487.377L495.327 486.36V467.581Z" fill="#FFFA05"/>
<path d="M495.394 467.984L508.212 488.552L493.525 486.353V467.984H495.394Z" fill="url(#paint13_linear_4494_1962)"/>
<path d="M486.016 472.232L495.328 467.564V486.358L484.032 492.468V475.47C484.03 474.799 484.214 474.141 484.565 473.568C484.916 472.998 485.417 472.534 486.016 472.232Z" fill="url(#paint14_linear_4494_1962)"/>
<path d="M486.016 472.232L495.328 467.564V486.358L484.032 492.468V475.47C484.03 474.799 484.214 474.141 484.565 473.568C484.916 472.998 485.417 472.534 486.016 472.232Z" fill="url(#paint15_linear_4494_1962)"/>
<path opacity="0.29" d="M477.49 485.336L495.244 486.353L483.948 492.463L470.197 491.497C469.951 491.48 469.72 491.382 469.536 491.22C469.35 491.057 469.224 490.841 469.175 490.601C469.124 490.36 469.153 490.109 469.259 489.888C469.364 489.664 469.536 489.483 469.755 489.37L477.49 485.336Z" fill="url(#paint16_linear_4494_1962)"/>
<path d="M270.06 503.255C399.1 503.255 503.708 398.6 503.708 269.5C503.708 140.401 399.1 35.745 270.06 35.745C141.019 35.745 36.4111 140.401 36.4111 269.5C36.4111 398.6 141.019 503.255 270.06 503.255Z" fill="#333333"/>
<path d="M270.06 522.154C409.534 522.154 522.599 409.038 522.599 269.5C522.599 129.963 409.534 16.8456 270.06 16.8456C130.586 16.8456 17.5205 129.963 17.5205 269.5C17.5205 409.038 130.586 522.154 270.06 522.154Z" fill="#FFD403"/>
<path d="M270.06 514.428C405.269 514.428 514.876 404.771 514.876 269.5C514.876 134.23 405.269 24.5719 270.06 24.5719C134.851 24.5719 25.2432 134.23 25.2432 269.5C25.2432 404.771 134.851 514.428 270.06 514.428Z" fill="#F3AEB2"/>
<path d="M270.059 506.935C401.131 506.935 507.386 400.631 507.386 269.5C507.386 138.368 401.131 32.0648 270.059 32.0648C138.987 32.0648 32.7324 138.368 32.7324 269.5C32.7324 400.631 138.987 506.935 270.059 506.935Z" fill="#92278E"/>
<path d="M270.06 499.673C397.124 499.673 500.128 396.622 500.128 269.5C500.128 142.379 397.124 39.3268 270.06 39.3268C142.996 39.3268 39.9912 142.379 39.9912 269.5C39.9912 396.622 142.996 499.673 270.06 499.673Z" fill="#FF4AA2"/>
<path d="M270.059 492.635C393.236 492.635 493.092 392.733 493.092 269.5C493.092 146.266 393.236 46.3653 270.059 46.3653C146.882 46.3653 47.0264 146.266 47.0264 269.5C47.0264 392.733 146.882 492.635 270.059 492.635Z" fill="#E34C39"/>
<path d="M270.06 485.81C389.47 485.81 486.272 388.964 486.272 269.5C486.272 150.035 389.47 53.19 270.06 53.19C150.65 53.19 53.8486 150.035 53.8486 269.5C53.8486 388.964 150.65 485.81 270.06 485.81Z" fill="#00C2DF"/>
<path d="M270.06 479.194C385.818 479.194 479.658 385.311 479.658 269.5C479.658 153.689 385.818 59.8059 270.06 59.8059C154.301 59.8059 60.4609 153.689 60.4609 269.5C60.4609 385.311 154.301 479.194 270.06 479.194Z" fill="#18BE93"/>
<path d="M270.06 472.78C382.278 472.78 473.247 381.769 473.247 269.5C473.247 157.232 382.278 66.2203 270.06 66.2203C157.843 66.2203 66.873 157.232 66.873 269.5C66.873 381.769 157.843 472.78 270.06 472.78Z" fill="#A1CF63"/>
<path d="M270.06 465.778C378.412 465.778 466.248 377.902 466.248 269.5C466.248 161.099 378.412 73.2219 270.06 73.2219C161.708 73.2219 73.8711 161.099 73.8711 269.5C73.8711 377.902 161.708 465.778 270.06 465.778Z" fill="white"/>
<path d="M400.292 333.915C400.292 339.457 396.363 343.95 391.496 343.95C386.629 343.95 382.7 339.457 382.7 333.915" stroke="#FFD403" stroke-width="19" stroke-miterlimit="10" stroke-linecap="round"/>
<path d="M329.348 333.915C329.348 339.457 325.419 343.95 320.552 343.95C315.685 343.95 311.756 339.457 311.756 333.915" stroke="#FFD403" stroke-width="19" stroke-miterlimit="10" stroke-linecap="round"/>
<path d="M391.42 404.631C391.42 410.173 387.491 414.666 382.624 414.666C377.757 414.666 373.828 410.173 373.828 404.631" stroke="#00C2DF" stroke-width="14.25" stroke-miterlimit="10" stroke-linecap="round"/>
<path d="M429.451 168.677C429.451 174.219 425.522 178.713 420.655 178.713C415.788 178.713 411.859 174.219 411.859 168.677" stroke="#92278E" stroke-width="13.3" stroke-miterlimit="10" stroke-linecap="round"/>
<path d="M312.271 155.091C317.811 155.091 322.303 159.022 322.303 163.891C322.303 168.761 317.811 172.691 312.271 172.691" stroke="#92278E" stroke-width="19" stroke-miterlimit="10" stroke-linecap="round"/>
<path d="M350.851 213.475C349.211 213.475 347.74 213.831 348.67 214.765C349.294 215.35 350.038 215.791 350.851 216.055C351.664 215.789 352.408 215.349 353.034 214.765C353.933 213.866 352.491 213.475 350.851 213.475Z" fill="#A1CF63"/>
<path d="M325.235 212.342C325.402 212.374 325.571 212.368 325.736 212.325C325.9 212.283 326.052 212.205 326.183 212.097C330.264 208.657 335.352 211.077 337.046 212.706C337.267 212.919 337.564 213.035 337.871 213.029C338.178 213.023 338.468 212.895 338.681 212.674C338.895 212.453 339.01 212.156 339.003 211.85C338.998 211.543 338.871 211.251 338.649 211.038C336.486 208.96 329.971 205.894 324.694 210.326C324.525 210.467 324.402 210.654 324.336 210.863C324.27 211.073 324.265 211.297 324.321 211.509C324.378 211.722 324.493 211.914 324.655 212.063C324.817 212.211 325.019 212.311 325.235 212.35V212.342Z" fill="#A1CF63"/>
<path d="M376.458 212.342C376.291 212.374 376.121 212.368 375.957 212.326C375.792 212.283 375.64 212.205 375.51 212.097C371.426 208.657 366.338 211.077 364.644 212.706C364.42 212.905 364.128 213.01 363.829 212.999C363.532 212.987 363.247 212.86 363.04 212.644C362.832 212.428 362.716 212.14 362.719 211.84C362.719 211.541 362.834 211.253 363.043 211.038C365.206 208.96 371.718 205.894 376.996 210.326C377.163 210.467 377.288 210.653 377.354 210.863C377.42 211.072 377.425 211.296 377.369 211.509C377.312 211.721 377.197 211.913 377.035 212.062C376.875 212.211 376.674 212.311 376.458 212.35V212.342Z" fill="#A1CF63"/>
<path d="M358.782 97.4819C357.142 97.4819 355.671 97.8381 356.602 98.7716C357.226 99.3571 357.97 99.7973 358.782 100.061C359.595 99.7958 360.342 99.3556 360.965 98.7716C361.864 97.8725 360.423 97.4819 358.782 97.4819Z" fill="#00C2DF"/>
<path d="M333.166 96.3493C333.333 96.3808 333.503 96.3749 333.667 96.3324C333.832 96.2899 333.984 96.2118 334.114 96.1037C338.195 92.6643 343.283 95.0841 344.978 96.7129C345.199 96.9257 345.496 97.0419 345.803 97.0357C346.11 97.0298 346.399 96.9021 346.613 96.681C346.827 96.4599 346.942 96.1631 346.935 95.8563C346.93 95.5494 346.802 95.2576 346.581 95.0448C344.418 92.9665 337.903 89.9005 332.626 94.3324C332.459 94.4739 332.334 94.6604 332.268 94.8702C332.201 95.0797 332.196 95.304 332.253 95.5163C332.309 95.7288 332.425 95.9206 332.587 96.0695C332.749 96.2184 332.95 96.3179 333.166 96.3567V96.3493Z" fill="#00C2DF"/>
<path d="M206.684 448.262C205.044 448.262 203.573 448.618 204.503 449.551C205.126 450.136 205.871 450.578 206.684 450.841C207.497 450.576 208.242 450.136 208.867 449.551C209.766 448.652 208.324 448.262 206.684 448.262Z" fill="#00C2DF"/>
<path d="M384.757 160.835C387.512 160.835 389.747 158.6 389.747 155.843C389.747 153.086 387.512 150.851 384.757 150.851C382.002 150.851 379.768 153.086 379.768 155.843C379.768 158.6 382.002 160.835 384.757 160.835Z" fill="#18BE93"/>
<path d="M393.374 160.835C396.13 160.835 398.364 158.6 398.364 155.843C398.364 153.086 396.13 150.851 393.374 150.851C390.619 150.851 388.385 153.086 388.385 155.843C388.385 158.6 390.619 160.835 393.374 160.835Z" fill="#18BE93"/>
<path d="M384.757 157.841C385.86 157.841 386.754 156.946 386.754 155.843C386.754 154.74 385.86 153.846 384.757 153.846C383.655 153.846 382.761 154.74 382.761 155.843C382.761 156.946 383.655 157.841 384.757 157.841Z" fill="white"/>
<path d="M393.374 157.841C394.477 157.841 395.371 156.946 395.371 155.843C395.371 154.74 394.477 153.846 393.374 153.846C392.272 153.846 391.378 154.74 391.378 155.843C391.378 156.946 392.272 157.841 393.374 157.841Z" fill="white"/>
<path d="M425.962 366.992C425.447 366.992 424.951 366.785 424.585 366.422C424.221 366.056 424.015 365.559 424.015 365.043C424.015 361.177 421.365 358.032 418.122 358.032C414.878 358.032 412.216 361.177 412.216 365.043C412.216 365.559 412.01 366.056 411.646 366.422C411.28 366.785 410.784 366.992 410.269 366.992C409.753 366.992 409.257 366.785 408.891 366.422C408.528 366.056 408.321 365.559 408.321 365.043C408.321 359.029 412.717 354.136 418.122 354.136C423.526 354.136 427.919 359.029 427.919 365.043C427.919 365.299 427.868 365.554 427.77 365.79C427.671 366.029 427.526 366.242 427.345 366.424C427.163 366.606 426.947 366.748 426.711 366.847C426.473 366.943 426.218 366.994 425.962 366.992Z" fill="#E34C39"/>
<path d="M378.16 366.992C377.644 366.992 377.148 366.785 376.782 366.422C376.419 366.056 376.213 365.559 376.213 365.043C376.213 361.177 373.563 358.032 370.319 358.032C367.075 358.032 364.426 361.177 364.426 365.043C364.426 365.559 364.22 366.056 363.856 366.422C363.49 366.785 362.994 366.992 362.479 366.992C361.963 366.992 361.467 366.785 361.101 366.422C360.738 366.056 360.531 365.559 360.531 365.043C360.531 359.029 364.927 354.136 370.331 354.136C375.736 354.136 380.132 359.029 380.132 365.043C380.132 365.301 380.08 365.557 379.982 365.795C379.881 366.034 379.736 366.25 379.552 366.429C379.368 366.611 379.152 366.753 378.914 366.852C378.673 366.947 378.418 366.994 378.16 366.992Z" fill="#E34C39"/>
<path d="M426.259 380.447C427.472 380.447 428.457 379.462 428.457 378.248C428.457 377.035 427.472 376.05 426.259 376.05C425.046 376.05 424.062 377.035 424.062 378.248C424.062 379.462 425.046 380.447 426.259 380.447Z" fill="#E34C39"/>
<path d="M420.764 383.378C421.977 383.378 422.962 382.393 422.962 381.179C422.962 379.965 421.977 378.98 420.764 378.98C419.551 378.98 418.566 379.965 418.566 381.179C418.566 382.393 419.551 383.378 420.764 383.378Z" fill="#E34C39"/>
<path d="M420.764 377.33C421.977 377.33 422.962 376.344 422.962 375.131C422.962 373.917 421.977 372.932 420.764 372.932C419.551 372.932 418.566 373.917 418.566 375.131C418.566 376.344 419.551 377.33 420.764 377.33Z" fill="#E34C39"/>
<path d="M362.517 380.447C363.73 380.447 364.715 379.462 364.715 378.248C364.715 377.035 363.73 376.05 362.517 376.05C361.304 376.05 360.319 377.035 360.319 378.248C360.319 379.462 361.304 380.447 362.517 380.447Z" fill="#E34C39"/>
<path d="M368.01 383.378C369.223 383.378 370.208 382.393 370.208 381.179C370.208 379.965 369.223 378.98 368.01 378.98C366.797 378.98 365.812 379.965 365.812 381.179C365.812 382.393 366.797 383.378 368.01 383.378Z" fill="#E34C39"/>
<path d="M368.01 377.33C369.223 377.33 370.208 376.344 370.208 375.131C370.208 373.917 369.223 372.932 368.01 372.932C366.797 372.932 365.812 373.917 365.812 375.131C365.812 376.344 366.797 377.33 368.01 377.33Z" fill="#E34C39"/>
<path d="M397.095 378.418L401.159 374.19C401.436 373.902 401.623 373.539 401.694 373.146C401.768 372.753 401.721 372.347 401.564 371.981C401.407 371.613 401.144 371.301 400.81 371.082C400.476 370.863 400.085 370.748 399.685 370.75H388.719C388.321 370.75 387.93 370.866 387.599 371.087C387.265 371.306 387.005 371.62 386.85 371.986C386.693 372.352 386.649 372.758 386.722 373.151C386.793 373.541 386.98 373.902 387.258 374.19L391.324 378.418C391.697 378.806 392.147 379.113 392.643 379.324C393.139 379.533 393.671 379.644 394.209 379.644C394.747 379.644 395.28 379.533 395.776 379.324C396.272 379.113 396.721 378.806 397.095 378.418Z" fill="#E34C39"/>
<path d="M395.304 374.765H393.106V384.844H395.304V374.765Z" fill="#E34C39"/>
<path d="M405.377 384.569C405.377 386.051 404.788 387.473 403.742 388.522C402.693 389.569 401.271 390.158 399.791 390.158C398.31 390.158 396.888 389.569 395.84 388.522C394.793 387.473 394.204 386.051 394.204 384.569" stroke="#E34C39" stroke-width="9.5" stroke-miterlimit="10" stroke-linecap="round"/>
<path d="M383.031 384.569C383.031 386.051 383.621 387.473 384.667 388.522C385.715 389.569 387.137 390.158 388.618 390.158C390.098 390.158 391.52 389.569 392.569 388.522C393.615 387.473 394.204 386.051 394.204 384.569" stroke="#E34C39" stroke-width="9.5" stroke-miterlimit="10" stroke-linecap="round"/>
<path d="M420.194 162.231C421.407 162.231 422.392 161.246 422.392 160.032C422.392 158.818 421.407 157.833 420.194 157.833C418.981 157.833 417.996 158.818 417.996 160.032C417.996 161.246 418.981 162.231 420.194 162.231Z" fill="#92278E"/>
<path d="M241.035 323.968C242.248 323.968 243.232 322.982 243.232 321.769C243.232 320.555 242.248 319.57 241.035 319.57C239.821 319.57 238.837 320.555 238.837 321.769C238.837 322.982 239.821 323.968 241.035 323.968Z" fill="#92278E"/>
<path d="M302.461 230.173C306.952 230.173 310.594 226.53 310.594 222.036C310.594 217.543 306.952 213.9 302.461 213.9C297.97 213.9 294.328 217.543 294.328 222.036C294.328 226.53 297.97 230.173 302.461 230.173Z" fill="#F5F5F5" stroke="#FF4AA2" stroke-width="10.68" stroke-miterlimit="10"/>
<path d="M302.628 200.12C307.119 200.12 310.761 196.477 310.761 191.984C310.761 187.49 307.119 183.847 302.628 183.847C298.137 183.847 294.495 187.49 294.495 191.984C294.495 196.477 298.137 200.12 302.628 200.12Z" fill="#F5F5F5" stroke="#FF4AA2" stroke-width="10.68" stroke-miterlimit="10"/>
<path d="M435.078 242.69C433.035 242.689 431.077 241.877 429.631 240.432C428.187 238.987 427.377 237.027 427.377 234.983C427.377 233.349 428.025 231.781 429.182 230.625C430.336 229.469 431.905 228.819 433.538 228.819C434.844 228.82 436.099 229.34 437.022 230.264C437.946 231.189 438.466 232.443 438.466 233.75C438.466 234.796 438.051 235.8 437.312 236.54C436.571 237.28 435.569 237.696 434.523 237.696C434.108 237.696 433.698 237.614 433.315 237.455C432.934 237.297 432.585 237.064 432.293 236.771C431.998 236.478 431.768 236.13 431.608 235.747C431.451 235.364 431.37 234.953 431.37 234.539C431.37 234.207 431.436 233.879 431.561 233.573C431.689 233.267 431.873 232.989 432.109 232.755C432.342 232.52 432.62 232.335 432.927 232.208C433.234 232.081 433.56 232.016 433.892 232.016" stroke="#A1CF63" stroke-width="8.55" stroke-linecap="round" stroke-linejoin="round"/>
<path d="M435.078 213.05C433.035 213.049 431.077 212.237 429.631 210.792C428.187 209.347 427.377 207.387 427.377 205.343C427.377 203.708 428.025 202.141 429.182 200.985C430.336 199.829 431.905 199.179 433.538 199.179C434.844 199.18 436.099 199.7 437.022 200.624C437.946 201.549 438.466 202.803 438.466 204.11C438.466 205.156 438.051 206.16 437.312 206.9C436.571 207.64 435.569 208.056 434.523 208.056C434.108 208.056 433.698 207.974 433.315 207.815C432.934 207.657 432.585 207.424 432.293 207.131C431.998 206.837 431.768 206.49 431.608 206.107C431.451 205.724 431.37 205.313 431.37 204.899C431.37 204.567 431.436 204.239 431.561 203.933C431.689 203.627 431.873 203.349 432.109 203.115C432.342 202.88 432.62 202.694 432.927 202.567C433.234 202.441 433.56 202.376 433.892 202.376" stroke="#A1CF63" stroke-width="8.55" stroke-linecap="round" stroke-linejoin="round"/>
<path d="M457.618 235.192H454.585V245.928H457.618V235.192Z" fill="#18BE93"/>
<path d="M446.887 235.19V238.224H457.618V235.19H446.887Z" fill="#18BE93"/>
<path d="M327.213 314.777H324.181V325.513H327.213V314.777Z" fill="#18BE93"/>
<path d="M316.482 314.775V317.809H327.213V314.775H316.482Z" fill="#18BE93"/>
<path d="M411.895 188.512V191.546H422.625V188.512H411.895Z" fill="#FF4AA2"/>
<path d="M411.895 199.248H414.927V188.512H411.895V199.248Z" fill="#FF4AA2"/>
<path d="M325.348 227.721V230.755H336.079V227.721H325.348Z" fill="#18BE93"/>
<path d="M325.348 238.457H328.38V227.721H325.348V238.457Z" fill="#18BE93"/>
<path d="M314.616 86.9893V90.0231H325.347V86.9893H314.616Z" fill="#18BE93"/>
<path d="M314.616 97.7251H317.649V86.9893H314.616V97.7251Z" fill="#18BE93"/>
<path d="M240.9 90.0258H237.867V100.762H240.9V90.0258Z" fill="#E34C39"/>
<path d="M230.169 90.0231V93.0573H240.9V90.0231H230.169Z" fill="#E34C39"/>
<path d="M268.193 255.728V258.762H278.924V255.728H268.193Z" fill="#FFD403"/>
<path d="M268.193 266.464H271.226V255.728H268.193V266.464Z" fill="#FFD403"/>
<path d="M395.331 256.897H392.299V267.633H395.331V256.897Z" fill="#00C2DF"/>
<path d="M384.601 256.895V259.929H395.331V256.895H384.601Z" fill="#00C2DF"/>
<path d="M306.456 202.776C306.977 202.763 307.495 202.854 307.979 203.045C308.465 203.235 308.907 203.52 309.278 203.884C309.651 204.248 309.948 204.682 310.149 205.162C310.351 205.642 310.456 206.158 310.456 206.679C310.456 207.2 310.351 207.715 310.149 208.195C309.948 208.675 309.651 209.11 309.278 209.473C308.907 209.837 308.465 210.122 307.979 210.313C307.495 210.503 306.977 210.594 306.456 210.581" fill="#FF4AA2"/>
<path d="M369.904 332.048C369.904 335.745 368.436 339.292 365.823 341.909C363.208 344.523 359.662 345.992 355.966 345.992C352.271 345.992 348.725 344.523 346.109 341.909C343.497 339.292 342.028 335.745 342.028 332.048" fill="#FFD403"/>
<path d="M410.146 286.886C413.237 286.886 415.744 284.378 415.744 281.285C415.744 278.192 413.237 275.684 410.146 275.684C407.054 275.684 404.547 278.192 404.547 281.285C404.547 284.378 407.054 286.886 410.146 286.886Z" fill="#92278E"/>
<path d="M366.404 287.004C369.496 287.004 372.003 284.496 372.003 281.403C372.003 278.31 369.496 275.802 366.404 275.802C363.313 275.802 360.806 278.31 360.806 281.403C360.806 284.496 363.313 287.004 366.404 287.004Z" fill="#92278E"/>
<path d="M398.597 287.237C398.597 290.146 397.443 292.937 395.385 294.993C393.33 297.052 390.54 298.206 387.633 298.206C384.726 298.206 381.936 297.052 379.881 294.993C377.823 292.937 376.669 290.146 376.669 287.237" fill="#92278E"/>
<path d="M226.656 426.923C229.498 426.923 231.802 424.618 231.802 421.774C231.802 418.929 229.498 416.624 226.656 416.624C223.813 416.624 221.509 418.929 221.509 421.774C221.509 424.618 223.813 426.923 226.656 426.923Z" fill="#A1CF63"/>
<path d="M186.445 427.031C189.287 427.031 191.591 424.727 191.591 421.882C191.591 419.037 189.287 416.733 186.445 416.733C183.602 416.733 181.298 419.037 181.298 421.882C181.298 424.727 183.602 427.031 186.445 427.031Z" fill="#A1CF63"/>
<path d="M216.039 427.245C216.039 429.92 214.977 432.485 213.087 434.377C211.196 436.266 208.632 437.33 205.959 437.33C203.286 437.33 200.722 436.266 198.831 434.377C196.941 432.485 195.879 429.92 195.879 427.245" fill="#A1CF63"/>
<path d="M377.02 314.777C378.567 314.777 379.819 313.524 379.819 311.976C379.819 310.429 378.567 309.176 377.02 309.176C375.473 309.176 374.221 310.429 374.221 311.976C374.221 313.524 375.473 314.777 377.02 314.777Z" fill="#00C2DF"/>
<path d="M400.463 407.198C402.01 407.198 403.263 405.945 403.263 404.397C403.263 402.85 402.01 401.597 400.463 401.597C398.916 401.597 397.664 402.85 397.664 404.397C397.664 405.945 398.916 407.198 400.463 407.198Z" fill="#00C2DF"/>
<path d="M364.772 407.198C366.319 407.198 367.571 405.945 367.571 404.397C367.571 402.85 366.319 401.597 364.772 401.597C363.225 401.597 361.973 402.85 361.973 404.397C361.973 405.945 363.225 407.198 364.772 407.198Z" fill="#00C2DF"/>
<path d="M283.59 426.336C285.137 426.336 286.39 425.083 286.39 423.535C286.39 421.987 285.137 420.734 283.59 420.734C282.043 420.734 280.791 421.987 280.791 423.535C280.791 425.083 282.043 426.336 283.59 426.336Z" fill="#F3AEB2"/>
<path d="M353.459 314.777C355.006 314.777 356.258 313.524 356.258 311.976C356.258 310.429 355.006 309.176 353.459 309.176C351.912 309.176 350.659 310.429 350.659 311.976C350.659 313.524 351.912 314.777 353.459 314.777Z" fill="#00C2DF"/>
<path d="M416.093 218.622C417.64 218.622 418.893 217.368 418.893 215.821C418.893 214.274 417.64 213.021 416.093 213.021C414.546 213.021 413.294 214.274 413.294 215.821C413.294 217.368 414.546 218.622 416.093 218.622Z" fill="#FF4AA2"/>
<path d="M249.764 261.565C251.311 261.565 252.564 260.312 252.564 258.764C252.564 257.217 251.311 255.964 249.764 255.964C248.217 255.964 246.965 257.217 246.965 258.764C246.965 260.312 248.217 261.565 249.764 261.565Z" fill="#FF4AA2"/>
<path d="M238.8 363.788C240.346 363.788 241.6 362.535 241.6 360.988C241.6 359.44 240.346 358.187 238.8 358.187C237.254 358.187 236.001 359.44 236.001 360.988C236.001 362.535 237.254 363.788 238.8 363.788Z" fill="#FF4AA2"/>
<path d="M406.062 150.706C407.609 150.706 408.861 149.452 408.861 147.906C408.861 146.359 407.609 145.105 406.062 145.105C404.515 145.105 403.263 146.359 403.263 147.906C403.263 149.452 404.515 150.706 406.062 150.706Z" fill="#18BE93"/>
<path d="M218.272 161.209C219.818 161.209 221.072 159.955 221.072 158.408C221.072 156.861 219.818 155.607 218.272 155.607C216.726 155.607 215.473 156.861 215.473 158.408C215.473 159.955 216.726 161.209 218.272 161.209Z" fill="#F3AEB2"/>
<path d="M218.272 94.9269C219.818 94.9269 221.072 93.673 221.072 92.1263C221.072 90.5795 219.818 89.3256 218.272 89.3256C216.726 89.3256 215.473 90.5795 215.473 92.1263C215.473 93.673 216.726 94.9269 218.272 94.9269Z" fill="#F3AEB2"/>
<path d="M200.543 166.81C202.089 166.81 203.342 165.556 203.342 164.009C203.342 162.463 202.089 161.209 200.543 161.209C198.996 161.209 197.743 162.463 197.743 164.009C197.743 165.556 198.996 166.81 200.543 166.81Z" fill="#F3AEB2"/>
<path d="M371.77 150.706C373.317 150.706 374.569 149.452 374.569 147.906C374.569 146.359 373.317 145.105 371.77 145.105C370.223 145.105 368.971 146.359 368.971 147.906C368.971 149.452 370.223 150.706 371.77 150.706Z" fill="#18BE93"/>
<path d="M255.555 444.989C258.31 444.989 260.545 442.754 260.545 439.997C260.545 437.241 258.31 435.005 255.555 435.005C252.8 435.005 250.565 437.241 250.565 439.997C250.565 442.754 252.8 444.989 255.555 444.989Z" fill="#18BE93"/>
<path d="M255.555 436.366C258.31 436.366 260.545 434.131 260.545 431.374C260.545 428.618 258.31 426.382 255.555 426.382C252.8 426.382 250.565 428.618 250.565 431.374C250.565 434.131 252.8 436.366 255.555 436.366Z" fill="#18BE93"/>
<path d="M255.555 441.995C256.658 441.995 257.551 441.1 257.551 439.997C257.551 438.894 256.658 438 255.555 438C254.452 438 253.559 438.894 253.559 439.997C253.559 441.1 254.452 441.995 255.555 441.995Z" fill="white"/>
<path d="M255.555 433.372C256.658 433.372 257.551 432.478 257.551 431.374C257.551 430.271 256.658 429.377 255.555 429.377C254.452 429.377 253.559 430.271 253.559 431.374C253.559 432.478 254.452 433.372 255.555 433.372Z" fill="white"/>
<path d="M247.619 421.481C249.166 421.481 250.418 420.228 250.418 418.681C250.418 417.133 249.166 415.88 247.619 415.88C246.072 415.88 244.819 417.133 244.819 418.681C244.819 420.228 246.072 421.481 247.619 421.481Z" fill="#18BE93"/>
<path d="M247.619 455.789C249.166 455.789 250.418 454.536 250.418 452.989C250.418 451.441 249.166 450.188 247.619 450.188C246.072 450.188 244.819 451.441 244.819 452.989C244.819 454.536 246.072 455.789 247.619 455.789Z" fill="#18BE93"/>
<path d="M382.035 121.533C383.582 121.533 384.834 120.279 384.834 118.732C384.834 117.186 383.582 115.932 382.035 115.932C380.488 115.932 379.235 117.186 379.235 118.732C379.235 120.279 380.488 121.533 382.035 121.533Z" fill="#00C2DF"/>
<path d="M370.14 314.077H360.339C358.473 314.077 356.958 315.59 356.958 317.46V317.462C356.958 319.332 358.473 320.845 360.339 320.845H370.14C372.006 320.845 373.521 319.332 373.521 317.462V317.46C373.521 315.59 372.006 314.077 370.14 314.077Z" fill="#00C2DF"/>
<path d="M452.485 274.588C455.552 274.588 458.037 272.102 458.037 269.033C458.037 265.965 455.552 263.479 452.485 263.479C449.418 263.479 446.933 265.965 446.933 269.033C446.933 272.102 449.418 274.588 452.485 274.588Z" fill="#F3AEB2"/>
<path d="M452.485 272.301C454.29 272.301 455.751 270.836 455.751 269.033C455.751 267.228 454.29 265.766 452.485 265.766C450.68 265.766 449.219 267.228 449.219 269.033C449.219 270.836 450.68 272.301 452.485 272.301Z" fill="white"/>
<path d="M170.683 120.086C173.749 120.086 176.235 117.599 176.235 114.531C176.235 111.464 173.749 108.977 170.683 108.977C167.617 108.977 165.131 111.464 165.131 114.531C165.131 117.599 167.617 120.086 170.683 120.086Z" fill="#F3AEB2"/>
<path d="M170.683 117.799C172.487 117.799 173.949 116.336 173.949 114.531C173.949 112.727 172.487 111.264 170.683 111.264C168.879 111.264 167.417 112.727 167.417 114.531C167.417 116.336 168.879 117.799 170.683 117.799Z" fill="white"/>
<path d="M426.358 274.588C429.425 274.588 431.91 272.102 431.91 269.033C431.91 265.965 429.425 263.479 426.358 263.479C423.291 263.479 420.806 265.965 420.806 269.033C420.806 272.102 423.291 274.588 426.358 274.588Z" fill="#F3AEB2"/>
<path d="M426.358 272.301C428.163 272.301 429.624 270.836 429.624 269.033C429.624 267.228 428.163 265.766 426.358 265.766C424.553 265.766 423.092 267.228 423.092 269.033C423.092 270.836 424.553 272.301 426.358 272.301Z" fill="white"/>
<path d="M445.253 262.614C444.635 262.614 444.04 262.368 443.603 261.931C443.166 261.494 442.921 260.899 442.921 260.28C442.921 259.29 442.528 258.339 441.828 257.639C441.128 256.939 440.178 256.546 439.188 256.546C438.199 256.546 437.248 256.939 436.548 257.639C435.849 258.339 435.456 259.29 435.456 260.28C435.456 260.899 435.21 261.494 434.773 261.931C434.336 262.368 433.742 262.614 433.123 262.614C432.504 262.614 431.91 262.368 431.473 261.931C431.036 261.494 430.79 260.899 430.79 260.28C430.79 258.052 431.674 255.914 433.251 254.34C434.825 252.762 436.961 251.878 439.188 251.878C441.415 251.878 443.552 252.762 445.126 254.34C446.702 255.914 447.586 258.052 447.586 260.28C447.586 260.899 447.341 261.494 446.904 261.931C446.466 262.368 445.872 262.614 445.253 262.614Z" fill="#F3AEB2"/>
<path d="M443.62 323.879C448.128 323.879 451.785 320.221 451.785 315.711C451.785 311.2 448.128 307.542 443.62 307.542C439.111 307.542 435.455 311.2 435.455 315.711C435.455 320.221 439.111 323.879 443.62 323.879Z" fill="#18BE93"/>
<path d="M407.228 323.879C411.737 323.879 415.393 320.221 415.393 315.711C415.393 311.2 411.737 307.542 407.228 307.542C402.72 307.542 399.063 311.2 399.063 315.711C399.063 320.221 402.72 323.879 407.228 323.879Z" fill="#18BE93"/>
<path d="M433.995 318.607C431.542 320.582 428.47 321.624 425.322 321.545C422.174 321.467 419.156 320.273 416.806 318.177" stroke="#18BE93" stroke-width="9.5" stroke-miterlimit="10" stroke-linecap="round"/>
<path d="M345.176 385.726C347.899 385.726 350.509 386.807 352.434 388.733C354.36 390.659 355.44 393.271 355.44 395.995C355.44 398.72 354.36 401.331 352.434 403.257C350.509 405.184 347.899 406.264 345.176 406.264" fill="#A1CF63"/>
<path d="M345.176 417.234C347.899 417.234 350.509 418.315 352.434 420.241C354.36 422.167 355.44 424.778 355.44 427.503C355.44 430.227 354.36 432.839 352.434 434.765C350.509 436.691 347.899 437.772 345.176 437.772" fill="#A1CF63"/>
<path d="M270.293 424.94C273.016 424.94 275.627 426.021 277.552 427.947C279.477 429.873 280.557 432.485 280.557 435.209C280.557 437.934 279.477 440.545 277.552 442.471C275.627 444.397 273.016 445.478 270.293 445.478" fill="#F3AEB2"/>
<path d="M345.176 415.6L339.811 411.866L345.409 408.132" stroke="#A1CF63" stroke-width="9.5" stroke-linecap="round" stroke-linejoin="round"/>
<path d="M393.932 189.915C395.665 189.915 397.325 190.604 398.551 191.829C399.776 193.055 400.463 194.717 400.463 196.45C400.463 198.183 399.776 199.845 398.551 201.071C397.325 202.296 395.665 202.985 393.932 202.985" stroke="#E34C39" stroke-width="7.19" stroke-linecap="round" stroke-linejoin="round"/>
<path d="M389.033 195.283C386.435 195.283 383.943 194.25 382.106 192.412C380.267 190.574 379.235 188.081 379.235 185.481C379.235 182.881 380.267 180.388 382.106 178.549C383.943 176.711 386.435 175.679 389.033 175.679" stroke="#E34C39" stroke-width="7.19" stroke-linecap="round" stroke-linejoin="round"/>
<path d="M227.603 219.089C227.603 221.688 226.571 224.181 224.734 226.02C222.896 227.858 220.404 228.891 217.806 228.891C215.207 228.891 212.715 227.858 210.878 226.02C209.04 224.181 208.008 221.688 208.008 219.089" stroke="#E34C39" stroke-width="7.19" stroke-linecap="round" stroke-linejoin="round"/>
<path d="M393.932 168.215C395.665 168.215 397.325 168.904 398.551 170.129C399.776 171.355 400.463 173.017 400.463 174.75C400.463 176.483 399.776 178.145 398.551 179.371C397.325 180.596 395.665 181.285 393.932 181.285" stroke="#E34C39" stroke-width="7.19" stroke-linecap="round" stroke-linejoin="round"/>
<path d="M405.07 234.492C405.07 236.064 405.618 237.587 406.62 238.8C407.619 240.013 409.012 240.839 410.554 241.137V227.847C409.012 228.145 407.619 228.971 406.617 230.183C405.618 231.396 405.07 232.92 405.07 234.492Z" fill="#FFD403"/>
<path d="M418.6 234.492C418.6 232.92 418.055 231.397 417.053 230.184C416.054 228.971 414.661 228.145 413.119 227.847V241.137C414.661 240.839 416.054 240.012 417.053 238.8C418.052 237.587 418.6 236.064 418.6 234.492Z" fill="#FFD403"/>
<path d="M381.686 234.492C381.686 236.064 382.233 237.587 383.233 238.799C384.232 240.012 385.624 240.839 387.166 241.137V227.847C385.624 228.145 384.232 228.972 383.233 230.184C382.233 231.397 381.686 232.92 381.686 234.492Z" fill="#FFD403"/>
<path d="M395.216 234.492C395.216 232.92 394.668 231.396 393.669 230.183C392.667 228.971 391.275 228.145 389.732 227.847V241.137C391.275 240.839 392.667 240.013 393.666 238.8C394.668 237.587 395.216 236.064 395.216 234.492Z" fill="#FFD403"/>
<path d="M391.365 243.127C395.564 244.761 401.163 247.328 408.395 243.127" stroke="#FFD403" stroke-width="7.19" stroke-linecap="round" stroke-linejoin="round"/>
<path d="M317.123 434.738C317.123 436.31 317.671 437.833 318.673 439.047C319.672 440.258 321.064 441.086 322.606 441.383V428.092C321.062 428.39 319.672 429.217 318.67 430.429C317.671 431.642 317.123 433.165 317.123 434.738Z" fill="#FFD403"/>
<path d="M330.654 434.738C330.654 433.165 330.109 431.642 329.107 430.429C328.107 429.217 326.715 428.39 325.173 428.092V441.383C326.715 441.086 328.107 440.258 329.107 439.044C330.106 437.833 330.654 436.31 330.654 434.738Z" fill="#FFD403"/>
<path d="M293.739 434.738C293.739 436.31 294.287 437.833 295.286 439.044C296.288 440.258 297.678 441.083 299.22 441.383V428.092C297.678 428.39 296.286 429.217 295.286 430.429C294.287 431.642 293.739 433.165 293.739 434.738Z" fill="#FFD403"/>
<path d="M307.269 434.738C307.269 433.165 306.722 431.642 305.722 430.429C304.721 429.217 303.331 428.39 301.786 428.092V441.383C303.328 441.086 304.721 440.258 305.72 439.047C306.722 437.833 307.269 436.31 307.269 434.738Z" fill="#FFD403"/>
<path d="M303.419 443.366C307.618 444.999 313.217 447.567 320.448 443.366" stroke="#FFD403" stroke-width="7.19" stroke-linecap="round" stroke-linejoin="round"/>
<path d="M355.441 193.416C358.532 193.416 361.039 190.908 361.039 187.815C361.039 184.721 358.532 182.214 355.441 182.214C352.349 182.214 349.842 184.721 349.842 187.815C349.842 190.908 352.349 193.416 355.441 193.416Z" fill="#00C2DF"/>
<path d="M328.38 193.416C331.472 193.416 333.979 190.908 333.979 187.815C333.979 184.721 331.472 182.214 328.38 182.214C325.288 182.214 322.781 184.721 322.781 187.815C322.781 190.908 325.288 193.416 328.38 193.416Z" fill="#00C2DF"/>
<path d="M347.276 190.615C347.276 192.101 346.686 193.526 345.635 194.576C344.587 195.627 343.162 196.217 341.677 196.217C340.191 196.217 338.767 195.627 337.718 194.576C336.667 193.526 336.078 192.101 336.078 190.615" stroke="#00C2DF" stroke-width="7.19" stroke-linecap="round" stroke-linejoin="round"/>
<path d="M431.024 301.474C433.988 301.474 436.389 299.071 436.389 296.106C436.389 293.141 433.988 290.738 431.024 290.738C428.06 290.738 425.658 293.141 425.658 296.106C425.658 299.071 428.06 301.474 431.024 301.474Z" fill="#E34C39"/>
<path d="M448.752 222.823C450.812 222.823 452.485 221.151 452.485 219.089C452.485 217.026 450.812 215.354 448.752 215.354C446.689 215.354 445.02 217.026 445.02 219.089C445.02 221.151 446.689 222.823 448.752 222.823Z" fill="#A1CF63"/>
<path d="M337.711 268.566L332.112 258.297L326.98 268.566L321.848 258.297L316.482 268.566" stroke="#E34C39" stroke-width="19" stroke-linecap="round" stroke-linejoin="round"/>
<path d="M357.073 259.698C364.418 259.698 370.37 253.743 370.37 246.395C370.37 239.048 364.418 233.092 357.073 233.092C349.729 233.092 343.776 239.048 343.776 246.395C343.776 253.743 349.729 259.698 357.073 259.698Z" fill="#E34C39"/>
<path d="M302.953 257.597C307.591 257.597 311.351 253.836 311.351 249.195C311.351 244.555 307.591 240.793 302.953 240.793C298.314 240.793 294.555 244.555 294.555 249.195C294.555 253.836 298.314 257.597 302.953 257.597Z" fill="#E34C39"/>
<path d="M312.051 286.771V290.038H322.782V286.771H312.051Z" fill="#A1CF63"/>
<path d="M315.783 283.267V293.77H319.049V283.267H315.783Z" fill="#A1CF63"/>
<path d="M333.512 286.771V290.038H344.243V286.771H333.512Z" fill="#A1CF63"/>
<path d="M337.244 283.267V293.77H340.51V283.267H337.244Z" fill="#A1CF63"/>
<path d="M383.667 134.836V138.103H394.398V134.836H383.667Z" fill="#A1CF63"/>
<path d="M387.399 131.333V141.835H390.665V131.333H387.399Z" fill="#A1CF63"/>
<path d="M260.495 222.589V225.857H271.226V222.589H260.495Z" fill="#FF4AA2"/>
<path d="M264.228 219.086V229.588H267.493V219.086H264.228Z" fill="#FF4AA2"/>
<path d="M278.691 449.441V452.708H289.422V449.441H278.691Z" fill="#F3AEB2"/>
<path d="M282.424 445.938V456.44H285.69V445.938H282.424Z" fill="#F3AEB2"/>
<path d="M431.723 337.416V340.683H442.454V337.416H431.723Z" fill="#A1CF63"/>
<path d="M435.455 333.912V344.415H438.721V333.912H435.455Z" fill="#A1CF63"/>
<path d="M213.373 139.27V142.538H224.104V139.27H213.373Z" fill="#92278E"/>
<path d="M217.105 135.767V146.269H220.371V135.767H217.105Z" fill="#92278E"/>
<path d="M190.978 401.83V405.098H201.709V401.83H190.978Z" fill="#92278E"/>
<path d="M194.71 398.327V408.829H197.976V398.327H194.71Z" fill="#92278E"/>
<path d="M258.162 322.243V332.745H261.428V322.243H258.162Z" fill="#FFD403"/>
<path d="M397.197 211.851V222.354H400.463V211.851H397.197Z" fill="#92278E"/>
<path d="M448.985 283.501V294.003H452.251V283.501H448.985Z" fill="#FFD403"/>
<path d="M281.957 181.044V191.546H285.223V181.044H281.957Z" fill="#FFD403"/>
<path d="M247.432 181.044V191.546H250.698V181.044H247.432Z" fill="#FFD403"/>
<path d="M416.326 334.379V344.881H419.592V334.379H416.326Z" fill="#00C2DF"/>
<path d="M244.166 374.757V378.025H254.897V374.757H244.166Z" fill="#A1CF63"/>
<path d="M247.898 371.254V381.756H251.164V371.254H247.898Z" fill="#A1CF63"/>
<path d="M226.437 371.721V382.223H229.702V371.721H226.437Z" fill="#F3AEB2"/>
<path d="M317.649 304.275C317.649 301.489 318.754 298.818 320.724 296.848C322.693 294.878 325.362 293.772 328.147 293.772C330.932 293.772 333.601 294.878 335.57 296.848C337.54 298.818 338.645 301.489 338.645 304.275" fill="#A1CF63"/>
<path d="M302.952 370.09C302.952 367.304 304.057 364.633 306.027 362.663C307.996 360.693 310.665 359.587 313.45 359.587C316.234 359.587 318.904 360.693 320.873 362.663C322.842 364.633 323.947 367.304 323.947 370.09" fill="#FF4AA2"/>
<path d="M284.882 375.887C290.505 375.887 295.063 371.328 295.063 365.702C295.063 360.076 290.505 355.516 284.882 355.516C279.259 355.516 274.701 360.076 274.701 365.702C274.701 371.328 279.259 375.887 284.882 375.887Z" fill="#FF4AA2"/>
<path d="M289.034 365.702L291.161 363.574C291.605 363.125 291.856 362.518 291.856 361.887C291.856 361.255 291.605 360.648 291.161 360.199L290.383 359.423C289.933 358.975 289.327 358.725 288.696 358.725C288.064 358.725 287.456 358.975 287.009 359.423L284.882 361.55L282.756 359.423C282.309 358.975 281.702 358.725 281.071 358.725C280.437 358.725 279.831 358.975 279.384 359.423L278.606 360.199C278.159 360.648 277.908 361.253 277.908 361.887C277.908 362.518 278.159 363.125 278.606 363.574L280.732 365.702L278.606 367.829C278.159 368.277 277.911 368.883 277.911 369.515C277.911 370.149 278.159 370.755 278.606 371.202L279.384 371.981C279.831 372.428 280.437 372.676 281.071 372.676C281.702 372.676 282.309 372.428 282.756 371.981L284.882 369.854L287.009 371.981C287.456 372.428 288.064 372.679 288.696 372.679C289.327 372.679 289.933 372.428 290.383 371.981L291.161 371.202C291.605 370.753 291.856 370.149 291.856 369.515C291.856 368.883 291.605 368.279 291.161 367.829L289.034 365.702Z" fill="white"/>
<path d="M340.579 375.887C346.203 375.887 350.76 371.328 350.76 365.702C350.76 360.076 346.203 355.516 340.579 355.516C334.956 355.516 330.398 360.076 330.398 365.702C330.398 371.328 334.956 375.887 340.579 375.887Z" fill="#FF4AA2"/>
<path d="M336.429 365.702L334.302 363.574C333.858 363.125 333.607 362.518 333.607 361.887C333.607 361.255 333.858 360.648 334.302 360.199L335.081 359.423C335.528 358.975 336.134 358.727 336.765 358.727C337.399 358.727 338.005 358.975 338.452 359.423L340.579 361.55L342.708 359.423C343.155 358.975 343.761 358.727 344.395 358.727C345.026 358.727 345.632 358.975 346.079 359.423L346.858 360.199C347.302 360.648 347.553 361.255 347.553 361.887C347.553 362.518 347.302 363.125 346.858 363.574L344.731 365.702L346.858 367.829C347.302 368.279 347.553 368.883 347.553 369.517C347.553 370.149 347.302 370.753 346.858 371.202L346.079 371.981C345.632 372.428 345.026 372.676 344.395 372.676C343.761 372.676 343.155 372.428 342.708 371.981L340.579 369.854L338.452 371.981C338.005 372.428 337.399 372.676 336.765 372.676C336.134 372.676 335.528 372.428 335.081 371.981L334.302 371.202C333.858 370.753 333.607 370.149 333.607 369.517C333.607 368.883 333.858 368.279 334.302 367.829L336.429 365.702Z" fill="white"/>
<path d="M218.505 283.737C218.505 280.951 219.611 278.28 221.58 276.31C223.548 274.34 226.218 273.234 229.002 273.234C231.787 273.234 234.457 274.34 236.425 276.31C238.394 278.28 239.5 280.951 239.5 283.737" fill="#E34C39"/>
<path d="M200.435 289.534C206.058 289.534 210.616 284.975 210.616 279.349C210.616 273.723 206.058 269.163 200.435 269.163C194.812 269.163 190.254 273.723 190.254 279.349C190.254 284.975 194.812 289.534 200.435 289.534Z" fill="#E34C39"/>
<path d="M204.587 279.349L206.713 277.221C207.158 276.772 207.408 276.165 207.408 275.534C207.408 274.902 207.158 274.295 206.713 273.846L205.935 273.07C205.487 272.622 204.88 272.372 204.248 272.372C203.616 272.372 203.009 272.622 202.561 273.07L200.435 275.197L198.308 273.07C197.86 272.622 197.254 272.372 196.622 272.372C195.99 272.372 195.384 272.622 194.936 273.07L194.158 273.846C193.712 274.295 193.462 274.9 193.462 275.534C193.462 276.165 193.712 276.772 194.158 277.221L196.285 279.349L194.158 281.476C193.712 281.923 193.462 282.53 193.462 283.162C193.462 283.795 193.712 284.402 194.158 284.849L194.936 285.628C195.384 286.075 195.99 286.323 196.622 286.323C197.254 286.323 197.86 286.075 198.308 285.628L200.435 283.501L202.561 285.628C203.009 286.075 203.616 286.326 204.248 286.326C204.88 286.326 205.487 286.075 205.935 285.628L206.713 284.849C207.158 284.4 207.408 283.795 207.408 283.162C207.408 282.53 207.158 281.926 206.713 281.476L204.587 279.349Z" fill="white"/>
<path d="M256.132 289.534C261.755 289.534 266.313 284.975 266.313 279.349C266.313 273.723 261.755 269.163 256.132 269.163C250.509 269.163 245.951 273.723 245.951 279.349C245.951 284.975 250.509 289.534 256.132 289.534Z" fill="#E34C39"/>
<path d="M251.982 279.349L249.855 277.221C249.411 276.772 249.16 276.165 249.16 275.534C249.16 274.902 249.411 274.295 249.855 273.846L250.634 273.07C251.08 272.622 251.687 272.374 252.321 272.374C252.952 272.374 253.558 272.622 254.005 273.07L256.132 275.197L258.261 273.07C258.707 272.622 259.314 272.374 259.945 272.374C260.579 272.374 261.185 272.622 261.632 273.07L262.41 273.846C262.855 274.295 263.105 274.902 263.105 275.534C263.105 276.165 262.855 276.772 262.41 277.221L260.284 279.349L262.41 281.476C262.855 281.926 263.105 282.53 263.105 283.164C263.105 283.795 262.855 284.4 262.41 284.849L261.632 285.628C261.185 286.075 260.579 286.323 259.945 286.323C259.314 286.323 258.707 286.075 258.261 285.628L256.132 283.501L254.005 285.628C253.558 286.075 252.952 286.323 252.321 286.323C251.687 286.323 251.08 286.075 250.634 285.628L249.855 284.849C249.411 284.4 249.16 283.795 249.16 283.164C249.16 282.53 249.411 281.926 249.855 281.476L251.982 279.349Z" fill="white"/>
<path d="M372.704 160.857V167.392C372.704 168.537 372.249 169.635 371.439 170.445C370.631 171.255 369.533 171.71 368.389 171.711C367.245 171.711 366.147 171.256 365.337 170.446C364.527 169.636 364.072 168.538 364.072 167.392V160.857" fill="#FFD403"/>
<path d="M346.109 160.975V167.51C346.109 168.655 345.655 169.753 344.844 170.562C344.036 171.372 342.939 171.827 341.794 171.827C340.65 171.827 339.553 171.372 338.742 170.563C337.934 169.753 337.478 168.655 337.478 167.51V160.975" fill="#FFD403"/>
<path d="M358.24 160.042L355.207 154.907L352.175 160.042" stroke="#FFD403" stroke-width="4.75" stroke-linecap="round" stroke-linejoin="round"/>
<path d="M222.588 299.722L213.957 304.39L222.588 308.591" stroke="#F3AEB2" stroke-width="9.5" stroke-linecap="round" stroke-linejoin="round"/>
<path d="M175.466 299.722L184.097 304.39L175.466 308.591" stroke="#F3AEB2" stroke-width="9.5" stroke-linecap="round" stroke-linejoin="round"/>
<path d="M209.759 305.557C209.759 308.404 208.628 311.136 206.616 313.148C204.603 315.163 201.874 316.293 199.028 316.293C196.182 316.293 193.452 315.163 191.44 313.148C189.427 311.136 188.297 308.404 188.297 305.557" fill="#F3AEB2"/>
<path d="M295.525 127.775H287.151C285.481 127.775 283.878 127.111 282.697 125.93C281.516 124.748 280.853 123.145 280.853 121.474C280.853 119.803 281.516 118.2 282.697 117.018C283.878 115.836 285.481 115.173 287.151 115.173H295.525" fill="#A1CF63"/>
<path d="M301.624 137.315C302.167 137.301 302.707 137.397 303.213 137.596C303.716 137.794 304.178 138.092 304.566 138.471C304.954 138.85 305.263 139.303 305.474 139.803C305.683 140.304 305.794 140.841 305.794 141.384C305.794 141.927 305.683 142.465 305.474 142.965C305.263 143.466 304.954 143.919 304.566 144.298C304.178 144.677 303.716 144.975 303.213 145.173C302.707 145.372 302.167 145.467 301.624 145.454" stroke="#A1CF63" stroke-width="11.83" stroke-linecap="round" stroke-linejoin="round"/>
<path d="M302.206 137.315C301.663 137.328 301.123 137.233 300.617 137.034C300.114 136.836 299.652 136.538 299.264 136.159C298.876 135.78 298.567 135.326 298.355 134.826C298.147 134.326 298.036 133.788 298.036 133.245C298.036 132.702 298.147 132.165 298.355 131.664C298.567 131.164 298.876 130.711 299.264 130.332C299.652 129.953 300.114 129.655 300.617 129.456C301.123 129.258 301.663 129.162 302.206 129.176" stroke="#A1CF63" stroke-width="11.83" stroke-linecap="round" stroke-linejoin="round"/>
<path d="M301.624 105.633C302.167 105.62 302.707 105.715 303.213 105.914C303.716 106.112 304.178 106.41 304.566 106.789C304.954 107.168 305.263 107.621 305.474 108.122C305.683 108.622 305.794 109.16 305.794 109.703C305.794 110.246 305.683 110.783 305.474 111.284C305.263 111.784 304.954 112.237 304.566 112.616C304.178 112.995 303.716 113.293 303.213 113.492C302.707 113.69 302.167 113.786 301.624 113.772" stroke="#A1CF63" stroke-width="11.83" stroke-linecap="round" stroke-linejoin="round"/>
<path d="M302.206 105.633C301.663 105.646 301.123 105.551 300.617 105.353C300.114 105.154 299.652 104.856 299.264 104.477C298.876 104.098 298.567 103.645 298.355 103.145C298.147 102.644 298.036 102.107 298.036 101.564C298.036 101.02 298.147 100.483 298.355 99.9828C298.567 99.4823 298.876 99.0293 299.264 98.65C299.652 98.2709 300.114 97.9732 300.617 97.7747C301.123 97.5762 301.663 97.4806 302.206 97.4941" stroke="#A1CF63" stroke-width="11.83" stroke-linecap="round" stroke-linejoin="round"/>
<path d="M292.604 294.809V302.717C292.604 305.336 294.729 307.461 297.346 307.461C299.964 307.461 302.088 305.336 302.088 302.717V294.809C302.088 292.188 299.964 290.065 297.346 290.065C294.729 290.065 292.604 292.188 292.604 294.809Z" fill="#F3AEB2"/>
<path d="M286.549 286.608C292.43 286.608 297.199 281.838 297.199 275.954C297.199 270.07 292.43 265.299 286.549 265.299C280.668 265.299 275.899 270.07 275.899 275.954C275.899 281.838 280.668 286.608 286.549 286.608Z" fill="#F3AEB2"/>
<path d="M283.244 282.567C285.473 282.567 287.283 280.759 287.283 278.526C287.283 276.295 285.473 274.485 283.244 274.485C281.011 274.485 279.204 276.295 279.204 278.526C279.204 280.759 281.011 282.567 283.244 282.567Z" fill="white"/>
<path d="M286.549 332.36C292.43 332.36 297.199 327.589 297.199 321.705C297.199 315.821 292.43 311.05 286.549 311.05C280.668 311.05 275.899 315.821 275.899 321.705C275.899 327.589 280.668 332.36 286.549 332.36Z" fill="#F3AEB2"/>
<path d="M283.244 323.174C285.473 323.174 287.283 321.366 287.283 319.133C287.283 316.902 285.473 315.091 283.244 315.091C281.011 315.091 279.204 316.902 279.204 319.133C279.204 321.366 281.011 323.174 283.244 323.174Z" fill="white"/>
<path d="M323.515 136.492C327.096 136.492 329.996 133.589 329.996 130.009C329.996 126.428 327.096 123.525 323.515 123.525C319.938 123.525 317.035 126.428 317.035 130.009C317.035 133.589 319.938 136.492 323.515 136.492Z" fill="#FF4AA2"/>
<path d="M360.074 136.492C363.652 136.492 366.554 133.589 366.554 130.009C366.554 126.428 363.652 123.525 360.074 123.525C356.496 123.525 353.594 126.428 353.594 130.009C353.594 133.589 356.496 136.492 360.074 136.492Z" fill="#FF4AA2"/>
<path d="M333.569 121.597C333.392 121.597 333.218 121.562 333.053 121.494C332.891 121.427 332.744 121.327 332.619 121.202C332.493 121.077 332.395 120.929 332.326 120.766C332.26 120.602 332.226 120.427 332.226 120.25C332.226 117.582 330.396 115.413 328.149 115.413C325.903 115.413 324.073 117.582 324.073 120.25C324.073 120.607 323.931 120.949 323.68 121.201C323.427 121.453 323.086 121.594 322.73 121.594C322.374 121.594 322.033 121.453 321.78 121.201C321.529 120.949 321.387 120.607 321.387 120.25C321.387 116.101 324.419 112.723 328.149 112.723C331.879 112.723 334.912 116.101 334.912 120.25C334.912 120.427 334.878 120.602 334.811 120.766C334.743 120.929 334.644 121.077 334.519 121.202C334.394 121.327 334.247 121.427 334.085 121.494C333.92 121.562 333.746 121.597 333.569 121.597Z" fill="#FF4AA2"/>
<path d="M350.019 121.597C350.375 121.597 350.719 121.455 350.972 121.202C351.222 120.95 351.365 120.608 351.365 120.25C351.365 117.582 353.192 115.413 355.438 115.413C357.685 115.413 359.515 117.582 359.515 120.25C359.515 120.607 359.657 120.949 359.908 121.201C360.161 121.453 360.502 121.594 360.858 121.594C361.214 121.594 361.555 121.453 361.808 121.201C362.059 120.949 362.201 120.607 362.201 120.25C362.201 116.101 359.168 112.723 355.438 112.723C351.708 112.723 348.676 116.101 348.676 120.25C348.676 120.427 348.71 120.602 348.776 120.766C348.845 120.929 348.943 121.077 349.069 121.202C349.194 121.327 349.341 121.427 349.503 121.494C349.668 121.562 349.842 121.597 350.019 121.597Z" fill="#FF4AA2"/>
<path d="M317.067 110.679C318.001 109.512 322.433 104.845 329.198 105.078C335.963 105.311 341.795 110.213 341.795 110.213" stroke="#FF4AA2" stroke-width="12.35" stroke-miterlimit="10" stroke-linecap="round"/>
<path d="M366.523 110.679C365.589 109.512 361.157 104.845 354.392 105.078C347.627 105.311 341.795 110.213 341.795 110.213V130.984H346.215" stroke="#FF4AA2" stroke-width="12.35" stroke-miterlimit="10" stroke-linecap="round"/>
<path d="M344.405 136.165C344.584 136.165 344.764 136.174 344.94 136.192C346.097 136.305 347.435 137.364 347.597 139.386V140.061C347.448 142.005 345.979 143.009 341.704 146.029C337.416 143.019 335.951 142.005 335.811 140.061V139.386C335.973 137.354 337.311 136.295 338.467 136.192C338.644 136.174 338.824 136.165 339.003 136.165C340.339 136.165 340.98 136.742 341.704 137.617C342.441 136.742 343.079 136.165 344.405 136.165Z" fill="#E34C39"/>
<path d="M275.927 413.288C279.504 413.288 282.407 410.387 282.407 406.805C282.407 403.226 279.504 400.322 275.927 400.322C272.349 400.322 269.446 403.226 269.446 406.805C269.446 410.387 272.349 413.288 275.927 413.288Z" fill="#92278E"/>
<path d="M326.482 413.288C330.06 413.288 332.962 410.387 332.962 406.805C332.962 403.226 330.06 400.322 326.482 400.322C322.904 400.322 320.002 403.226 320.002 406.805C320.002 410.387 322.904 413.288 326.482 413.288Z" fill="#92278E"/>
<path d="M309.428 389.52C309.605 389.52 309.779 389.554 309.944 389.62C310.106 389.689 310.256 389.787 310.378 389.913C310.504 390.038 310.604 390.185 310.671 390.348C310.739 390.512 310.774 390.687 310.774 390.863C310.774 393.534 312.601 395.703 314.848 395.703C317.094 395.703 318.924 393.534 318.924 390.863C318.924 390.507 319.066 390.166 319.317 389.913C319.57 389.662 319.911 389.52 320.267 389.52C320.623 389.52 320.964 389.662 321.217 389.913C321.468 390.166 321.61 390.507 321.61 390.863C321.61 395.015 318.578 398.393 314.848 398.393C311.118 398.393 308.085 395.015 308.085 390.863C308.085 390.687 308.119 390.512 308.188 390.35C308.254 390.185 308.353 390.038 308.478 389.913C308.603 389.787 308.75 389.689 308.915 389.623C309.077 389.554 309.251 389.52 309.428 389.52Z" fill="#92278E"/>
<path d="M292.978 389.52C292.622 389.52 292.281 389.662 292.028 389.913C291.777 390.166 291.635 390.507 291.635 390.863C291.635 393.534 289.805 395.703 287.559 395.703C285.312 395.703 283.482 393.534 283.482 390.863C283.482 390.507 283.34 390.166 283.089 389.913C282.836 389.662 282.495 389.52 282.139 389.52C281.783 389.52 281.442 389.662 281.189 389.913C280.938 390.166 280.796 390.507 280.796 390.863C280.796 395.015 283.829 398.393 287.559 398.393C291.289 398.393 294.321 395.015 294.321 390.863C294.321 390.507 294.179 390.166 293.928 389.913C293.675 389.662 293.334 389.52 292.978 389.52Z" fill="#92278E"/>
<path d="M276.477 387.476C277.41 386.309 281.842 381.641 288.607 381.874C295.372 382.108 301.204 387.009 301.204 387.009" stroke="#92278E" stroke-width="12.35" stroke-linecap="round" stroke-linejoin="round"/>
<path d="M325.932 387.476C324.999 386.309 320.566 381.641 313.801 381.874C307.036 382.108 301.204 387.009 301.204 387.009V407.78H305.624" stroke="#92278E" stroke-width="12.35" stroke-miterlimit="10" stroke-linecap="round"/>
<path d="M240.001 169.166C243.58 169.166 246.481 166.263 246.481 162.683C246.481 159.102 243.58 156.199 240.001 156.199C236.422 156.199 233.521 159.102 233.521 162.683C233.521 166.263 236.422 169.166 240.001 169.166Z" fill="#18BE93"/>
<path d="M290.556 169.166C294.137 169.166 297.037 166.263 297.037 162.683C297.037 159.102 294.137 156.199 290.556 156.199C286.979 156.199 284.076 159.102 284.076 162.683C284.076 166.263 286.979 169.166 290.556 169.166Z" fill="#18BE93"/>
<path d="M273.502 145.397C273.679 145.397 273.854 145.431 274.018 145.499C274.18 145.566 274.33 145.665 274.453 145.79C274.578 145.915 274.679 146.063 274.745 146.226C274.814 146.39 274.848 146.564 274.848 146.741C274.848 149.412 276.675 151.581 278.922 151.581C281.169 151.581 282.998 149.412 282.998 146.741C282.998 146.385 283.141 146.043 283.391 145.791C283.644 145.539 283.985 145.397 284.341 145.397C284.697 145.397 285.039 145.539 285.292 145.791C285.542 146.043 285.685 146.385 285.685 146.741C285.685 150.893 282.652 154.271 278.922 154.271C275.192 154.271 272.159 150.893 272.159 146.741C272.159 146.385 272.302 146.043 272.552 145.791C272.805 145.539 273.146 145.397 273.502 145.397Z" fill="#18BE93"/>
<path d="M257.052 145.397C256.696 145.397 256.355 145.539 256.102 145.791C255.851 146.043 255.709 146.385 255.709 146.741C255.709 149.412 253.88 151.581 251.633 151.581C249.386 151.581 247.557 149.412 247.557 146.741C247.557 146.385 247.414 146.043 247.164 145.791C246.911 145.539 246.569 145.397 246.213 145.397C245.857 145.397 245.515 145.539 245.263 145.791C245.012 146.043 244.87 146.385 244.87 146.741C244.87 150.893 247.903 154.271 251.633 154.271C255.363 154.271 258.395 150.893 258.395 146.741C258.395 146.385 258.253 146.043 258.003 145.791C257.75 145.539 257.408 145.397 257.052 145.397Z" fill="#18BE93"/>
<path d="M240.551 143.353C241.484 142.186 245.916 137.519 252.681 137.752C259.446 137.985 265.278 142.887 265.278 142.887" stroke="#18BE93" stroke-width="12.35" stroke-linecap="round" stroke-linejoin="round"/>
<path d="M290.004 143.353C289.071 142.186 284.639 137.519 277.873 137.752C271.108 137.985 265.276 142.887 265.276 142.887V163.658H269.709" stroke="#18BE93" stroke-width="12.35" stroke-miterlimit="10" stroke-linecap="round"/>
<path d="M144.798 209.52C144.798 203.977 148.727 199.484 153.594 199.484C158.461 199.484 162.387 203.977 162.387 209.52" stroke="#FFD403" stroke-width="19" stroke-miterlimit="10" stroke-linecap="round"/>
<path d="M215.742 209.52C215.742 203.977 219.671 199.484 224.538 199.484C229.405 199.484 233.332 203.977 233.332 209.52" stroke="#FFD403" stroke-width="19" stroke-miterlimit="10" stroke-linecap="round"/>
<path d="M151.33 141.137C151.33 135.595 155.259 131.102 160.126 131.102C164.993 131.102 168.919 135.595 168.919 141.137" stroke="#00C2DF" stroke-width="14.25" stroke-miterlimit="10" stroke-linecap="round"/>
<path d="M115.639 374.757C115.639 369.215 119.568 364.722 124.435 364.722C129.302 364.722 133.228 369.215 133.228 374.757" stroke="#92278E" stroke-width="13.3" stroke-miterlimit="10" stroke-linecap="round"/>
<path d="M194.237 329.959C195.879 329.959 197.35 329.601 196.42 328.67C195.796 328.085 195.05 327.643 194.237 327.38C193.425 327.645 192.68 328.085 192.056 328.67C191.157 329.569 192.596 329.959 194.237 329.959Z" fill="#A1CF63"/>
<path d="M219.855 331.094C219.689 331.062 219.518 331.07 219.354 331.112C219.19 331.153 219.037 331.232 218.907 331.34C214.824 334.779 209.738 332.357 208.041 330.728C207.818 330.529 207.526 330.424 207.227 330.436C206.928 330.448 206.645 330.574 206.437 330.79C206.23 331.006 206.115 331.296 206.115 331.593C206.116 331.893 206.232 332.18 206.44 332.396C208.604 334.477 215.116 337.556 220.395 333.109C220.512 333.011 220.608 332.893 220.678 332.758C220.748 332.622 220.79 332.475 220.803 332.323C220.816 332.173 220.799 332.021 220.753 331.876C220.707 331.731 220.633 331.596 220.535 331.48C220.361 331.276 220.12 331.139 219.855 331.094Z" fill="#A1CF63"/>
<path d="M168.632 331.094C168.798 331.062 168.969 331.07 169.133 331.112C169.297 331.153 169.449 331.232 169.58 331.34C173.663 334.779 178.749 332.357 180.446 330.728C180.669 330.529 180.961 330.424 181.26 330.436C181.559 330.448 181.842 330.574 182.049 330.79C182.257 331.006 182.372 331.296 182.372 331.593C182.371 331.893 182.255 332.18 182.047 332.396C179.883 334.477 173.371 337.556 168.092 333.109C167.975 333.011 167.879 332.893 167.81 332.758C167.74 332.622 167.697 332.475 167.684 332.323C167.671 332.173 167.688 332.021 167.734 331.876C167.78 331.731 167.854 331.596 167.952 331.48C168.126 331.276 168.367 331.139 168.632 331.094Z" fill="#A1CF63"/>
<path d="M160.333 392.581C163.088 392.581 165.322 390.345 165.322 387.589C165.322 384.832 163.088 382.597 160.333 382.597C157.577 382.597 155.343 384.832 155.343 387.589C155.343 390.345 157.577 392.581 160.333 392.581Z" fill="#18BE93"/>
<path d="M151.715 392.581C154.471 392.581 156.705 390.345 156.705 387.589C156.705 384.832 154.471 382.597 151.715 382.597C148.959 382.597 146.726 384.832 146.726 387.589C146.726 390.345 148.959 392.581 151.715 392.581Z" fill="#18BE93"/>
<path d="M160.332 389.586C161.435 389.586 162.329 388.692 162.329 387.589C162.329 386.486 161.435 385.591 160.332 385.591C159.23 385.591 158.336 386.486 158.336 387.589C158.336 388.692 159.23 389.586 160.332 389.586Z" fill="white"/>
<path d="M151.715 389.586C152.818 389.586 153.712 388.692 153.712 387.589C153.712 386.486 152.818 385.591 151.715 385.591C150.613 385.591 149.719 386.486 149.719 387.589C149.719 388.692 150.613 389.586 151.715 389.586Z" fill="white"/>
<path d="M182.276 166.129C182.02 166.129 181.767 166.079 181.53 165.981C181.294 165.883 181.08 165.74 180.899 165.559C180.718 165.378 180.574 165.163 180.477 164.927C180.379 164.691 180.328 164.437 180.328 164.181C180.328 160.314 177.679 157.17 174.423 157.17C171.167 157.17 168.529 160.314 168.529 164.181C168.529 164.698 168.324 165.194 167.959 165.559C167.594 165.924 167.098 166.129 166.582 166.129C166.066 166.129 165.57 165.924 165.205 165.559C164.84 165.194 164.635 164.698 164.635 164.181C164.635 158.167 169.03 153.274 174.435 153.274C179.84 153.274 184.235 158.167 184.235 164.181C184.235 164.438 184.184 164.693 184.086 164.93C183.987 165.167 183.843 165.382 183.661 165.563C183.478 165.744 183.262 165.888 183.025 165.985C182.787 166.082 182.533 166.131 182.276 166.129Z" fill="#E34C39"/>
<path d="M134.468 166.129C134.212 166.129 133.959 166.079 133.723 165.981C133.487 165.883 133.272 165.74 133.091 165.559C132.91 165.378 132.767 165.163 132.669 164.927C132.571 164.691 132.521 164.437 132.521 164.181C132.521 160.314 129.871 157.17 126.627 157.17C123.384 157.17 120.722 160.314 120.722 164.181C120.722 164.698 120.516 165.194 120.151 165.559C119.786 165.924 119.291 166.129 118.774 166.129C118.258 166.129 117.763 165.924 117.398 165.559C117.032 165.194 116.827 164.698 116.827 164.181C116.827 158.167 121.223 153.274 126.627 153.274C132.032 153.274 136.428 158.167 136.428 164.181C136.428 164.438 136.377 164.693 136.278 164.93C136.18 165.167 136.035 165.382 135.853 165.563C135.671 165.744 135.455 165.888 135.217 165.985C134.98 166.082 134.725 166.131 134.468 166.129Z" fill="#E34C39"/>
<path d="M182.573 179.585C183.787 179.585 184.77 178.6 184.77 177.386C184.77 176.172 183.787 175.187 182.573 175.187C181.359 175.187 180.375 176.172 180.375 177.386C180.375 178.6 181.359 179.585 182.573 179.585Z" fill="#E34C39"/>
<path d="M177.077 182.516C178.29 182.516 179.274 181.531 179.274 180.317C179.274 179.103 178.29 178.118 177.077 178.118C175.863 178.118 174.879 179.103 174.879 180.317C174.879 181.531 175.863 182.516 177.077 182.516Z" fill="#E34C39"/>
<path d="M177.077 176.47C178.29 176.47 179.274 175.485 179.274 174.271C179.274 173.057 178.29 172.072 177.077 172.072C175.863 172.072 174.879 173.057 174.879 174.271C174.879 175.485 175.863 176.47 177.077 176.47Z" fill="#E34C39"/>
<path d="M118.831 179.585C120.044 179.585 121.028 178.6 121.028 177.386C121.028 176.172 120.044 175.187 118.831 175.187C117.617 175.187 116.633 176.172 116.633 177.386C116.633 178.6 117.617 179.585 118.831 179.585Z" fill="#E34C39"/>
<path d="M124.326 182.516C125.539 182.516 126.523 181.531 126.523 180.317C126.523 179.103 125.539 178.118 124.326 178.118C123.112 178.118 122.128 179.103 122.128 180.317C122.128 181.531 123.112 182.516 124.326 182.516Z" fill="#E34C39"/>
<path d="M124.326 176.47C125.539 176.47 126.523 175.485 126.523 174.271C126.523 173.057 125.539 172.072 124.326 172.072C123.112 172.072 122.128 173.057 122.128 174.271C122.128 175.485 123.112 176.47 124.326 176.47Z" fill="#E34C39"/>
<path d="M153.408 177.551L157.474 173.323C157.752 173.035 157.938 172.672 158.01 172.279C158.083 171.886 158.037 171.48 157.88 171.113C157.722 170.746 157.46 170.433 157.126 170.214C156.791 169.996 156.4 169.88 156.001 169.883H145.012C144.612 169.88 144.221 169.996 143.887 170.214C143.552 170.433 143.29 170.746 143.133 171.113C142.975 171.48 142.93 171.886 143.002 172.279C143.074 172.672 143.261 173.035 143.538 173.323L147.605 177.551C147.979 177.943 148.43 178.255 148.928 178.469C149.427 178.682 149.964 178.792 150.506 178.792C151.049 178.792 151.585 178.682 152.084 178.469C152.583 178.255 153.033 177.943 153.408 177.551Z" fill="#E34C39"/>
<path d="M151.618 173.905H149.42V183.985H151.618V173.905Z" fill="#E34C39"/>
<path d="M161.693 183.707C161.662 185.17 161.06 186.562 160.016 187.585C158.971 188.608 157.567 189.181 156.105 189.181C154.643 189.181 153.24 188.608 152.195 187.585C151.15 186.562 150.548 185.17 150.518 183.707" stroke="#E34C39" stroke-width="9.5" stroke-miterlimit="10" stroke-linecap="round"/>
<path d="M139.345 183.707C139.345 185.19 139.933 186.611 140.981 187.659C142.028 188.707 143.449 189.296 144.931 189.296C146.413 189.296 147.834 188.707 148.881 187.659C149.929 186.611 150.518 185.19 150.518 183.707" stroke="#E34C39" stroke-width="9.5" stroke-miterlimit="10" stroke-linecap="round"/>
<path d="M124.896 385.601C126.11 385.601 127.094 384.616 127.094 383.402C127.094 382.189 126.11 381.204 124.896 381.204C123.682 381.204 122.698 382.189 122.698 383.402C122.698 384.616 123.682 385.601 124.896 385.601Z" fill="#92278E"/>
<path d="M110.01 300.744C112.052 300.744 114.011 301.555 115.455 303C116.899 304.447 117.71 306.405 117.71 308.449C117.71 310.082 117.061 311.652 115.906 312.807C114.751 313.964 113.183 314.612 111.549 314.612C110.902 314.612 110.261 314.485 109.663 314.237C109.065 313.991 108.521 313.627 108.064 313.168C107.606 312.711 107.243 312.168 106.996 311.569C106.748 310.972 106.621 310.33 106.621 309.682C106.621 308.635 107.036 307.633 107.775 306.893C108.514 306.154 109.517 305.736 110.562 305.736C111.399 305.736 112.202 306.068 112.793 306.66C113.385 307.252 113.718 308.056 113.718 308.893C113.718 309.225 113.652 309.554 113.525 309.859C113.399 310.166 113.213 310.443 112.978 310.679C112.744 310.913 112.466 311.099 112.159 311.227C111.853 311.352 111.525 311.419 111.193 311.419" stroke="#A1CF63" stroke-width="8.55" stroke-linecap="round" stroke-linejoin="round"/>
<path d="M258.501 180.074C258.501 178.03 259.311 176.07 260.755 174.625C262.202 173.18 264.159 172.368 266.202 172.367C267.837 172.367 269.404 173.017 270.56 174.173C271.717 175.329 272.365 176.898 272.365 178.533C272.365 179.841 271.845 181.095 270.921 182.02C269.996 182.945 268.741 183.464 267.434 183.464C266.916 183.465 266.403 183.363 265.922 183.165C265.443 182.967 265.008 182.677 264.64 182.31C264.274 181.943 263.982 181.508 263.783 181.028C263.584 180.549 263.483 180.035 263.483 179.516C263.483 178.679 263.817 177.876 264.409 177.285C265.001 176.692 265.801 176.36 266.639 176.359C267.309 176.359 267.95 176.625 268.424 177.099C268.898 177.572 269.163 178.215 269.163 178.885" stroke="#18BE93" stroke-width="8.55" stroke-linecap="round" stroke-linejoin="round"/>
<path d="M110.01 330.384C112.052 330.384 114.011 331.195 115.455 332.642C116.899 334.087 117.71 336.045 117.71 338.089C117.71 339.722 117.061 341.292 115.906 342.447C114.751 343.604 113.183 344.252 111.549 344.252C110.902 344.252 110.261 344.125 109.663 343.879C109.065 343.631 108.521 343.267 108.064 342.808C107.606 342.351 107.243 341.808 106.996 341.209C106.748 340.612 106.621 339.97 106.621 339.322C106.621 338.275 107.036 337.273 107.775 336.534C108.514 335.794 109.517 335.376 110.562 335.376C111.399 335.376 112.202 335.708 112.793 336.3C113.385 336.892 113.718 337.696 113.718 338.533C113.718 338.865 113.652 339.194 113.525 339.499C113.399 339.806 113.213 340.083 112.978 340.319C112.744 340.553 112.466 340.739 112.159 340.867C111.853 340.992 111.525 341.059 111.193 341.059" stroke="#A1CF63" stroke-width="8.55" stroke-linecap="round" stroke-linejoin="round"/>
<path d="M87.4707 308.24H90.5036V297.504H87.4707V308.24Z" fill="#18BE93"/>
<path d="M98.2035 308.24V305.206H87.4727V308.24H98.2035Z" fill="#18BE93"/>
<path d="M133.196 354.917V351.883H122.465V354.917H133.196Z" fill="#FF4AA2"/>
<path d="M133.196 344.184H130.163V354.919H133.196V344.184Z" fill="#FF4AA2"/>
<path d="M149.756 286.535H152.789V275.799H149.756V286.535Z" fill="#00C2DF"/>
<path d="M160.489 286.535V283.501H149.759V286.535H160.489Z" fill="#00C2DF"/>
<path d="M175.187 211.387C175.187 207.689 176.655 204.142 179.269 201.527C181.883 198.912 185.428 197.443 189.124 197.443C192.821 197.443 196.366 198.912 198.98 201.527C201.594 204.142 203.062 207.689 203.062 211.387" fill="#FFD403"/>
<path d="M134.944 267.748C138.036 267.748 140.543 265.24 140.543 262.147C140.543 259.054 138.036 256.546 134.944 256.546C131.852 256.546 129.346 259.054 129.346 262.147C129.346 265.24 131.852 267.748 134.944 267.748Z" fill="#92278E"/>
<path d="M178.686 267.633C181.778 267.633 184.284 265.125 184.284 262.032C184.284 258.939 181.778 256.43 178.686 256.43C175.594 256.43 173.087 258.939 173.087 262.032C173.087 265.125 175.594 267.633 178.686 267.633Z" fill="#92278E"/>
<path d="M146.492 256.197C146.492 253.288 147.647 250.497 149.703 248.441C151.76 246.382 154.548 245.228 157.456 245.228C160.364 245.228 163.153 246.382 165.209 248.441C167.265 250.497 168.421 253.288 168.421 256.197" fill="#92278E"/>
<path d="M168.07 234.259C169.616 234.259 170.869 233.005 170.869 231.458C170.869 229.911 169.616 228.657 168.07 228.657C166.524 228.657 165.271 229.911 165.271 231.458C165.271 233.005 166.524 234.259 168.07 234.259Z" fill="#00C2DF"/>
<path d="M142.293 144.171C143.84 144.171 145.093 142.918 145.093 141.371C145.093 139.824 143.84 138.57 142.293 138.57C140.747 138.57 139.494 139.824 139.494 141.371C139.494 142.918 140.747 144.171 142.293 144.171Z" fill="#00C2DF"/>
<path d="M177.986 144.171C179.532 144.171 180.785 142.918 180.785 141.371C180.785 139.824 179.532 138.57 177.986 138.57C176.44 138.57 175.187 139.824 175.187 141.371C175.187 142.918 176.44 144.171 177.986 144.171Z" fill="#00C2DF"/>
<path d="M191.631 234.259C193.177 234.259 194.431 233.005 194.431 231.458C194.431 229.911 193.177 228.657 191.631 228.657C190.085 228.657 188.832 229.911 188.832 231.458C188.832 233.005 190.085 234.259 191.631 234.259Z" fill="#00C2DF"/>
<path d="M128.997 330.414C130.543 330.414 131.796 329.161 131.796 327.613C131.796 326.066 130.543 324.813 128.997 324.813C127.451 324.813 126.197 326.066 126.197 327.613C126.197 329.161 127.451 330.414 128.997 330.414Z" fill="#FF4AA2"/>
<path d="M139.028 398.329C140.574 398.329 141.827 397.076 141.827 395.529C141.827 393.981 140.574 392.728 139.028 392.728C137.482 392.728 136.229 393.981 136.229 395.529C136.229 397.076 137.482 398.329 139.028 398.329Z" fill="#18BE93"/>
<path d="M173.32 398.329C174.866 398.329 176.119 397.076 176.119 395.529C176.119 393.981 174.866 392.728 173.32 392.728C171.774 392.728 170.521 393.981 170.521 395.529C170.521 397.076 171.774 398.329 173.32 398.329Z" fill="#18BE93"/>
<path d="M163.055 427.503C164.601 427.503 165.855 426.25 165.855 424.702C165.855 423.154 164.601 421.901 163.055 421.901C161.509 421.901 160.256 423.154 160.256 424.702C160.256 426.25 161.509 427.503 163.055 427.503Z" fill="#FF4AA2"/>
<path d="M174.951 229.355H184.751C186.618 229.355 188.132 227.841 188.132 225.972V225.97C188.132 224.101 186.618 222.587 184.751 222.587H174.951C173.083 222.587 171.569 224.101 171.569 225.97V225.972C171.569 227.841 173.083 229.355 174.951 229.355Z" fill="#00C2DF"/>
<path d="M284.6 239.71C287.136 239.71 289.192 237.653 289.192 235.116C289.192 232.579 287.136 230.522 284.6 230.522C282.063 230.522 280.008 232.579 280.008 235.116C280.008 237.653 282.063 239.71 284.6 239.71Z" fill="#00C2DF"/>
<path d="M225.813 451.392C228.349 451.392 230.405 449.335 230.405 446.798C230.405 444.26 228.349 442.204 225.813 442.204C223.277 442.204 221.221 444.26 221.221 446.798C221.221 449.335 223.277 451.392 225.813 451.392Z" fill="#00C2DF"/>
<path d="M245.958 239.71C248.495 239.71 250.55 237.653 250.55 235.116C250.55 232.579 248.495 230.522 245.958 230.522C243.422 230.522 241.366 232.579 241.366 235.116C241.366 237.653 243.422 239.71 245.958 239.71Z" fill="#00C2DF"/>
<path d="M273.314 238.56H257.244C254.18 238.56 251.697 241.045 251.697 244.11C251.697 247.176 254.18 249.66 257.244 249.66H273.314C276.378 249.66 278.861 247.176 278.861 244.11C278.861 241.045 276.378 238.56 273.314 238.56Z" fill="#00C2DF"/>
<path d="M92.6048 279.956C95.6711 279.956 98.1569 277.469 98.1569 274.401C98.1569 271.333 95.6711 268.846 92.6048 268.846C89.5385 268.846 87.0527 271.333 87.0527 274.401C87.0527 277.469 89.5385 279.956 92.6048 279.956Z" fill="#F3AEB2"/>
<path d="M92.6048 277.668C94.4087 277.668 95.8707 276.207 95.8707 274.401C95.8707 272.595 94.4087 271.134 92.6048 271.134C90.8012 271.134 89.3389 272.595 89.3389 274.401C89.3389 276.207 90.8012 277.668 92.6048 277.668Z" fill="white"/>
<path d="M118.732 279.956C121.798 279.956 124.284 277.469 124.284 274.401C124.284 271.333 121.798 268.846 118.732 268.846C115.665 268.846 113.18 271.333 113.18 274.401C113.18 277.469 115.665 279.956 118.732 279.956Z" fill="#F3AEB2"/>
<path d="M118.733 277.668C120.536 277.668 121.999 276.207 121.999 274.401C121.999 272.595 120.536 271.134 118.733 271.134C116.929 271.134 115.467 272.595 115.467 274.401C115.467 276.207 116.929 277.668 118.733 277.668Z" fill="white"/>
<path d="M99.8367 280.818C100.455 280.818 101.048 281.064 101.485 281.503C101.923 281.941 102.169 282.533 102.17 283.152C102.17 284.142 102.563 285.093 103.263 285.793C103.963 286.493 104.912 286.886 105.902 286.886C106.892 286.886 107.841 286.493 108.541 285.793C109.241 285.093 109.634 284.142 109.634 283.152C109.634 282.533 109.88 281.938 110.318 281.501C110.755 281.064 111.348 280.818 111.967 280.818C112.586 280.818 113.179 281.064 113.617 281.501C114.054 281.938 114.3 282.533 114.3 283.152C114.3 285.38 113.415 287.517 111.84 289.092C110.265 290.669 108.129 291.554 105.902 291.554C103.675 291.554 101.539 290.669 99.9637 289.092C98.3887 287.517 97.5039 285.38 97.5039 283.152C97.5039 282.533 97.7497 281.938 98.1873 281.501C98.6246 281.064 99.2181 280.818 99.8367 280.818Z" fill="#F3AEB2"/>
<path d="M101.469 235.892C105.979 235.892 109.634 232.235 109.634 227.724C109.634 223.213 105.979 219.555 101.469 219.555C96.9601 219.555 93.3047 223.213 93.3047 227.724C93.3047 232.235 96.9601 235.892 101.469 235.892Z" fill="#18BE93"/>
<path d="M137.861 235.892C142.37 235.892 146.026 232.235 146.026 227.724C146.026 223.213 142.37 219.555 137.861 219.555C133.352 219.555 129.696 223.213 129.696 227.724C129.696 232.235 133.352 235.892 137.861 235.892Z" fill="#18BE93"/>
<path d="M111.096 224.825C113.549 222.85 116.622 221.81 119.769 221.889C122.917 221.968 125.934 223.162 128.285 225.257" stroke="#18BE93" stroke-width="9.5" stroke-miterlimit="10" stroke-linecap="round"/>
<path d="M199.914 152.34C197.191 152.34 194.581 151.258 192.656 149.332C190.731 147.406 189.649 144.795 189.649 142.071C189.649 139.348 190.731 136.736 192.656 134.81C194.581 132.884 197.191 131.802 199.914 131.802" fill="#A1CF63"/>
<path d="M199.914 120.833C197.191 120.833 194.581 119.751 192.656 117.825C190.731 115.899 189.649 113.287 189.649 110.564C189.649 107.84 190.731 105.228 192.656 103.303C194.581 101.377 197.191 100.295 199.914 100.295" fill="#A1CF63"/>
<path d="M199.914 122.467L205.279 126.201L199.681 129.935" stroke="#A1CF63" stroke-width="9.5" stroke-linecap="round" stroke-linejoin="round"/>
<path d="M151.158 353.519C149.426 353.519 147.764 352.831 146.539 351.605C145.314 350.379 144.626 348.716 144.626 346.984C144.626 345.252 145.314 343.589 146.539 342.363C147.764 341.137 149.426 340.449 151.158 340.449" stroke="#E34C39" stroke-width="7.19" stroke-linecap="round" stroke-linejoin="round"/>
<path d="M156.057 348.151C158.655 348.151 161.147 349.183 162.985 351.023C164.822 352.861 165.854 355.354 165.854 357.953C165.854 360.553 164.822 363.046 162.985 364.884C161.147 366.724 158.655 367.756 156.057 367.756" stroke="#E34C39" stroke-width="7.19" stroke-linecap="round" stroke-linejoin="round"/>
<path d="M151.158 375.224C149.426 375.224 147.764 374.536 146.539 373.31C145.314 372.084 144.626 370.421 144.626 368.689C144.626 366.957 145.314 365.294 146.539 364.068C147.764 362.842 149.426 362.154 151.158 362.154" stroke="#E34C39" stroke-width="7.19" stroke-linecap="round" stroke-linejoin="round"/>
<path d="M140.017 308.942C140.017 307.37 139.47 305.847 138.47 304.636C137.47 303.422 136.079 302.594 134.536 302.297V315.588C136.079 315.288 137.469 314.462 138.469 313.249C139.469 312.038 140.017 310.515 140.017 308.942Z" fill="#FFD403"/>
<path d="M126.487 308.942C126.488 310.515 127.035 312.038 128.036 313.251C129.036 314.462 130.428 315.29 131.971 315.588V302.297C130.427 302.594 129.036 303.422 128.035 304.633C127.035 305.847 126.487 307.37 126.487 308.942Z" fill="#FFD403"/>
<path d="M163.404 308.942C163.404 307.37 162.857 305.847 161.857 304.636C160.857 303.422 159.466 302.594 157.923 302.297V315.588C159.465 315.288 160.856 314.462 161.856 313.249C162.856 312.038 163.403 310.515 163.404 308.942Z" fill="#FFD403"/>
<path d="M149.874 308.942C149.875 310.515 150.422 312.038 151.423 313.251C152.423 314.462 153.814 315.29 155.357 315.588V302.297C153.814 302.594 152.422 303.422 151.422 304.633C150.421 305.847 149.874 307.37 149.874 308.942Z" fill="#FFD403"/>
<path d="M153.719 300.307C149.52 298.673 143.921 296.106 136.689 300.307" stroke="#FFD403" stroke-width="7.19" stroke-linecap="round" stroke-linejoin="round"/>
<path d="M275.87 88.0039C275.873 89.8059 276.499 91.5514 277.646 92.9409C278.792 94.3304 280.388 95.2775 282.156 95.6197V80.3759C280.386 80.7183 278.79 81.6671 277.643 83.0593C276.496 84.4513 275.868 86.1997 275.87 88.0039Z" fill="#FFD403"/>
<path d="M291.387 88.0039C291.384 86.2017 290.758 84.4564 289.611 83.0669C288.462 81.6772 286.869 80.7303 285.101 80.3881V95.6319C286.871 95.2892 288.467 94.3405 289.614 92.9485C290.761 91.5563 291.389 89.8081 291.387 88.0039Z" fill="#FFD403"/>
<path d="M249.048 88.0039C249.05 89.8061 249.679 91.5521 250.826 92.9416C251.972 94.3311 253.569 95.2779 255.337 95.6197V80.3759C253.566 80.7178 251.97 81.6664 250.821 83.0586C249.674 84.4505 249.045 86.1992 249.048 88.0039Z" fill="#FFD403"/>
<path d="M264.567 88.0039C264.565 86.2014 263.936 84.4557 262.789 83.0662C261.642 81.6764 260.046 80.7296 258.278 80.3881V95.6319C260.049 95.2897 261.645 94.3412 262.794 92.9492C263.941 91.557 264.57 89.8083 264.567 88.0039Z" fill="#FFD403"/>
<path d="M260.151 97.9069C264.967 99.7789 271.388 102.724 279.683 97.9069" stroke="#FFD403" stroke-width="8.25" stroke-linecap="round" stroke-linejoin="round"/>
<path d="M189.65 361.221C192.742 361.221 195.248 358.713 195.248 355.62C195.248 352.527 192.742 350.018 189.65 350.018C186.557 350.018 184.051 352.527 184.051 355.62C184.051 358.713 186.557 361.221 189.65 361.221Z" fill="#00C2DF"/>
<path d="M216.71 361.221C219.802 361.221 222.309 358.713 222.309 355.62C222.309 352.527 219.802 350.018 216.71 350.018C213.618 350.018 211.111 352.527 211.111 355.62C211.111 358.713 213.618 361.221 216.71 361.221Z" fill="#00C2DF"/>
<path d="M197.814 352.819C197.814 351.333 198.404 349.908 199.454 348.859C200.504 347.807 201.928 347.218 203.413 347.218C204.898 347.218 206.322 347.807 207.372 348.859C208.422 349.908 209.012 351.333 209.012 352.819" stroke="#00C2DF" stroke-width="7.19" stroke-linecap="round" stroke-linejoin="round"/>
<path d="M204.275 184.781C207.367 184.781 209.873 182.273 209.873 179.179C209.873 176.086 207.367 173.578 204.275 173.578C201.182 173.578 198.676 176.086 198.676 179.179C198.676 182.273 201.182 184.781 204.275 184.781Z" fill="#FF4AA2"/>
<path d="M231.335 184.781C234.427 184.781 236.934 182.273 236.934 179.179C236.934 176.086 234.427 173.578 231.335 173.578C228.243 173.578 225.736 176.086 225.736 179.179C225.736 182.273 228.243 184.781 231.335 184.781Z" fill="#FF4AA2"/>
<path d="M212.439 176.379C212.439 174.893 213.029 173.469 214.079 172.418C215.129 171.368 216.553 170.777 218.038 170.777C219.523 170.777 220.947 171.368 221.997 172.418C223.047 173.469 223.637 174.893 223.637 176.379" stroke="#FF4AA2" stroke-width="7.19" stroke-linecap="round" stroke-linejoin="round"/>
<path d="M114.067 252.696C117.03 252.696 119.432 250.294 119.432 247.328C119.432 244.364 117.03 241.96 114.067 241.96C111.103 241.96 108.701 244.364 108.701 247.328C108.701 250.294 111.103 252.696 114.067 252.696Z" fill="#E34C39"/>
<path d="M96.337 328.08C98.3984 328.08 100.069 326.407 100.069 324.346C100.069 322.285 98.3984 320.612 96.337 320.612C94.2755 320.612 92.6045 322.285 92.6045 324.346C92.6045 326.407 94.2755 328.08 96.337 328.08Z" fill="#A1CF63"/>
<path d="M233.27 254.097V250.829H222.539V254.097H233.27Z" fill="#A1CF63"/>
<path d="M229.541 257.595V247.092H226.274V257.595H229.541Z" fill="#A1CF63"/>
<path d="M211.809 254.097V250.829H201.078V254.097H211.809Z" fill="#A1CF63"/>
<path d="M208.078 257.595V247.092H204.812V257.595H208.078Z" fill="#A1CF63"/>
<path d="M161.42 408.598V405.331H150.689V408.598H161.42Z" fill="#A1CF63"/>
<path d="M157.69 412.097V401.594H154.424V412.097H157.69Z" fill="#A1CF63"/>
<path d="M113.365 206.019V202.751H102.634V206.019H113.365Z" fill="#A1CF63"/>
<path d="M109.634 209.517V199.015H106.368V209.517H109.634Z" fill="#A1CF63"/>
<path d="M147.892 331.578V321.076H144.626V331.578H147.892Z" fill="#92278E"/>
<path d="M96.1038 259.929V249.426H92.8379V259.929H96.1038Z" fill="#FFD403"/>
<path d="M128.763 209.05V198.548H125.497V209.05H128.763Z" fill="#00C2DF"/>
<path d="M227.674 236.593C227.674 239.378 226.568 242.049 224.599 244.019C222.63 245.989 219.96 247.095 217.176 247.095C214.392 247.095 211.722 245.989 209.753 244.019C207.785 242.049 206.679 239.378 206.679 236.593" fill="#A1CF63"/>
<path d="M172.382 382.575V376.052C172.382 374.907 172.836 373.809 173.645 373.001C174.455 372.19 175.552 371.736 176.696 371.736C177.841 371.736 178.938 372.19 179.748 373.001C180.557 373.809 181.013 374.907 181.013 376.052V382.587" fill="#FFD403"/>
<path d="M198.98 382.459V375.924C198.98 374.779 199.435 373.681 200.244 372.871C201.053 372.062 202.15 371.605 203.295 371.605C204.44 371.605 205.538 372.06 206.347 372.871C207.157 373.681 207.612 374.779 207.612 375.924V382.459" fill="#FFD403"/>
<path d="M186.85 383.393L189.882 388.527L192.915 383.393" stroke="#FFD403" stroke-width="4.75" stroke-linecap="round" stroke-linejoin="round"/>
<path d="M253.332 349.026L259.004 352.431V359.238" stroke="#18BE93" stroke-width="18.48" stroke-linecap="round" stroke-linejoin="round"/>
<path d="M264.677 349.026L259.005 352.431V359.238" stroke="#18BE93" stroke-width="18.48" stroke-linecap="round" stroke-linejoin="round"/>
<path d="M284.769 341.938C284.786 342.882 284.617 343.818 284.268 344.692C283.919 345.569 283.401 346.365 282.741 347.038C282.08 347.711 281.292 348.245 280.425 348.611C279.556 348.974 278.623 349.163 277.682 349.163C276.739 349.163 275.806 348.974 274.937 348.611C274.07 348.245 273.282 347.711 272.621 347.038C271.961 346.365 271.443 345.569 271.094 344.692C270.745 343.818 270.576 342.882 270.593 341.938" fill="#18BE93"/>
<path d="M240.114 349.031C244.029 349.031 247.203 345.854 247.203 341.938C247.203 338.022 244.029 334.846 240.114 334.846C236.198 334.846 233.024 338.022 233.024 341.938C233.024 345.854 236.198 349.031 240.114 349.031Z" fill="#18BE93"/>
<path d="M256.135 314.062C259.872 314.062 262.902 311.03 262.902 307.291C262.902 303.552 259.872 300.521 256.135 300.521C252.397 300.521 249.367 303.552 249.367 307.291C249.367 311.03 252.397 314.062 256.135 314.062Z" fill="#FF4AA2"/>
<path d="M258.735 309.426C259.857 309.426 260.766 308.517 260.766 307.395C260.766 306.272 259.857 305.363 258.735 305.363C257.613 305.363 256.704 306.272 256.704 307.395C256.704 308.517 257.613 309.426 258.735 309.426Z" fill="white"/>
<path d="M253.794 309.426C254.917 309.426 255.825 308.517 255.825 307.395C255.825 306.272 254.917 305.363 253.794 305.363C252.672 305.363 251.764 306.272 251.764 307.395C251.764 308.517 252.672 309.426 253.794 309.426Z" fill="white"/>
<path d="M270.409 307.763C273.439 307.763 275.894 305.306 275.894 302.275C275.894 299.243 273.439 296.787 270.409 296.787C267.378 296.787 264.923 299.243 264.923 302.275C264.923 305.306 267.378 307.763 270.409 307.763Z" fill="#FF4AA2"/>
<path d="M241.34 307.763C244.369 307.763 246.825 305.306 246.825 302.275C246.825 299.243 244.369 296.787 241.34 296.787C238.31 296.787 235.854 299.243 235.854 302.275C235.854 305.306 238.31 307.763 241.34 307.763Z" fill="#FF4AA2"/>
<path d="M283.099 209.053C285.948 209.053 288.256 206.743 288.256 203.894C288.256 201.045 285.948 198.735 283.099 198.735C280.251 198.735 277.942 201.045 277.942 203.894C277.942 206.743 280.251 209.053 283.099 209.053Z" fill="#F3AEB2"/>
<path d="M248.799 209.053C251.648 209.053 253.956 206.743 253.956 203.894C253.956 201.045 251.648 198.735 248.799 198.735C245.951 198.735 243.643 201.045 243.643 203.894C243.643 206.743 245.951 209.053 248.799 209.053Z" fill="#F3AEB2"/>
<path d="M261.802 201.388L266.286 205.977L270.77 201.388" stroke="#F3AEB2" stroke-width="7.47" stroke-linecap="round" stroke-linejoin="round"/>
<path d="M261.802 208.304H270.77" stroke="#F3AEB2" stroke-width="7.47" stroke-linecap="round" stroke-linejoin="round"/>
<path d="M262.786 120.167C266.416 120.167 269.36 117.223 269.36 113.59C269.36 109.958 266.416 107.014 262.786 107.014C259.157 107.014 256.213 109.958 256.213 113.59C256.213 117.223 259.157 120.167 262.786 120.167Z" fill="#00C2DF"/>
<path d="M219.058 120.167C222.688 120.167 225.632 117.223 225.632 113.59C225.632 109.958 222.688 107.014 219.058 107.014C215.427 107.014 212.484 109.958 212.484 113.59C212.484 117.223 215.427 120.167 219.058 120.167Z" fill="#00C2DF"/>
<path d="M251.792 117.772V122.4C251.792 123.755 251.255 125.055 250.297 126.013C249.339 126.972 248.04 127.51 246.685 127.51C245.33 127.51 244.031 126.972 243.073 126.013C242.115 125.055 241.577 123.755 241.577 122.4V117.772" stroke="#00C2DF" stroke-width="13.74" stroke-linecap="round" stroke-linejoin="round"/>
<path d="M241.578 117.772V122.4C241.578 123.755 241.04 125.055 240.082 126.013C239.124 126.972 237.825 127.51 236.47 127.51C235.115 127.51 233.816 126.972 232.858 126.013C231.9 125.055 231.362 123.755 231.362 122.4V117.772" stroke="#00C2DF" stroke-width="13.74" stroke-linecap="round" stroke-linejoin="round"/>
<path d="M251.699 402.363C254.496 402.363 256.763 400.096 256.763 397.298C256.763 394.499 254.496 392.232 251.699 392.232C248.902 392.232 246.636 394.499 246.636 397.298C246.636 400.096 248.902 402.363 251.699 402.363Z" fill="#E34C39"/>
<path d="M218.014 402.363C220.81 402.363 223.077 400.096 223.077 397.298C223.077 394.499 220.81 392.232 218.014 392.232C215.217 392.232 212.95 394.499 212.95 397.298C212.95 400.096 215.217 402.363 218.014 402.363Z" fill="#E34C39"/>
<path d="M243.23 400.518V404.085C243.23 405.127 242.816 406.127 242.079 406.864C241.342 407.601 240.343 408.016 239.301 408.016C238.259 408.016 237.26 407.601 236.523 406.864C235.786 406.127 235.372 405.127 235.372 404.085V400.518" stroke="#E34C39" stroke-width="10.58" stroke-linecap="round" stroke-linejoin="round"/>
<path d="M235.363 400.518V404.085C235.363 405.127 234.949 406.127 234.212 406.864C233.475 407.601 232.476 408.016 231.434 408.016C230.392 408.016 229.392 407.601 228.656 406.864C227.919 406.127 227.505 405.127 227.505 404.085V400.518" stroke="#E34C39" stroke-width="10.58" stroke-linecap="round" stroke-linejoin="round"/>
</g>
<defs>
<linearGradient id="paint0_linear_4494_1962" x1="507.072" y1="468.163" x2="496.017" y2="470.184" gradientUnits="userSpaceOnUse">
<stop stop-color="#D8BD0B"/>
<stop offset="1" stop-color="#F9D604"/>
</linearGradient>
<linearGradient id="paint1_linear_4494_1962" x1="478.222" y1="505.505" x2="487.825" y2="496.14" gradientUnits="userSpaceOnUse">
<stop stop-color="#FAEF0C"/>
<stop offset="1" stop-color="#E2CC0C"/>
</linearGradient>
<linearGradient id="paint2_linear_4494_1962" x1="480.358" y1="488.942" x2="484.124" y2="492.405" gradientUnits="userSpaceOnUse">
<stop stop-color="#F7EE10"/>
<stop offset="1" stop-color="#F7EE10" stop-opacity="0"/>
</linearGradient>
<linearGradient id="paint3_linear_4494_1962" x1="483.764" y1="484.584" x2="483.521" y2="491.06" gradientUnits="userSpaceOnUse">
<stop stop-color="#CBAE03"/>
<stop offset="1" stop-color="#F1CC04"/>
</linearGradient>
<linearGradient id="paint4_linear_4494_1962" x1="477.497" y1="501.933" x2="488.096" y2="494.17" gradientUnits="userSpaceOnUse">
<stop stop-color="#FFFF1E"/>
<stop offset="1" stop-color="#E8D80D"/>
</linearGradient>
<linearGradient id="paint5_linear_4494_1962" x1="478.49" y1="467.254" x2="496.047" y2="483.507" gradientUnits="userSpaceOnUse">
<stop stop-color="#FAF80D"/>
<stop offset="1" stop-color="#FFFF13"/>
</linearGradient>
<linearGradient id="paint6_linear_4494_1962" x1="495.001" y1="489.758" x2="514.067" y2="503.451" gradientUnits="userSpaceOnUse">
<stop stop-color="#EBD304"/>
<stop offset="1" stop-color="#F9E50C"/>
</linearGradient>
<linearGradient id="paint7_linear_4494_1962" x1="498.397" y1="488.861" x2="514.336" y2="510.793" gradientUnits="userSpaceOnUse">
<stop stop-color="#DCC102"/>
<stop offset="1" stop-color="#FAEF19" stop-opacity="0"/>
</linearGradient>
<linearGradient id="paint8_linear_4494_1962" x1="494.954" y1="496.494" x2="489.249" y2="496.816" gradientUnits="userSpaceOnUse">
<stop stop-color="#BFA702"/>
<stop offset="1" stop-color="#D3BE0B"/>
</linearGradient>
<linearGradient id="paint9_linear_4494_1962" x1="498.009" y1="485.793" x2="498.115" y2="493.02" gradientUnits="userSpaceOnUse">
<stop stop-color="#D5BF03"/>
<stop offset="1" stop-color="#FFE003"/>
</linearGradient>
<linearGradient id="paint10_linear_4494_1962" x1="-667.677" y1="489.962" x2="513.081" y2="489.962" gradientUnits="userSpaceOnUse">
<stop stop-color="#D5BF03"/>
<stop offset="1" stop-color="#FFE003"/>
</linearGradient>
<linearGradient id="paint11_linear_4494_1962" x1="498.124" y1="490.861" x2="498.065" y2="482.415" gradientUnits="userSpaceOnUse">
<stop stop-color="#FFBF03" stop-opacity="0.6"/>
<stop offset="1" stop-color="#E5C404"/>
</linearGradient>
<linearGradient id="paint12_linear_4494_1962" x1="521.334" y1="480.55" x2="517.881" y2="488.116" gradientUnits="userSpaceOnUse">
<stop stop-color="#D8BD0B"/>
<stop offset="1" stop-color="#F9D604"/>
</linearGradient>
<linearGradient id="paint13_linear_4494_1962" x1="493.854" y1="473.856" x2="504.735" y2="484.825" gradientUnits="userSpaceOnUse">
<stop stop-color="#FFEB05"/>
<stop offset="1" stop-color="#FAEF19" stop-opacity="0"/>
</linearGradient>
<linearGradient id="paint14_linear_4494_1962" x1="484.329" y1="474.325" x2="497.328" y2="477.7" gradientUnits="userSpaceOnUse">
<stop stop-color="#FFDF04"/>
<stop offset="1" stop-color="#F7D304"/>
</linearGradient>
<linearGradient id="paint15_linear_4494_1962" x1="492.298" y1="473.229" x2="477.222" y2="482.016" gradientUnits="userSpaceOnUse">
<stop stop-color="#FFDF03" stop-opacity="0"/>
<stop offset="1" stop-color="#FFDF03"/>
</linearGradient>
<linearGradient id="paint16_linear_4494_1962" x1="484.604" y1="484.675" x2="484.151" y2="491.215" gradientUnits="userSpaceOnUse">
<stop stop-color="#D5BF03"/>
<stop offset="1" stop-color="#FFE003"/>
</linearGradient>
<clipPath id="clip0_4494_1962">
<rect width="539" height="539" fill="white"/>
</clipPath>
</defs>
</svg>
