<svg width="388" height="299" viewBox="0 0 388 299" fill="none" xmlns="http://www.w3.org/2000/svg">
<rect y="46" width="253" height="253" stroke="black"/>
<path d="M215.205 158.262C213.617 157.358 211.865 156.78 210.051 156.561C208.237 156.342 206.397 156.487 204.64 156.987L204.63 156.988C202.87 157.476 201.225 158.309 199.79 159.439C198.355 160.568 197.159 161.972 196.271 163.568L182.261 188.55C181.57 189.784 180.416 190.693 179.054 191.077C177.693 191.46 176.235 191.287 175.001 190.595C173.767 189.904 172.858 188.75 172.475 187.388C172.091 186.027 172.264 184.569 172.956 183.335L205.077 126.107C206.876 122.896 207.329 119.102 206.337 115.557C205.345 112.012 202.988 109.004 199.783 107.193C196.562 105.395 192.764 104.934 189.206 105.909C187.445 106.395 185.797 107.228 184.36 108.358C182.923 109.488 181.726 110.893 180.838 112.49L156.013 156.72C155.308 157.941 154.153 158.838 152.795 159.219C151.438 159.601 149.985 159.436 148.747 158.76C147.517 158.065 146.612 156.912 146.23 155.552C145.848 154.193 146.02 152.737 146.708 151.504L182.453 87.8385C183.355 86.2465 183.934 84.4919 184.156 82.6756C184.379 80.8592 184.241 79.0168 183.75 77.254C183.259 75.4912 182.424 73.8427 181.295 72.403C180.165 70.9634 178.762 69.761 177.167 68.8647C175.571 67.9685 173.815 67.3961 171.997 67.1803C170.18 66.9646 168.338 67.1097 166.577 67.6075C164.816 68.1052 163.171 68.9457 161.736 70.0808C160.3 71.2159 159.103 72.6232 158.213 74.222L122.469 137.898C121.776 139.127 120.623 140.031 119.264 140.411C117.905 140.792 116.45 140.617 115.219 139.926C113.989 139.236 113.082 138.085 112.699 136.727C112.315 135.368 112.486 133.914 113.174 132.681L137.99 88.4633C138.892 86.8712 139.471 85.1167 139.693 83.3003C139.916 81.484 139.778 79.6416 139.287 77.8787C138.796 76.1159 137.961 74.4674 136.832 73.0278C135.702 71.5882 134.299 70.3857 132.704 69.4895C131.108 68.5933 129.352 68.0209 127.534 67.8051C125.717 67.5893 123.875 67.7345 122.114 68.2322C120.353 68.7299 118.708 69.5705 117.273 70.7055C115.837 71.8406 114.64 73.2479 113.75 74.8467L73.2292 147.028C72.7725 147.874 72.0899 148.576 71.2574 149.057C70.425 149.538 69.4754 149.779 68.5143 149.752C67.5577 149.743 66.621 149.477 65.8029 148.981C64.9848 148.486 64.3156 147.778 63.8658 146.934L48.7816 118.69C47.0691 115.494 44.2374 113.043 40.8291 111.805C37.4207 110.568 33.6756 110.631 30.3115 111.985C26.9474 113.338 24.201 115.884 22.5986 119.137C20.9962 122.39 20.6505 126.12 21.6279 129.611L28.5533 154.287C30.8918 162.597 32.0698 171.191 32.0536 179.824L32.0306 194.537C32.0206 206.192 34.4561 217.719 39.1797 228.373C43.9033 239.028 50.8099 248.573 59.4532 256.391C68.0964 264.209 78.284 270.127 89.3574 273.762C100.431 277.396 112.144 278.667 123.739 277.492C128.483 276.99 133.176 276.088 137.768 274.793C148.302 271.862 158.151 266.871 166.745 260.11C175.339 253.349 182.507 244.951 187.835 235.402L220.502 177.197C221.399 175.606 221.973 173.854 222.192 172.041C222.411 170.228 222.271 168.39 221.779 166.632C221.287 164.873 220.453 163.229 219.325 161.792C218.197 160.356 216.797 159.157 215.206 158.262L215.205 158.262Z" fill="#21D59E"/>
<rect x="170" y="10" width="208" height="185" rx="19" stroke="white" stroke-width="20" stroke-linecap="round" stroke-dasharray="50 50"/>
</svg>
