<svg width="195" height="195" viewBox="0 0 195 195" fill="none" xmlns="http://www.w3.org/2000/svg">
<mask id="mask0_4201_3047" style="mask-type:alpha" maskUnits="userSpaceOnUse" x="0" y="0" width="195" height="195">
<rect width="195" height="195" rx="57" fill="url(#paint0_linear_4201_3047)"/>
</mask>
<g mask="url(#mask0_4201_3047)">
<g filter="url(#filter0_d_4201_3047)">
<path d="M84.3883 120.245L84.476 112.679C83.242 110.814 79.7676 111.237 74.978 113.27C66.2334 116.982 65.2375 132.586 65.2375 132.586C65.2375 132.586 64.2937 140.665 60.4276 142.741C56.6449 144.771 45.3277 141.446 40.2326 138.204C37.5095 136.52 34.7371 129.005 37.4695 127.903C40.8304 126.546 46.1229 120.363 52.2738 117.097C57.4784 114.333 69.7935 115.37 73.8718 112.457C78.9696 108.815 76.817 103.536 76.2 102.604C74.9659 100.739 56.7912 96.2471 47.5599 99.0335C38.6202 101.732 30.4958 107.823 27.3632 111.058C27.1018 108.907 26.9546 103.553 27.7592 101.884C28.6278 100.083 32.8845 90.1801 34.6357 88.0123C36.3869 85.8445 45.3235 78.7825 39.3387 72.834C35.3284 68.8481 28.8276 81.6668 30.3304 77.4547C31.8331 73.2426 33.9332 57.3688 24.563 59.0116C14.2064 60.8273 4.0223 97.214 3.33125 99.8164C2.6402 102.419 3.20499 110.346 2.35066 116.612C0.804928 127.95 -2.87873 127.443 -4.04979 138.545C-5.56266 152.887 10.4548 197.085 10.6283 197.147C18.21 199.852 42.5755 194.775 53.8104 191.898C60.6615 183.343 73.252 167.03 75.9942 163.07C78.7365 159.111 86.3188 136.128 85.8362 132.157L84.3883 120.245Z" fill="black" shape-rendering="crispEdges"/>
<path d="M84.3883 120.245L84.476 112.679C83.242 110.814 79.7676 111.237 74.978 113.27C66.2334 116.982 65.2375 132.586 65.2375 132.586C65.2375 132.586 64.2937 140.665 60.4276 142.741C56.6449 144.771 45.3277 141.446 40.2326 138.204C37.5095 136.52 34.7371 129.005 37.4695 127.903C40.8304 126.546 46.1229 120.363 52.2738 117.097C57.4784 114.333 69.7935 115.37 73.8718 112.457C78.9696 108.815 76.817 103.536 76.2 102.604C74.9659 100.739 56.7912 96.2471 47.5599 99.0335C38.6202 101.732 30.4958 107.823 27.3632 111.058C27.1018 108.907 26.9546 103.553 27.7592 101.884C28.6278 100.083 32.8845 90.1801 34.6357 88.0123C36.3869 85.8445 45.3235 78.7825 39.3387 72.834C35.3284 68.8481 28.8276 81.6668 30.3304 77.4547C31.8331 73.2426 33.9332 57.3688 24.563 59.0116C14.2064 60.8273 4.0223 97.214 3.33125 99.8164C2.6402 102.419 3.20499 110.346 2.35066 116.612C0.804928 127.95 -2.87873 127.443 -4.04979 138.545C-5.56266 152.887 10.4548 197.085 10.6283 197.147C18.21 199.852 42.5755 194.775 53.8104 191.898C60.6615 183.343 73.252 167.03 75.9942 163.07C78.7365 159.111 86.3188 136.128 85.8362 132.157L84.3883 120.245Z" fill="url(#paint1_radial_4201_3047)" shape-rendering="crispEdges"/>
<path d="M84.3883 120.245L84.476 112.679C83.242 110.814 79.7676 111.237 74.978 113.27C66.2334 116.982 65.2375 132.586 65.2375 132.586C65.2375 132.586 64.2937 140.665 60.4276 142.741C56.6449 144.771 45.3277 141.446 40.2326 138.204C37.5095 136.52 34.7371 129.005 37.4695 127.903C40.8304 126.546 46.1229 120.363 52.2738 117.097C57.4784 114.333 69.7935 115.37 73.8718 112.457C78.9696 108.815 76.817 103.536 76.2 102.604C74.9659 100.739 56.7912 96.2471 47.5599 99.0335C38.6202 101.732 30.4958 107.823 27.3632 111.058C27.1018 108.907 26.9546 103.553 27.7592 101.884C28.6278 100.083 32.8845 90.1801 34.6357 88.0123C36.3869 85.8445 45.3235 78.7825 39.3387 72.834C35.3284 68.8481 28.8276 81.6668 30.3304 77.4547C31.8331 73.2426 33.9332 57.3688 24.563 59.0116C14.2064 60.8273 4.0223 97.214 3.33125 99.8164C2.6402 102.419 3.20499 110.346 2.35066 116.612C0.804928 127.95 -2.87873 127.443 -4.04979 138.545C-5.56266 152.887 10.4548 197.085 10.6283 197.147C18.21 199.852 42.5755 194.775 53.8104 191.898C60.6615 183.343 73.252 167.03 75.9942 163.07C78.7365 159.111 86.3188 136.128 85.8362 132.157L84.3883 120.245Z" fill="url(#paint2_radial_4201_3047)" fill-opacity="0.2" shape-rendering="crispEdges"/>
<path d="M84.3883 120.245L84.476 112.679C83.242 110.814 79.7676 111.237 74.978 113.27C66.2334 116.982 65.2375 132.586 65.2375 132.586C65.2375 132.586 64.2937 140.665 60.4276 142.741C56.6449 144.771 45.3277 141.446 40.2326 138.204C37.5095 136.52 34.7371 129.005 37.4695 127.903C40.8304 126.546 46.1229 120.363 52.2738 117.097C57.4784 114.333 69.7935 115.37 73.8718 112.457C78.9696 108.815 76.817 103.536 76.2 102.604C74.9659 100.739 56.7912 96.2471 47.5599 99.0335C38.6202 101.732 30.4958 107.823 27.3632 111.058C27.1018 108.907 26.9546 103.553 27.7592 101.884C28.6278 100.083 32.8845 90.1801 34.6357 88.0123C36.3869 85.8445 45.3235 78.7825 39.3387 72.834C35.3284 68.8481 28.8276 81.6668 30.3304 77.4547C31.8331 73.2426 33.9332 57.3688 24.563 59.0116C14.2064 60.8273 4.0223 97.214 3.33125 99.8164C2.6402 102.419 3.20499 110.346 2.35066 116.612C0.804928 127.95 -2.87873 127.443 -4.04979 138.545C-5.56266 152.887 10.4548 197.085 10.6283 197.147C18.21 199.852 42.5755 194.775 53.8104 191.898C60.6615 183.343 73.252 167.03 75.9942 163.07C78.7365 159.111 86.3188 136.128 85.8362 132.157L84.3883 120.245Z" fill="url(#paint3_radial_4201_3047)" fill-opacity="0.5" shape-rendering="crispEdges"/>
<path d="M24.3902 58.0271C22.8345 58.2999 21.3734 59.2017 20.027 60.4452C18.6742 61.6946 17.3732 63.348 16.1368 65.2407C13.6635 69.0264 11.3693 73.8945 9.3963 78.7424C5.44732 88.4455 2.71569 98.2368 2.36446 99.5594C2.16145 100.324 2.06577 101.404 2.00826 102.61C1.94977 103.836 1.92846 105.286 1.90259 106.823C1.85047 109.923 1.77711 113.412 1.35931 116.477C0.606243 122.001 -0.653214 124.603 -1.89497 127.241C-3.18186 129.976 -4.44283 132.737 -5.04438 138.44C-5.4406 142.196 -4.6896 147.784 -3.39735 153.949C-2.09776 160.148 -0.223889 167.049 1.69853 173.487C3.62174 179.928 5.5976 185.92 7.10323 190.306C7.85602 192.499 8.49166 194.292 8.94558 195.541C9.17228 196.164 9.3549 196.655 9.48414 196.993C9.54836 197.161 9.60206 197.298 9.64218 197.395C9.66144 197.442 9.68164 197.491 9.70131 197.533C9.70997 197.552 9.72711 197.588 9.74908 197.627C9.75878 197.644 9.78274 197.686 9.81824 197.735C9.83747 197.76 9.8883 197.82 9.92139 197.855C9.97918 197.908 10.1618 198.032 10.2922 198.089C12.3819 198.835 15.4933 199.013 19.0336 198.872C22.6111 198.73 26.7594 198.253 31.0003 197.605C39.4839 196.308 48.4172 194.311 54.058 192.867L54.3825 192.784L54.5908 192.524C61.4398 183.971 74.0508 167.633 76.816 163.64C77.5785 162.539 78.6051 160.25 79.6872 157.494C80.7851 154.697 81.9821 151.309 83.076 147.925C84.1695 144.543 85.1653 141.15 85.8584 138.346C86.2047 136.944 86.4792 135.677 86.6516 134.625C86.8189 133.604 86.9078 132.686 86.8288 132.036L85.3889 120.19L85.476 112.691L85.4799 112.383L85.3101 112.128C84.3921 110.74 82.7383 110.379 80.9825 110.516C79.6022 110.624 77.981 111.048 76.1877 111.713C77.6584 110.03 78.1597 108.174 78.1789 106.526C78.2033 104.421 77.445 102.674 77.034 102.052L76.9594 101.948C76.7769 101.714 76.5386 101.531 76.3291 101.392C76.0707 101.221 75.7595 101.055 75.4167 100.894C74.7298 100.574 73.8379 100.241 72.8047 99.9144C70.7329 99.2587 68.0111 98.5991 65.0483 98.0889C59.171 97.0767 52.1232 96.6121 47.2714 98.0765C39.3616 100.464 32.0999 105.433 28.2002 108.887C28.1638 108.085 28.146 107.19 28.1611 106.308C28.1763 105.42 28.2244 104.565 28.3139 103.841C28.4068 103.09 28.5337 102.58 28.6599 102.318C29.0877 101.431 30.4098 98.4195 31.7723 95.5098C32.4657 94.0292 33.1816 92.5466 33.8307 91.304C34.4934 90.0354 35.0466 89.0946 35.4135 88.6404C35.5984 88.4115 35.8967 88.0976 36.3039 87.6783C36.6984 87.272 37.1776 86.7846 37.6811 86.2458C38.688 85.1684 39.8363 83.839 40.741 82.3639C41.6419 80.8948 42.3474 79.2076 42.3748 77.4256C42.4028 75.6011 41.7171 73.7887 40.0435 72.1252C39.3866 71.4723 38.6261 71.1212 37.8083 71.0639C37.015 71.0083 36.2565 71.2346 35.5809 71.5727C34.2852 72.221 33.0687 73.3965 32.0967 74.4801C32.5469 71.9877 32.826 68.8087 32.5185 65.9312C32.2813 63.712 31.6809 61.5165 30.3979 59.9697C29.0484 58.3427 27.0492 57.5609 24.3902 58.0271ZM71.0953 114.688C68.4601 117.217 66.8537 120.835 65.8724 124.027C65.1829 126.269 64.7761 128.386 64.5411 129.94C64.4234 130.719 64.3484 131.359 64.3026 131.807C64.2798 132.031 64.2638 132.207 64.2539 132.328C64.2489 132.389 64.2458 132.437 64.2434 132.469C64.2429 132.476 64.2422 132.483 64.2418 132.488C64.2402 132.501 64.2376 132.521 64.2342 132.547C64.227 132.602 64.2156 132.684 64.1998 132.79C64.1682 133.004 64.1188 133.315 64.0472 133.695C63.9033 134.458 63.6733 135.493 63.329 136.584C62.9832 137.68 62.5308 138.804 61.9534 139.763C61.3718 140.728 60.7035 141.458 59.9546 141.86C59.2529 142.237 58.0603 142.42 56.4386 142.346C54.8522 142.273 52.9923 141.96 51.0643 141.479C47.1952 140.513 43.2004 138.907 40.7694 137.36L40.7588 137.353C40.2662 137.049 39.6799 136.41 39.115 135.508C38.5621 134.625 38.0816 133.572 37.7604 132.538C37.4352 131.491 37.2966 130.537 37.3617 129.832C37.4277 129.117 37.6628 128.903 37.8439 128.83C38.818 128.437 39.8687 127.724 40.9463 126.893C42.0339 126.054 43.2258 125.032 44.4711 123.98C46.9897 121.85 49.7751 119.556 52.7432 117.98C53.9003 117.365 55.5184 116.933 57.4412 116.601C59.352 116.271 61.4699 116.054 63.6009 115.828C65.7129 115.603 67.8414 115.369 69.7013 115.004C70.1765 114.91 70.6431 114.805 71.0953 114.688Z" stroke="url(#paint4_linear_4201_3047)" stroke-width="2" shape-rendering="crispEdges"/>
</g>
<circle cx="74.738" cy="112.602" r="14.5" transform="rotate(-5.40992 74.738 112.602)" fill="url(#paint5_radial_4201_3047)"/>
<g filter="url(#filter1_d_4201_3047)">
<path d="M118.028 111.296L113.12 105.537C112.875 103.315 115.816 101.417 120.798 99.915C129.894 97.1736 140.642 108.529 140.642 108.529C140.642 108.529 146.536 114.134 150.836 113.256C155.042 112.396 161.612 102.6 163.454 96.8484C164.469 93.8122 161.792 86.2628 158.987 87.1636C155.536 88.2716 147.512 86.9052 140.695 88.3303C134.927 89.5361 126.126 98.2122 121.128 98.5823C114.88 99.045 113.157 93.6107 113.035 92.4993C112.79 90.2767 123.884 75.1964 132.762 71.4318C141.359 67.7862 151.5 67.2699 155.977 67.752C154.802 65.9317 151.489 61.7222 149.804 60.9545C147.983 60.1257 138.377 55.2385 135.644 54.6928C132.911 54.1471 121.524 54.437 122.318 46.0363C122.85 40.4072 136.048 46.1 132.198 43.8242C128.348 41.5484 116.578 30.6921 124.831 25.9597C133.952 20.7293 165.059 42.1788 167.255 43.7368C169.451 45.2947 174.089 51.7488 178.754 56.0181C187.196 63.7427 189.703 60.9964 197.705 68.7795C208.044 78.8344 224.011 123.051 223.917 123.209C219.821 130.139 197.847 141.826 187.371 146.803C176.632 144.61 156.519 140.128 151.878 138.84C147.237 137.551 126.706 124.738 124.536 121.378L118.028 111.296Z" fill="black" shape-rendering="crispEdges"/>
<path d="M118.028 111.296L113.12 105.537C112.875 103.315 115.816 101.417 120.798 99.915C129.894 97.1736 140.642 108.529 140.642 108.529C140.642 108.529 146.536 114.134 150.836 113.256C155.042 112.396 161.612 102.6 163.454 96.8484C164.469 93.8122 161.792 86.2628 158.987 87.1636C155.536 88.2716 147.512 86.9052 140.695 88.3303C134.927 89.5361 126.126 98.2122 121.128 98.5823C114.88 99.045 113.157 93.6107 113.035 92.4993C112.79 90.2767 123.884 75.1964 132.762 71.4318C141.359 67.7862 151.5 67.2699 155.977 67.752C154.802 65.9317 151.489 61.7222 149.804 60.9545C147.983 60.1257 138.377 55.2385 135.644 54.6928C132.911 54.1471 121.524 54.437 122.318 46.0363C122.85 40.4072 136.048 46.1 132.198 43.8242C128.348 41.5484 116.578 30.6921 124.831 25.9597C133.952 20.7293 165.059 42.1788 167.255 43.7368C169.451 45.2947 174.089 51.7488 178.754 56.0181C187.196 63.7427 189.703 60.9964 197.705 68.7795C208.044 78.8344 224.011 123.051 223.917 123.209C219.821 130.139 197.847 141.826 187.371 146.803C176.632 144.61 156.519 140.128 151.878 138.84C147.237 137.551 126.706 124.738 124.536 121.378L118.028 111.296Z" fill="url(#paint6_radial_4201_3047)" shape-rendering="crispEdges"/>
<path d="M118.028 111.296L113.12 105.537C112.875 103.315 115.816 101.417 120.798 99.915C129.894 97.1736 140.642 108.529 140.642 108.529C140.642 108.529 146.536 114.134 150.836 113.256C155.042 112.396 161.612 102.6 163.454 96.8484C164.469 93.8122 161.792 86.2628 158.987 87.1636C155.536 88.2716 147.512 86.9052 140.695 88.3303C134.927 89.5361 126.126 98.2122 121.128 98.5823C114.88 99.045 113.157 93.6107 113.035 92.4993C112.79 90.2767 123.884 75.1964 132.762 71.4318C141.359 67.7862 151.5 67.2699 155.977 67.752C154.802 65.9317 151.489 61.7222 149.804 60.9545C147.983 60.1257 138.377 55.2385 135.644 54.6928C132.911 54.1471 121.524 54.437 122.318 46.0363C122.85 40.4072 136.048 46.1 132.198 43.8242C128.348 41.5484 116.578 30.6921 124.831 25.9597C133.952 20.7293 165.059 42.1788 167.255 43.7368C169.451 45.2947 174.089 51.7488 178.754 56.0181C187.196 63.7427 189.703 60.9964 197.705 68.7795C208.044 78.8344 224.011 123.051 223.917 123.209C219.821 130.139 197.847 141.826 187.371 146.803C176.632 144.61 156.519 140.128 151.878 138.84C147.237 137.551 126.706 124.738 124.536 121.378L118.028 111.296Z" fill="url(#paint7_radial_4201_3047)" fill-opacity="0.2" shape-rendering="crispEdges"/>
<path d="M118.028 111.296L113.12 105.537C112.875 103.315 115.816 101.417 120.798 99.915C129.894 97.1736 140.642 108.529 140.642 108.529C140.642 108.529 146.536 114.134 150.836 113.256C155.042 112.396 161.612 102.6 163.454 96.8484C164.469 93.8122 161.792 86.2628 158.987 87.1636C155.536 88.2716 147.512 86.9052 140.695 88.3303C134.927 89.5361 126.126 98.2122 121.128 98.5823C114.88 99.045 113.157 93.6107 113.035 92.4993C112.79 90.2767 123.884 75.1964 132.762 71.4318C141.359 67.7862 151.5 67.2699 155.977 67.752C154.802 65.9317 151.489 61.7222 149.804 60.9545C147.983 60.1257 138.377 55.2385 135.644 54.6928C132.911 54.1471 121.524 54.437 122.318 46.0363C122.85 40.4072 136.048 46.1 132.198 43.8242C128.348 41.5484 116.578 30.6921 124.831 25.9597C133.952 20.7293 165.059 42.1788 167.255 43.7368C169.451 45.2947 174.089 51.7488 178.754 56.0181C187.196 63.7427 189.703 60.9964 197.705 68.7795C208.044 78.8344 224.011 123.051 223.917 123.209C219.821 130.139 197.847 141.826 187.371 146.803C176.632 144.61 156.519 140.128 151.878 138.84C147.237 137.551 126.706 124.738 124.536 121.378L118.028 111.296Z" fill="url(#paint8_radial_4201_3047)" fill-opacity="0.5" shape-rendering="crispEdges"/>
<path d="M124.334 25.0925C125.704 24.3069 127.404 24.0653 129.234 24.1595C131.073 24.2543 133.131 24.6927 135.292 25.3562C139.615 26.6834 144.493 28.957 149.111 31.4206C158.354 36.3515 166.717 42.1289 167.834 42.9207C168.479 43.3784 169.243 44.1476 170.059 45.0374C170.888 45.9424 171.832 47.0426 172.836 48.208C174.859 50.557 177.148 53.1918 179.43 55.2798C183.542 59.0432 186.175 60.2375 188.818 61.4707C191.556 62.7488 194.292 64.0645 198.402 68.0622C201.11 70.6956 204.108 75.4712 207.059 81.0357C210.027 86.6318 213.002 93.1344 215.643 99.3124C218.286 105.493 220.601 111.362 222.25 115.696C223.074 117.863 223.733 119.648 224.183 120.898C224.408 121.523 224.581 122.017 224.698 122.359C224.756 122.529 224.802 122.668 224.834 122.769C224.849 122.817 224.865 122.868 224.877 122.913C224.882 122.933 224.892 122.971 224.9 123.016C224.904 123.035 224.912 123.083 224.916 123.143C224.917 123.175 224.917 123.253 224.913 123.301C224.903 123.379 224.842 123.591 224.778 123.718C223.649 125.628 221.372 127.756 218.561 129.913C215.72 132.092 212.227 134.38 208.553 136.595C201.203 141.026 193.06 145.207 187.801 147.706L187.499 147.85L187.172 147.783C176.436 145.591 156.291 141.103 151.611 139.803C150.321 139.445 148.067 138.342 145.472 136.916C142.839 135.47 139.751 133.631 136.746 131.73C133.741 129.83 130.806 127.86 128.479 126.148C127.316 125.293 126.294 124.495 125.489 123.796C124.707 123.119 124.051 122.47 123.696 121.92L117.224 111.894L112.359 106.186L112.159 105.953L112.126 105.647C111.944 103.994 112.984 102.658 114.421 101.64C115.551 100.84 117.068 100.128 118.872 99.4927C116.665 99.14 115.092 98.0339 114.023 96.7799C112.657 95.1773 112.123 93.3495 112.041 92.6092L112.032 92.4815C112.022 92.1846 112.088 91.8917 112.16 91.651C112.249 91.354 112.382 91.0268 112.543 90.6844C112.866 89.9983 113.339 89.1724 113.923 88.2601C115.096 86.4306 116.766 84.1823 118.717 81.8946C122.586 77.3565 127.706 72.4904 132.371 70.5118C139.978 67.2861 148.738 66.4592 153.945 66.6189C153.46 65.9789 152.901 65.2798 152.325 64.6114C151.745 63.9392 151.161 63.3124 150.63 62.8138C150.078 62.2959 149.653 61.9846 149.389 61.8642C148.493 61.456 145.55 59.9876 142.641 58.6231C141.161 57.9288 139.662 57.2473 138.368 56.7076C137.047 56.1566 136.02 55.7874 135.448 55.6731C135.159 55.6155 134.729 55.5651 134.148 55.5033C133.585 55.4435 132.905 55.3754 132.173 55.2835C130.71 55.0997 128.977 54.8126 127.338 54.2577C125.705 53.705 124.084 52.8597 122.922 51.5076C121.734 50.1234 121.101 48.2917 121.323 45.9424C121.41 45.0204 121.77 44.264 122.362 43.6967C122.936 43.1465 123.664 42.8352 124.399 42.6627C125.81 42.3321 127.497 42.4572 128.937 42.6681C126.997 41.0406 124.748 38.7759 123.144 36.3677C121.906 34.5103 120.963 32.4389 120.959 30.4292C120.956 28.3153 121.992 26.4354 124.334 25.0925ZM124.689 98.5204C128.333 98.7786 131.882 100.531 134.678 102.356C136.643 103.639 138.31 105.006 139.485 106.05C140.073 106.573 140.54 107.017 140.862 107.332C141.023 107.489 141.148 107.614 141.233 107.701C141.276 107.745 141.309 107.779 141.331 107.803C141.336 107.808 141.341 107.812 141.345 107.816C141.354 107.825 141.369 107.839 141.388 107.857C141.429 107.894 141.49 107.95 141.57 108.022C141.731 108.166 141.968 108.373 142.267 108.62C142.865 109.114 143.704 109.762 144.667 110.381C145.634 111.001 146.701 111.576 147.758 111.943C148.822 112.313 149.803 112.447 150.636 112.276C151.416 112.117 152.45 111.495 153.648 110.4C154.821 109.329 156.05 107.899 157.224 106.296C159.58 103.078 161.623 99.2875 162.501 96.5434L162.505 96.5315C162.689 95.9823 162.731 95.1164 162.588 94.0615C162.448 93.0291 162.144 91.9126 161.729 90.9126C161.309 89.8999 160.805 89.0779 160.304 88.5777C159.796 88.0705 159.479 88.0565 159.293 88.1161C158.293 88.4373 157.029 88.5615 155.669 88.6121C154.296 88.6631 152.727 88.6405 151.096 88.6281C147.798 88.6031 144.189 88.6215 140.9 89.3092C139.617 89.5773 138.097 90.2804 136.407 91.2553C134.727 92.2241 132.961 93.4125 131.178 94.6019C129.411 95.7806 127.626 96.9624 125.962 97.8714C125.537 98.1037 125.111 98.3212 124.689 98.5204Z" stroke="url(#paint9_linear_4201_3047)" stroke-width="2" shape-rendering="crispEdges"/>
</g>
<circle cx="14.5" cy="14.5" r="14.5" transform="matrix(-0.825451 0.564474 0.564474 0.825451 124.339 79.094)" fill="url(#paint10_radial_4201_3047)"/>
</g>
<defs>
<filter id="filter0_d_4201_3047" x="-10.1499" y="56.8936" width="102.008" height="151.023" filterUnits="userSpaceOnUse" color-interpolation-filters="sRGB">
<feFlood flood-opacity="0" result="BackgroundImageFix"/>
<feColorMatrix in="SourceAlpha" type="matrix" values="0 0 0 0 0 0 0 0 0 0 0 0 0 0 0 0 0 0 127 0" result="hardAlpha"/>
<feOffset dy="4"/>
<feGaussianBlur stdDeviation="2"/>
<feComposite in2="hardAlpha" operator="out"/>
<feColorMatrix type="matrix" values="0 0 0 0 0 0 0 0 0 0 0 0 0 0 0 0 0 0 0.5 0"/>
<feBlend mode="normal" in2="BackgroundImageFix" result="effect1_dropShadow_4201_3047"/>
<feBlend mode="normal" in="SourceGraphic" in2="effect1_dropShadow_4201_3047" result="shape"/>
</filter>
<filter id="filter1_d_4201_3047" x="107.031" y="23.1399" width="122.885" height="133.756" filterUnits="userSpaceOnUse" color-interpolation-filters="sRGB">
<feFlood flood-opacity="0" result="BackgroundImageFix"/>
<feColorMatrix in="SourceAlpha" type="matrix" values="0 0 0 0 0 0 0 0 0 0 0 0 0 0 0 0 0 0 127 0" result="hardAlpha"/>
<feOffset dy="4"/>
<feGaussianBlur stdDeviation="2"/>
<feComposite in2="hardAlpha" operator="out"/>
<feColorMatrix type="matrix" values="0 0 0 0 0 0 0 0 0 0 0 0 0 0 0 0 0 0 0.5 0"/>
<feBlend mode="normal" in2="BackgroundImageFix" result="effect1_dropShadow_4201_3047"/>
<feBlend mode="normal" in="SourceGraphic" in2="effect1_dropShadow_4201_3047" result="shape"/>
</filter>
<linearGradient id="paint0_linear_4201_3047" x1="97.5" y1="0" x2="97.5" y2="195" gradientUnits="userSpaceOnUse">
<stop stop-color="#575757"/>
<stop offset="0.84" stop-color="#151515"/>
</linearGradient>
<radialGradient id="paint1_radial_4201_3047" cx="0" cy="0" r="1" gradientUnits="userSpaceOnUse" gradientTransform="translate(83.9367 33.6506) rotate(111.316) scale(213.413 142.251)">
<stop stop-color="white"/>
<stop offset="0.775" stop-color="white" stop-opacity="0"/>
</radialGradient>
<radialGradient id="paint2_radial_4201_3047" cx="0" cy="0" r="1" gradientUnits="userSpaceOnUse" gradientTransform="translate(70.5161 113.856) rotate(-76.1578) scale(31.0161 23.8127)">
<stop offset="0.665" stop-color="white"/>
<stop offset="1" stop-color="white" stop-opacity="0"/>
</radialGradient>
<radialGradient id="paint3_radial_4201_3047" cx="0" cy="0" r="1" gradientUnits="userSpaceOnUse" gradientTransform="translate(75.2513 107.186) rotate(-68.6381) scale(28.9007 22.1886)">
<stop stop-color="#FFDA03"/>
<stop offset="1" stop-color="#FFDA03" stop-opacity="0"/>
</radialGradient>
<linearGradient id="paint4_linear_4201_3047" x1="89.4877" y1="85.6882" x2="27.498" y2="157.986" gradientUnits="userSpaceOnUse">
<stop stop-color="white" stop-opacity="0.99"/>
<stop offset="1"/>
</linearGradient>
<radialGradient id="paint5_radial_4201_3047" cx="0" cy="0" r="1" gradientUnits="userSpaceOnUse" gradientTransform="translate(74.738 112.602) rotate(90) scale(14.5)">
<stop stop-color="#FFD303"/>
<stop offset="1" stop-color="#FFD200" stop-opacity="0"/>
</radialGradient>
<radialGradient id="paint6_radial_4201_3047" cx="0" cy="0" r="1" gradientUnits="userSpaceOnUse" gradientTransform="translate(62.9734 44.4548) rotate(28.9082) scale(213.413 142.251)">
<stop stop-color="white"/>
<stop offset="0.775" stop-color="white" stop-opacity="0"/>
</radialGradient>
<radialGradient id="paint7_radial_4201_3047" cx="0" cy="0" r="1" gradientUnits="userSpaceOnUse" gradientTransform="translate(124.602 97.5106) rotate(-143.618) scale(31.0161 23.8127)">
<stop offset="0.665" stop-color="white"/>
<stop offset="1" stop-color="white" stop-opacity="0"/>
</radialGradient>
<radialGradient id="paint8_radial_4201_3047" cx="0" cy="0" r="1" gradientUnits="userSpaceOnUse" gradientTransform="translate(116.695 95.4138) rotate(-151.138) scale(28.9007 22.1886)">
<stop stop-color="#FFDA03"/>
<stop offset="1" stop-color="#FFDA03" stop-opacity="0"/>
</radialGradient>
<linearGradient id="paint9_linear_4201_3047" x1="92" y1="88" x2="185.897" y2="103.905" gradientUnits="userSpaceOnUse">
<stop stop-color="white" stop-opacity="0.99"/>
<stop offset="1"/>
</linearGradient>
<radialGradient id="paint10_radial_4201_3047" cx="0" cy="0" r="1" gradientUnits="userSpaceOnUse" gradientTransform="translate(14.5 14.5) rotate(90) scale(14.5)">
<stop stop-color="#FFD303"/>
<stop offset="1" stop-color="#FFD200" stop-opacity="0"/>
</radialGradient>
</defs>
</svg>
