<svg width="512" height="512" viewBox="0 0 512 512" fill="none" xmlns="http://www.w3.org/2000/svg">
<g clip-path="url(#clip0_1117_49)">
<rect width="512" height="512" fill="url(#paint0_linear_1117_49)"/>
<path d="M0 0H512V512H0V0Z" fill="url(#paint1_linear_1117_49)"/>
<g opacity="0.3" filter="url(#filter0_f_1117_49)">
<g filter="url(#filter1_i_1117_49)">
<path fill-rule="evenodd" clip-rule="evenodd" d="M-7.43903 144.487C19.9328 185.005 74.9684 195.662 115.486 168.29C156.004 140.918 166.662 85.8823 139.29 45.3643C111.918 4.84633 56.8822 -5.81073 16.3642 21.5611C-24.1538 48.933 -34.8109 103.969 -7.43903 144.487Z" fill="url(#paint2_linear_1117_49)"/>
<path fill-rule="evenodd" clip-rule="evenodd" d="M-7.43903 144.487C19.9328 185.005 74.9684 195.662 115.486 168.29C156.004 140.918 166.662 85.8823 139.29 45.3643C111.918 4.84633 56.8822 -5.81073 16.3642 21.5611C-24.1538 48.933 -34.8109 103.969 -7.43903 144.487Z" fill="url(#paint3_radial_1117_49)"/>
</g>
<mask id="mask0_1117_49" style="mask-type:luminance" maskUnits="userSpaceOnUse" x="-23" y="6" width="178" height="178">
<path fill-rule="evenodd" clip-rule="evenodd" d="M-7.43903 144.487C19.9328 185.005 74.9684 195.662 115.486 168.29C156.004 140.918 166.662 85.8823 139.29 45.3643C111.918 4.84633 56.8822 -5.81073 16.3642 21.5611C-24.1538 48.933 -34.8109 103.969 -7.43903 144.487Z" fill="white"/>
<path fill-rule="evenodd" clip-rule="evenodd" d="M-7.43903 144.487C19.9328 185.005 74.9684 195.662 115.486 168.29C156.004 140.918 166.662 85.8823 139.29 45.3643C111.918 4.84633 56.8822 -5.81073 16.3642 21.5611C-24.1538 48.933 -34.8109 103.969 -7.43903 144.487Z" stroke="white"/>
</mask>
<g mask="url(#mask0_1117_49)">
<g opacity="0.7" filter="url(#filter2_f_1117_49)">
<path fill-rule="evenodd" clip-rule="evenodd" d="M87.1417 164.286C94.8127 175.641 117.374 178.581 134.226 164.243C151.078 149.906 151.37 128.888 143.699 117.533C136.028 106.178 112.793 116.168 101.438 123.839C90.0829 131.51 79.4708 152.931 87.1417 164.286Z" fill="url(#paint4_radial_1117_49)" fill-opacity="0.86"/>
</g>
</g>
</g>
<g opacity="0.3" filter="url(#filter3_f_1117_49)">
<g filter="url(#filter4_i_1117_49)">
<path fill-rule="evenodd" clip-rule="evenodd" d="M329.536 281.682C362.969 331.173 430.192 344.19 479.683 310.757C529.173 277.323 542.19 210.101 508.757 160.61C475.324 111.12 408.101 98.1029 358.61 131.536C309.12 164.969 296.103 232.192 329.536 281.682Z" fill="url(#paint5_linear_1117_49)"/>
<path fill-rule="evenodd" clip-rule="evenodd" d="M329.536 281.682C362.969 331.173 430.192 344.19 479.683 310.757C529.173 277.323 542.19 210.101 508.757 160.61C475.324 111.12 408.101 98.1029 358.61 131.536C309.12 164.969 296.103 232.192 329.536 281.682Z" fill="url(#paint6_radial_1117_49)"/>
</g>
<mask id="mask1_1117_49" style="mask-type:luminance" maskUnits="userSpaceOnUse" x="310" y="112" width="218" height="218">
<path fill-rule="evenodd" clip-rule="evenodd" d="M329.536 281.682C362.969 331.173 430.192 344.19 479.683 310.757C529.173 277.323 542.19 210.101 508.757 160.61C475.324 111.12 408.101 98.1029 358.61 131.536C309.12 164.969 296.103 232.192 329.536 281.682Z" fill="white"/>
<path fill-rule="evenodd" clip-rule="evenodd" d="M329.536 281.682C362.969 331.173 430.192 344.19 479.683 310.757C529.173 277.323 542.19 210.101 508.757 160.61C475.324 111.12 408.101 98.1029 358.61 131.536C309.12 164.969 296.103 232.192 329.536 281.682Z" stroke="white"/>
</mask>
<g mask="url(#mask1_1117_49)">
<g opacity="0.7" filter="url(#filter5_f_1117_49)">
<path fill-rule="evenodd" clip-rule="evenodd" d="M445.061 305.866C454.431 319.736 481.988 323.326 502.572 305.814C523.155 288.301 523.512 262.629 514.142 248.76C504.773 234.89 476.393 247.093 462.523 256.463C448.654 265.832 435.691 291.997 445.061 305.866Z" fill="url(#paint7_radial_1117_49)" fill-opacity="0.86"/>
</g>
</g>
</g>
<path d="M166 166C166 134.497 166 118.746 172.131 106.713C177.524 96.1289 186.129 87.5238 196.713 82.1309C208.746 76 224.497 76 256 76C287.503 76 303.254 76 315.287 82.1309C325.871 87.5238 334.476 96.1289 339.869 106.713C346 118.746 346 134.497 346 166C346 197.503 346 213.254 339.869 225.287C334.476 235.871 325.871 244.476 315.287 249.869C303.254 256 287.503 256 256 256C224.497 256 208.746 256 196.713 249.869C186.129 244.476 177.524 235.871 172.131 225.287C166 213.254 166 197.503 166 166Z" fill="url(#paint8_linear_1117_49)"/>
<g filter="url(#filter6_f_1117_49)">
<path d="M194.125 199.061C194.125 196.868 195.265 194.833 197.134 193.687L267.924 150.3C276.125 145.273 286.466 145.329 294.612 150.444L337.831 177.582C340.289 179.125 341.781 181.825 341.781 184.727V185.197C341.781 188.124 340.264 190.842 337.772 192.378L270.752 233.707C262.576 238.75 252.25 238.729 244.093 233.654L197.098 204.412C195.249 203.262 194.125 201.239 194.125 199.061Z" fill="url(#paint9_linear_1117_49)" fill-opacity="0.5"/>
</g>
<g filter="url(#filter7_f_1117_49)">
<path d="M199.047 198.889C199.047 196.78 200.059 194.8 201.768 193.564L245.471 161.972C252.849 156.638 262.522 155.677 270.805 159.456L323.035 183.28C329.203 186.093 329.702 194.664 323.902 198.174L270.612 230.429C262.503 235.337 252.33 235.303 244.254 230.34L202.177 204.486C200.232 203.291 199.047 201.171 199.047 198.889Z" fill="url(#paint10_linear_1117_49)" fill-opacity="0.5"/>
</g>
<path d="M302.406 150.531L321.322 161.171C323.536 162.417 324.906 164.76 324.906 167.3V181.469C324.906 177.125 322.564 173.12 318.778 170.99L302.406 161.781V150.531Z" fill="url(#paint11_linear_1117_49)"/>
<path d="M319.996 161.231L308.031 154.75V153.336L320.688 160.643C324.168 162.653 326.312 166.367 326.312 170.386V184.281L313.656 187.797L289.418 175.678C287.036 174.487 285.531 172.052 285.531 169.389V168.773C285.531 164.592 289.932 161.872 293.672 163.742L317.997 175.905C320.647 177.23 323.802 175.481 324.083 172.531L324.377 169.45C324.698 166.079 322.973 162.843 319.996 161.231Z" fill="url(#paint12_linear_1117_49)"/>
<path d="M195.531 146.312L244.224 175.086C252.329 179.875 262.421 179.771 270.425 174.816L316.469 146.312L311.244 198.563C310.991 201.093 309.61 203.374 307.486 204.772L270.968 228.797C262.704 234.234 252.029 234.358 243.64 229.115L204.668 204.757C202.453 203.373 201.004 201.041 200.744 198.442L195.531 146.312Z" fill="url(#paint13_linear_1117_49)"/>
<mask id="mask2_1117_49" style="mask-type:alpha" maskUnits="userSpaceOnUse" x="195" y="146" width="122" height="87">
<path d="M195.531 146.312L244.224 175.086C252.329 179.875 262.421 179.771 270.425 174.816L316.469 146.312L311.244 198.563C310.991 201.093 309.61 203.374 307.486 204.772L270.968 228.797C262.704 234.234 252.029 234.358 243.64 229.115L204.668 204.757C202.453 203.373 201.004 201.041 200.744 198.442L195.531 146.312Z" fill="url(#paint14_linear_1117_49)"/>
</mask>
<g mask="url(#mask2_1117_49)">
<g filter="url(#filter8_f_1117_49)">
<path d="M239.125 170.219L248.969 174.438V234.203L241.938 231.391L239.125 170.219Z" fill="#FEFE6B"/>
</g>
<g opacity="0.6" filter="url(#filter9_f_1117_49)">
<path d="M195.531 146.312L244.224 175.086C252.329 179.875 262.421 179.771 270.425 174.816L316.469 146.312L313.472 173.882C313.15 176.842 311.292 179.413 308.583 180.648L270.109 198.18C262.202 201.783 252.999 201.079 245.733 196.314L197.359 164.594L195.531 146.312Z" fill="url(#paint15_linear_1117_49)"/>
</g>
<g filter="url(#filter10_f_1117_49)">
<path d="M195.531 146.312L244.224 175.086C252.329 179.875 262.421 179.771 270.425 174.816L316.469 146.312L314.866 159.669C314.547 162.324 312.989 164.671 310.665 165.995L271.325 188.404C263.567 192.823 254.055 192.828 246.292 188.417L196.938 160.375L195.531 146.312Z" fill="url(#paint16_linear_1117_49)"/>
</g>
<g filter="url(#filter11_di_1117_49)">
<path d="M274.925 192.551C275.877 192.008 277.057 192.713 277.029 193.808L276.461 215.931C276.416 217.696 275.545 219.337 274.108 220.364L273.761 220.612C272.817 221.286 271.51 220.592 271.539 219.432L272.091 197.295C272.141 195.328 273.216 193.528 274.925 192.551ZM290.258 182.785C291.236 182.226 292.451 182.98 292.369 184.103L290.645 207.664C290.523 209.332 289.665 210.86 288.304 211.831L287.963 212.075C286.995 212.766 285.659 212.017 285.744 210.831L287.426 187.275C287.56 185.404 288.63 183.715 290.258 182.785ZM304.194 173.014C305.195 172.442 306.436 173.244 306.303 174.389L303.397 199.381C303.214 200.959 302.371 202.386 301.079 203.309L300.758 203.539C299.767 204.246 298.406 203.445 298.543 202.235L301.38 177.271C301.583 175.49 302.637 173.903 304.194 173.014Z" fill="#919019"/>
</g>
<g filter="url(#filter12_f_1117_49)">
<path d="M291.308 165.536L320.536 182.411L313.505 194.589L286.234 175.844L291.308 165.536Z" fill="#626200" fill-opacity="0.61"/>
</g>
</g>
<g filter="url(#filter13_i_1117_49)">
<path d="M189.906 138.416C189.906 135.462 191.452 132.723 193.981 131.195L244.034 100.954C252.231 96.0017 262.521 96.0996 270.623 101.207L318.156 131.174C320.607 132.719 322.094 135.414 322.094 138.311V138.758C322.094 141.703 320.559 144.434 318.043 145.965L270.292 175.032C262.353 179.864 252.404 179.957 244.376 175.274L194.092 145.942C191.5 144.43 189.906 141.655 189.906 138.654V138.416Z" fill="url(#paint17_linear_1117_49)"/>
</g>
<path d="M245.202 105.819C252.525 101.339 261.76 101.417 269.006 106.021L312.285 133.511C314.89 135.166 314.895 138.966 312.294 140.627L269.054 168.25C261.785 172.894 252.5 172.973 245.152 168.453L199.983 140.665C197.301 139.016 197.306 135.116 199.992 133.473L245.202 105.819Z" fill="url(#paint18_linear_1117_49)"/>
<mask id="mask3_1117_49" style="mask-type:alpha" maskUnits="userSpaceOnUse" x="197" y="102" width="118" height="70">
<path d="M245.202 105.819C252.525 101.339 261.76 101.417 269.006 106.021L312.285 133.511C314.89 135.166 314.895 138.966 312.294 140.627L269.054 168.25C261.785 172.894 252.5 172.973 245.152 168.453L199.983 140.665C197.301 139.016 197.306 135.116 199.992 133.473L245.202 105.819Z" fill="url(#paint19_linear_1117_49)"/>
</mask>
<g mask="url(#mask3_1117_49)">
<g opacity="0.3" filter="url(#filter14_f_1117_49)">
<path d="M256 91.4688L271.469 95.7339V156.156L256 156.156V91.4688Z" fill="url(#paint20_linear_1117_49)"/>
</g>
<g filter="url(#filter15_di_1117_49)">
<path d="M244.069 120.282C252.13 115.531 262.154 115.615 270.135 120.499L312.013 146.131C314.698 147.774 314.703 151.671 312.023 153.321L270.191 179.076C262.182 184.006 252.101 184.09 244.011 179.294L200.264 153.358C197.503 151.721 197.509 147.724 200.273 146.095L244.069 120.282Z" fill="url(#paint21_linear_1117_49)"/>
</g>
<path d="M244.069 169.501C252.13 164.75 262.154 164.834 270.135 169.718L312.013 195.349C314.698 196.992 314.703 200.89 312.023 202.54L270.191 228.294C262.182 233.225 252.101 233.309 244.011 228.513L200.264 202.577C197.503 200.94 197.509 196.943 200.273 195.313L244.069 169.501Z" fill="url(#paint22_linear_1117_49)"/>
<mask id="mask4_1117_49" style="mask-type:alpha" maskUnits="userSpaceOnUse" x="225" y="132" width="22" height="38">
<path d="M242.637 160.542C241.686 161.086 240.506 160.381 240.534 159.285L241.101 137.162C241.146 135.397 242.018 133.756 243.455 132.729L243.8 132.481C244.744 131.807 246.053 132.502 246.024 133.661L245.47 155.798C245.421 157.766 244.346 159.565 242.637 160.542ZM227.168 168.979C226.217 169.523 225.037 168.818 225.065 167.723L225.632 145.6C225.678 143.834 226.549 142.193 227.986 141.167L228.332 140.919C229.275 140.245 230.584 140.939 230.555 142.099L230.001 164.235C229.952 166.203 228.878 168.003 227.168 168.979Z" fill="#E6E6E6"/>
</mask>
<g mask="url(#mask4_1117_49)">
<path d="M242.637 160.542C241.685 161.085 240.505 160.381 240.533 159.285L241.101 137.162C241.146 135.397 242.017 133.755 243.454 132.729L243.801 132.482C244.745 131.808 246.052 132.502 246.023 133.661L245.47 155.798C245.421 157.766 244.346 159.566 242.637 160.542ZM227.168 168.98C226.217 169.523 225.036 168.818 225.064 167.723L225.632 145.6C225.677 143.835 226.548 142.192 227.985 141.166L228.332 140.919C229.276 140.245 230.584 140.939 230.555 142.099L230.001 164.235C229.952 166.203 228.877 168.003 227.168 168.98Z" fill="#E6E6E6"/>
<path d="M314.359 168.812L258.109 141.391L219.438 129.437V122.406L258.109 130.141L315.062 157.562L314.359 168.812Z" fill="#222222"/>
<g filter="url(#filter16_di_1117_49)">
<path d="M242.636 160.542C241.685 161.085 240.505 160.38 240.533 159.285L241.1 137.162C241.145 135.397 242.017 133.756 243.454 132.729L243.8 132.481C244.744 131.808 246.052 132.502 246.023 133.661L245.469 155.799C245.42 157.766 244.345 159.565 242.636 160.542ZM227.167 168.979C226.216 169.523 225.036 168.818 225.064 167.723L225.631 145.599C225.677 143.834 226.548 142.193 227.985 141.167L228.332 140.919C229.275 140.245 230.583 140.939 230.554 142.099L230 164.236C229.951 166.204 228.876 168.003 227.167 168.979Z" fill="#E6E6E6" fill-opacity="0.01" shape-rendering="crispEdges"/>
</g>
</g>
<mask id="mask5_1117_49" style="mask-type:alpha" maskUnits="userSpaceOnUse" x="265" y="132" width="22" height="38">
<path d="M269.168 160.543C270.119 161.086 271.3 160.381 271.271 159.286L270.705 137.163C270.66 135.398 269.787 133.756 268.351 132.73L268.005 132.482C267.061 131.808 265.752 132.502 265.781 133.662L266.335 155.798C266.384 157.766 267.459 159.566 269.168 160.543ZM284.637 168.98C285.588 169.524 286.768 168.819 286.74 167.723L286.174 145.6C286.129 143.835 285.256 142.194 283.819 141.168L283.474 140.92C282.53 140.245 281.221 140.94 281.25 142.099L281.804 164.236C281.853 166.204 282.928 168.004 284.637 168.98Z" fill="#E6E6E6"/>
</mask>
<g mask="url(#mask5_1117_49)">
<path d="M269.167 160.543C270.119 161.086 271.299 160.381 271.271 159.286L270.705 137.163C270.659 135.398 269.787 133.756 268.35 132.73L268.004 132.482C267.061 131.808 265.752 132.502 265.781 133.662L266.334 155.798C266.384 157.766 267.458 159.566 269.167 160.543ZM284.636 168.98C285.588 169.524 286.768 168.819 286.74 167.723L286.173 145.6C286.128 143.835 285.256 142.194 283.819 141.168L283.473 140.92C282.529 140.245 281.221 140.94 281.25 142.099L281.803 164.237C281.853 166.205 282.927 168.004 284.636 168.98Z" fill="#E6E6E6"/>
<path d="M314.36 168.813L258.11 141.391L219.438 129.438V122.406L258.11 130.141L315.063 157.563L314.36 168.813Z" fill="#222222"/>
<g filter="url(#filter17_di_1117_49)">
<path d="M269.167 160.543C270.119 161.086 271.299 160.381 271.271 159.286L270.705 137.163C270.659 135.398 269.787 133.756 268.35 132.73L268.004 132.482C267.061 131.808 265.752 132.502 265.781 133.662L266.334 155.798C266.384 157.766 267.458 159.566 269.167 160.543ZM284.636 168.98C285.588 169.524 286.768 168.819 286.74 167.723L286.173 145.6C286.128 143.835 285.256 142.194 283.819 141.168L283.473 140.92C282.529 140.245 281.221 140.94 281.25 142.099L281.803 164.237C281.853 166.205 282.927 168.004 284.636 168.98Z" fill="#E6E6E6" fill-opacity="0.01" shape-rendering="crispEdges"/>
</g>
</g>
</g>
<path d="M189.906 135.062V138.654C189.906 141.655 191.5 144.43 194.092 145.942L244.376 175.274C252.404 179.957 262.353 179.864 270.292 175.032L318.043 145.965C320.559 144.434 322.094 141.703 322.094 138.758V135.062V150.008C322.094 152.953 320.559 155.684 318.043 157.215L270.292 186.282C262.353 191.114 252.404 191.207 244.376 186.524L194.092 157.192C191.5 155.68 189.906 152.905 189.906 149.904V135.062Z" fill="url(#paint23_linear_1117_49)"/>
<g filter="url(#filter18_di_1117_49)">
<path d="M237.783 193.808C237.755 192.713 238.935 192.008 239.887 192.551C241.596 193.528 242.671 195.328 242.72 197.295L243.273 219.432C243.302 220.592 241.995 221.286 241.051 220.612L240.704 220.364C239.267 219.337 238.396 217.696 238.351 215.931L237.783 193.808ZM222.443 184.102C222.362 182.98 223.576 182.226 224.554 182.785C226.182 183.715 227.252 185.404 227.386 187.275L229.068 210.83C229.153 212.017 227.817 212.766 226.849 212.075L226.508 211.831C225.147 210.859 224.289 209.332 224.167 207.665L222.443 184.102ZM208.509 174.389C208.376 173.244 209.617 172.442 210.618 173.014C212.175 173.904 213.229 175.49 213.432 177.271L216.269 202.235C216.406 203.445 215.045 204.246 214.054 203.539L213.733 203.309C212.441 202.386 211.598 200.959 211.415 199.381L208.509 174.389Z" fill="#E7E546"/>
</g>
<path d="M293.663 163.72L320.975 177.315C323.185 178.415 323.982 181.17 322.701 183.281L322.094 184.281L313.656 187.797L289.418 175.678C287.036 174.487 285.531 172.052 285.531 169.389V168.755C285.531 164.578 289.923 161.858 293.663 163.72Z" fill="#454545"/>
<path d="M286.938 169.315C286.938 165.208 291.26 162.536 294.934 164.373L320.024 176.918C322.913 178.363 326.312 176.262 326.312 173.031V182.875V185.024C326.312 189.205 321.912 191.925 318.172 190.055L291.519 176.728C288.711 175.324 286.938 172.454 286.938 169.315Z" fill="url(#paint24_linear_1117_49)"/>
<path d="M290.858 172.492C289.603 171.236 289.603 169.201 290.858 167.946C291.799 167.004 293.326 167.004 294.267 167.946L294.551 168.23C295.65 169.328 295.65 171.109 294.551 172.207L294.267 172.492C293.326 173.433 291.799 173.433 290.858 172.492Z" fill="url(#paint25_linear_1117_49)"/>
<g filter="url(#filter19_d_1117_49)">
<path d="M224.523 127.25C223.268 125.995 223.268 123.96 224.523 122.705C225.464 121.763 226.991 121.763 227.932 122.705L228.216 122.989C229.315 124.087 229.315 125.868 228.216 126.966L227.932 127.25C226.991 128.192 225.464 128.192 224.523 127.25Z" fill="url(#paint26_linear_1117_49)"/>
</g>
<rect x="140" y="366" width="232" height="38" fill="black"/>
<path d="M188.739 388.047C188.688 388.843 188.515 389.56 188.218 390.197C187.928 390.835 187.537 391.378 187.045 391.827C186.552 392.276 185.966 392.623 185.285 392.87C184.604 393.109 183.851 393.228 183.025 393.228C182.374 393.228 181.769 393.145 181.211 392.978C180.661 392.804 180.165 392.558 179.723 392.24C179.318 391.943 178.956 391.584 178.637 391.164C178.326 390.744 178.061 390.281 177.844 389.774C177.634 389.267 177.471 388.709 177.355 388.101C177.247 387.493 177.192 386.848 177.192 386.167V384.038C177.192 383.401 177.243 382.796 177.344 382.224C177.446 381.645 177.598 381.109 177.801 380.617C178.032 380.016 178.336 379.48 178.713 379.009C179.09 378.538 179.517 378.14 179.995 377.814C180.422 377.539 180.889 377.329 181.396 377.184C181.91 377.032 182.461 376.956 183.047 376.956C183.916 376.956 184.687 377.079 185.361 377.325C186.042 377.572 186.621 377.923 187.099 378.379C187.577 378.835 187.953 379.393 188.229 380.052C188.504 380.711 188.678 381.453 188.75 382.279H185.709C185.68 381.808 185.607 381.395 185.491 381.04C185.383 380.685 185.223 380.389 185.013 380.15C184.796 379.918 184.525 379.744 184.199 379.628C183.88 379.505 183.496 379.443 183.047 379.443C182.808 379.443 182.584 379.469 182.374 379.52C182.171 379.57 181.983 379.646 181.809 379.748C181.512 379.921 181.258 380.171 181.048 380.497C180.846 380.816 180.683 381.189 180.56 381.616C180.466 381.949 180.397 382.318 180.353 382.724C180.31 383.122 180.288 383.553 180.288 384.017V386.167C180.288 386.797 180.321 387.362 180.386 387.862C180.458 388.354 180.567 388.785 180.712 389.155C180.813 389.408 180.933 389.633 181.07 389.828C181.215 390.024 181.378 390.187 181.559 390.317C181.755 390.462 181.972 390.57 182.211 390.643C182.457 390.708 182.729 390.741 183.025 390.741C183.424 390.741 183.782 390.69 184.101 390.589C184.419 390.487 184.691 390.328 184.916 390.111C185.14 389.893 185.317 389.614 185.448 389.274C185.578 388.934 185.658 388.525 185.687 388.047H188.739ZM190.814 387.015C190.814 386.16 190.937 385.371 191.183 384.647C191.429 383.915 191.792 383.282 192.27 382.746C192.74 382.21 193.316 381.79 193.997 381.486C194.685 381.182 195.47 381.029 196.354 381.029C197.237 381.029 198.023 381.182 198.711 381.486C199.399 381.79 199.982 382.21 200.46 382.746C200.931 383.282 201.289 383.915 201.535 384.647C201.782 385.371 201.905 386.16 201.905 387.015V387.243C201.905 388.105 201.782 388.901 201.535 389.633C201.289 390.357 200.931 390.987 200.46 391.523C199.989 392.059 199.41 392.479 198.722 392.783C198.034 393.08 197.252 393.228 196.376 393.228C195.492 393.228 194.703 393.08 194.008 392.783C193.32 392.479 192.74 392.059 192.27 391.523C191.792 390.987 191.429 390.357 191.183 389.633C190.937 388.901 190.814 388.105 190.814 387.243V387.015ZM193.834 387.243C193.834 387.735 193.881 388.199 193.975 388.633C194.069 389.061 194.218 389.433 194.42 389.752C194.623 390.078 194.884 390.335 195.202 390.523C195.528 390.712 195.919 390.806 196.376 390.806C196.817 390.806 197.198 390.712 197.516 390.523C197.835 390.335 198.095 390.078 198.298 389.752C198.494 389.433 198.639 389.061 198.733 388.633C198.827 388.199 198.874 387.735 198.874 387.243V387.015C198.874 386.537 198.827 386.084 198.733 385.657C198.639 385.23 198.494 384.853 198.298 384.527C198.095 384.201 197.835 383.944 197.516 383.756C197.198 383.568 196.81 383.474 196.354 383.474C195.905 383.474 195.521 383.568 195.202 383.756C194.884 383.944 194.623 384.201 194.42 384.527C194.218 384.853 194.069 385.23 193.975 385.657C193.881 386.084 193.834 386.537 193.834 387.015V387.243ZM206.467 381.247L206.554 382.67C206.778 382.163 207.086 381.764 207.477 381.475C207.875 381.178 208.357 381.029 208.922 381.029C209.197 381.029 209.443 381.062 209.661 381.127C209.878 381.192 210.066 381.294 210.225 381.431C210.348 381.533 210.453 381.656 210.54 381.801C210.635 381.938 210.714 382.098 210.779 382.279C210.881 382.105 210.993 381.949 211.116 381.812C211.246 381.667 211.388 381.544 211.54 381.442C211.728 381.312 211.942 381.21 212.181 381.138C212.42 381.066 212.68 381.029 212.963 381.029C213.318 381.029 213.647 381.095 213.951 381.225C214.263 381.355 214.534 381.562 214.766 381.844C214.99 382.134 215.164 382.507 215.287 382.963C215.418 383.412 215.483 383.962 215.483 384.614V393H212.735V384.603C212.735 384.379 212.709 384.194 212.659 384.049C212.615 383.904 212.554 383.789 212.474 383.702C212.394 383.622 212.3 383.568 212.192 383.539C212.09 383.502 211.985 383.484 211.876 383.484C211.761 383.484 211.656 383.499 211.561 383.528C211.475 383.557 211.391 383.597 211.312 383.647C211.246 383.698 211.189 383.756 211.138 383.821C211.087 383.879 211.044 383.948 211.007 384.028C211.007 384.042 211.007 384.075 211.007 384.125C211.007 384.176 211.007 384.245 211.007 384.332V393H208.346V384.592C208.346 384.368 208.324 384.183 208.281 384.038C208.238 383.894 208.18 383.781 208.107 383.702C208.028 383.622 207.937 383.568 207.836 383.539C207.734 383.502 207.626 383.484 207.51 383.484C207.379 383.484 207.264 383.506 207.162 383.55C207.061 383.593 206.97 383.655 206.891 383.734C206.833 383.792 206.782 383.861 206.738 383.941C206.695 384.02 206.655 384.107 206.619 384.201V393H203.871V381.247H206.467ZM219.828 381.247L219.915 382.67C220.139 382.163 220.447 381.764 220.838 381.475C221.236 381.178 221.718 381.029 222.283 381.029C222.558 381.029 222.804 381.062 223.022 381.127C223.239 381.192 223.427 381.294 223.586 381.431C223.709 381.533 223.814 381.656 223.901 381.801C223.996 381.938 224.075 382.098 224.14 382.279C224.242 382.105 224.354 381.949 224.477 381.812C224.607 381.667 224.749 381.544 224.901 381.442C225.089 381.312 225.303 381.21 225.542 381.138C225.781 381.066 226.041 381.029 226.324 381.029C226.679 381.029 227.008 381.095 227.312 381.225C227.624 381.355 227.895 381.562 228.127 381.844C228.351 382.134 228.525 382.507 228.648 382.963C228.779 383.412 228.844 383.962 228.844 384.614V393H226.096V384.603C226.096 384.379 226.07 384.194 226.02 384.049C225.976 383.904 225.915 383.789 225.835 383.702C225.755 383.622 225.661 383.568 225.552 383.539C225.451 383.502 225.346 383.484 225.237 383.484C225.122 383.484 225.017 383.499 224.922 383.528C224.836 383.557 224.752 383.597 224.673 383.647C224.607 383.698 224.55 383.756 224.499 383.821C224.448 383.879 224.405 383.948 224.368 384.028C224.368 384.042 224.368 384.075 224.368 384.125C224.368 384.176 224.368 384.245 224.368 384.332V393H221.707V384.592C221.707 384.368 221.685 384.183 221.642 384.038C221.599 383.894 221.541 383.781 221.468 383.702C221.389 383.622 221.298 383.568 221.197 383.539C221.095 383.502 220.987 383.484 220.871 383.484C220.74 383.484 220.624 383.506 220.523 383.55C220.422 383.593 220.331 383.655 220.252 383.734C220.194 383.792 220.143 383.861 220.099 383.941C220.056 384.02 220.016 384.107 219.98 384.201V393H217.232V381.247H219.828ZM237.013 393.217C236.107 393.217 235.285 393.069 234.547 392.772C233.808 392.475 233.174 392.069 232.646 391.555C232.117 391.048 231.708 390.451 231.418 389.763C231.136 389.068 230.995 388.325 230.995 387.536V387.102C230.995 386.204 231.136 385.385 231.418 384.647C231.701 383.901 232.095 383.26 232.602 382.724C233.109 382.188 233.71 381.772 234.405 381.475C235.101 381.178 235.857 381.029 236.676 381.029C237.523 381.029 238.276 381.171 238.935 381.453C239.601 381.728 240.166 382.119 240.63 382.626C241.086 383.133 241.434 383.745 241.673 384.462C241.912 385.172 242.031 385.957 242.031 386.819V388.101H234.058V388.134C234.159 388.604 234.29 388.984 234.449 389.274C234.608 389.557 234.822 389.814 235.09 390.045C235.365 390.284 235.68 390.469 236.035 390.599C236.39 390.73 236.777 390.795 237.197 390.795C237.791 390.795 238.367 390.683 238.924 390.458C239.482 390.234 239.935 389.897 240.282 389.448L241.792 391.077C241.408 391.62 240.8 392.113 239.967 392.555C239.134 392.996 238.149 393.217 237.013 393.217ZM236.654 383.474C236.314 383.474 236.002 383.535 235.72 383.658C235.437 383.774 235.191 383.944 234.981 384.169C234.764 384.393 234.583 384.661 234.438 384.973C234.293 385.284 234.185 385.632 234.112 386.015H239.066V385.776C239.066 385.458 239.008 385.157 238.892 384.875C238.776 384.592 238.617 384.346 238.414 384.136C238.211 383.933 237.961 383.774 237.664 383.658C237.375 383.535 237.038 383.474 236.654 383.474ZM253.111 381.029C253.567 381.029 253.987 381.062 254.371 381.127C254.762 381.185 255.077 381.25 255.316 381.323L254.871 384.332C254.472 384.238 254.063 384.169 253.643 384.125C253.23 384.075 252.836 384.049 252.459 384.049C252.068 384.049 251.713 384.085 251.395 384.158C251.083 384.223 250.804 384.324 250.558 384.462C250.261 384.621 250.008 384.824 249.798 385.07C249.588 385.317 249.414 385.606 249.276 385.939V393H246.257V381.247H249.07L249.189 382.909L249.211 383.169C249.689 382.503 250.261 381.982 250.927 381.605C251.594 381.221 252.322 381.029 253.111 381.029ZM263.235 390.806C263.532 390.806 263.814 390.762 264.082 390.675C264.35 390.589 264.585 390.465 264.788 390.306C264.991 390.147 265.147 389.955 265.255 389.73C265.371 389.506 265.422 389.256 265.407 388.981H268.253C268.268 389.589 268.141 390.154 267.873 390.675C267.612 391.197 267.254 391.646 266.798 392.022C266.342 392.399 265.809 392.696 265.201 392.913C264.6 393.123 263.963 393.228 263.289 393.228C262.377 393.228 261.576 393.076 260.888 392.772C260.201 392.46 259.628 392.037 259.172 391.501C258.709 390.965 258.358 390.339 258.119 389.622C257.887 388.898 257.771 388.123 257.771 387.297V386.971C257.771 386.146 257.887 385.374 258.119 384.658C258.35 383.933 258.698 383.303 259.161 382.767C259.625 382.232 260.197 381.808 260.878 381.497C261.566 381.185 262.362 381.029 263.267 381.029C263.992 381.029 264.661 381.138 265.277 381.355C265.893 381.573 266.425 381.877 266.874 382.268C267.316 382.666 267.659 383.148 267.906 383.712C268.152 384.27 268.268 384.897 268.253 385.592H265.407C265.422 385.302 265.378 385.027 265.277 384.766C265.176 384.505 265.027 384.281 264.832 384.093C264.636 383.904 264.401 383.756 264.126 383.647C263.85 383.531 263.55 383.474 263.224 383.474C262.746 383.474 262.351 383.571 262.04 383.767C261.729 383.962 261.482 384.223 261.301 384.549C261.113 384.875 260.979 385.248 260.899 385.668C260.827 386.088 260.791 386.522 260.791 386.971V387.297C260.791 387.753 260.827 388.195 260.899 388.622C260.972 389.042 261.102 389.412 261.29 389.73C261.471 390.056 261.718 390.317 262.029 390.512C262.348 390.708 262.75 390.806 263.235 390.806ZM277.095 393.217C276.19 393.217 275.368 393.069 274.63 392.772C273.891 392.475 273.257 392.069 272.729 391.555C272.2 391.048 271.791 390.451 271.501 389.763C271.219 389.068 271.078 388.325 271.078 387.536V387.102C271.078 386.204 271.219 385.385 271.501 384.647C271.784 383.901 272.178 383.26 272.685 382.724C273.192 382.188 273.793 381.772 274.488 381.475C275.184 381.178 275.94 381.029 276.759 381.029C277.606 381.029 278.359 381.171 279.018 381.453C279.684 381.728 280.249 382.119 280.713 382.626C281.169 383.133 281.517 383.745 281.756 384.462C281.994 385.172 282.114 385.957 282.114 386.819V388.101H274.141V388.134C274.242 388.604 274.373 388.984 274.532 389.274C274.691 389.557 274.905 389.814 275.173 390.045C275.448 390.284 275.763 390.469 276.118 390.599C276.473 390.73 276.86 390.795 277.28 390.795C277.874 390.795 278.45 390.683 279.007 390.458C279.565 390.234 280.018 389.897 280.365 389.448L281.875 391.077C281.491 391.62 280.883 392.113 280.05 392.555C279.217 392.996 278.232 393.217 277.095 393.217ZM276.737 383.474C276.397 383.474 276.085 383.535 275.803 383.658C275.52 383.774 275.274 383.944 275.064 384.169C274.847 384.393 274.666 384.661 274.521 384.973C274.376 385.284 274.268 385.632 274.195 386.015H279.148V385.776C279.148 385.458 279.091 385.157 278.975 384.875C278.859 384.592 278.7 384.346 278.497 384.136C278.294 383.933 278.044 383.774 277.747 383.658C277.458 383.535 277.121 383.474 276.737 383.474ZM302.72 386.504L301.047 388.34V393H297.984V377.184H301.047V384.429L302.481 382.496L306.327 377.184H310.063L304.741 384.18L310.259 393H306.631L302.72 386.504ZM312.279 381.247H318.677V390.545H321.86V393H312.279V390.545H315.625V383.712H312.279V381.247ZM315.408 378.238C315.408 378.006 315.448 377.792 315.527 377.597C315.614 377.394 315.734 377.22 315.886 377.075C316.038 376.938 316.219 376.829 316.429 376.75C316.646 376.67 316.885 376.63 317.146 376.63C317.682 376.63 318.105 376.782 318.417 377.086C318.735 377.383 318.895 377.767 318.895 378.238C318.895 378.708 318.735 379.096 318.417 379.4C318.105 379.697 317.682 379.845 317.146 379.845C316.885 379.845 316.646 379.806 316.429 379.726C316.219 379.646 316.038 379.534 315.886 379.389C315.734 379.252 315.614 379.085 315.527 378.89C315.448 378.687 315.408 378.469 315.408 378.238ZM330.376 378.368V381.247H334.765V383.474H330.376V388.525C330.376 388.952 330.424 389.31 330.518 389.6C330.619 389.882 330.76 390.107 330.941 390.273C331.122 390.447 331.34 390.57 331.593 390.643C331.854 390.715 332.143 390.751 332.462 390.751C332.694 390.751 332.929 390.741 333.168 390.719C333.414 390.697 333.65 390.668 333.874 390.632C334.091 390.603 334.294 390.57 334.483 390.534C334.678 390.498 334.845 390.462 334.982 390.426L335.275 392.5C335.065 392.623 334.819 392.732 334.537 392.826C334.254 392.913 333.954 392.986 333.635 393.043C333.317 393.101 332.983 393.145 332.636 393.174C332.296 393.21 331.959 393.228 331.626 393.228C330.981 393.228 330.395 393.145 329.866 392.978C329.344 392.804 328.899 392.537 328.53 392.174C328.153 391.82 327.864 391.367 327.661 390.817C327.458 390.259 327.357 389.593 327.357 388.818V383.474H324.674V381.247H327.357V378.368H330.376Z" fill="white"/>
<path d="M139.553 404.639H144.883V408.191H136V399.309H139.553V404.639ZM375.883 399.309V408.191H367V404.639H372.33V399.309H375.883ZM144.883 365.553H139.553V370.883H136V362H144.883V365.553ZM375.883 370.883H372.33V365.553H367V362H375.883V370.883Z" fill="#FFFB0D"/>
<path d="M371.433 332.983L368.945 330.554C368.722 330.336 368.34 330.336 368.116 330.554L364.832 333.885C364.481 332.983 363.939 332.111 363.269 331.239L356.988 323.892C356.764 323.643 356.382 323.612 356.127 323.861L341.522 338.648C339.131 340.983 335.24 340.983 332.817 338.648C330.425 336.314 330.425 332.516 332.817 330.15C334.635 328.375 337.313 327.939 339.545 328.842L333.901 334.383C333.678 334.601 333.678 334.975 333.901 335.193L336.388 337.621C336.612 337.839 336.994 337.839 337.217 337.621L346.082 328.935C346.305 328.718 346.305 328.344 346.082 328.126L344.838 326.912C340.629 322.803 333.805 322.803 329.596 326.85L316.395 340.236C316.299 340.298 316.235 340.361 316.108 340.361C315.917 340.361 315.757 340.205 315.757 340.018V328.624L321.593 322.522L321.688 322.429C322.868 321.277 323.506 319.752 323.506 318.102C323.506 316.483 322.868 314.926 321.688 313.774C319.265 311.409 315.279 311.409 312.855 313.774C311.676 314.926 311.006 316.452 311.006 318.102V326.819L299.526 338.68C297.039 341.108 292.958 341.014 290.598 338.431C288.621 336.282 288.525 333.014 290.311 330.741L290.789 330.212C293.053 327.97 296.689 327.815 299.112 329.807C299.335 329.994 299.686 329.994 299.909 329.776L302.396 327.348C302.651 327.099 302.62 326.725 302.364 326.507C298.123 322.803 291.587 322.958 287.505 326.912C287.218 327.192 286.931 327.503 286.676 327.815L275.547 340.143L275.452 340.236C275.388 340.33 275.292 340.361 275.165 340.361C274.973 340.361 274.814 340.205 274.814 340.018V334.446C274.814 328.624 269.967 323.861 263.972 323.861C261.007 323.861 258.36 325.013 256.383 326.881L243.181 340.267C243.086 340.33 243.022 340.392 242.894 340.392C242.703 340.392 242.544 340.236 242.544 340.049V329.153H248.73C249.049 329.153 249.304 328.904 249.304 328.593V325.169C249.304 324.857 249.049 324.608 248.73 324.608H242.544V314.677C242.544 314.335 242.257 314.086 241.906 314.117L238.398 314.397C238.111 314.428 237.856 314.677 237.856 314.957V329.06L228.418 338.68C226.026 341.014 222.136 341.014 219.712 338.68C217.321 336.345 217.321 332.547 219.712 330.212C221.976 328.002 225.611 327.877 228.003 329.869C228.226 330.056 228.577 330.056 228.8 329.838L231.287 327.41C231.543 327.161 231.511 326.787 231.256 326.569C227.015 322.865 220.478 323.021 216.396 326.974L216.364 327.005L204.63 338.711C202.238 341.046 198.348 341.046 195.924 338.711C193.533 336.376 193.533 332.578 195.924 330.212C197.742 328.437 200.42 328.002 202.653 328.904L197.008 334.446C196.785 334.664 196.785 335.037 197.008 335.255L199.496 337.683C199.719 337.901 200.102 337.901 200.325 337.683L209.189 328.998C209.413 328.78 209.413 328.406 209.189 328.188L207.946 326.974C203.737 322.865 196.849 322.865 192.64 326.974L192.608 327.005L186.645 332.671C185.816 327.939 181.734 324.235 176.76 323.923C173.571 323.705 170.638 324.857 168.501 326.819L161.869 333.169C160.848 328.842 156.83 325.636 152.015 325.636C149.369 325.636 147.2 323.612 147.2 321.121C147.2 318.631 149.369 316.607 152.015 316.607C154.407 316.607 156.384 318.257 156.735 320.374C156.798 320.686 157.054 320.872 157.372 320.872L160.88 320.592C161.199 320.561 161.454 320.281 161.422 319.938C160.816 315.456 156.83 312 152.015 312C146.786 312 142.545 316.078 142.545 321.09C142.545 326.103 146.786 330.181 152.015 330.181C155.013 330.181 157.436 332.484 157.436 335.286C157.436 338.119 155.013 340.392 152.015 340.392C149.337 340.392 147.105 338.524 146.69 336.096C146.626 335.784 146.371 335.598 146.052 335.598L142.545 335.878C142.226 335.909 141.971 336.189 142.003 336.532C142.672 341.263 146.881 344.937 152.015 344.937C154.726 344.937 157.149 343.91 158.967 342.26C159.062 342.166 159.19 342.073 159.286 341.948L165.153 336.345V352.44C165.153 352.751 165.408 353 165.727 353H169.235C169.553 353 169.809 352.751 169.809 352.44V334.446H169.84C169.84 331.021 172.774 328.282 176.314 328.437C179.407 328.593 181.958 331.084 182.117 334.103C182.308 337.372 179.757 340.143 176.505 340.423C176.218 340.454 175.963 340.703 175.963 340.983V344.408C175.963 344.75 176.25 344.999 176.601 344.968C179.311 344.812 181.734 343.692 183.552 341.948L189.642 336.158C189.993 338.244 191.014 340.267 192.64 341.886C194.744 343.941 197.519 344.968 200.293 344.968C203.067 344.968 205.841 343.941 207.946 341.886L213.43 336.438C213.813 338.431 214.802 340.361 216.396 341.886C218.501 343.941 221.275 344.968 224.049 344.968C226.823 344.968 229.597 343.941 231.702 341.886L237.824 335.598V339.894C237.824 342.633 240.056 344.937 242.831 344.937C244.329 344.937 245.764 344.314 246.721 343.194L253.385 336.532C254.374 341.357 258.774 344.999 264.004 344.999C266.619 344.999 269.01 344.096 270.86 342.602C271.753 344.034 273.347 344.999 275.165 344.999C276.695 344.999 278.13 344.345 279.087 343.194L284.667 337.03C285.113 338.835 286.07 340.516 287.505 341.917C289.61 343.972 292.384 344.999 295.158 344.999C297.932 344.999 300.706 343.972 302.811 341.917L311.102 332.92L311.006 339.925C311.006 342.664 313.238 344.968 316.012 344.968C317.511 344.968 318.946 344.345 319.903 343.225L326.535 336.532C326.95 338.524 327.938 340.392 329.501 341.917C331.605 343.972 334.379 344.999 337.154 344.999C339.928 344.999 342.702 343.972 344.807 341.917L356.095 330.274L359.539 334.072L359.57 334.134C361.037 335.94 361.133 337.497 359.794 339.022C359.124 339.8 358.231 340.33 357.211 340.423C356.286 340.516 355.361 340.267 354.628 339.738C354.405 339.551 354.054 339.582 353.863 339.769L351.375 342.197C351.12 342.446 351.152 342.82 351.407 343.038C352.938 344.314 354.819 344.999 356.86 344.999C359.092 344.999 361.197 344.159 362.759 342.602L371.433 333.792C371.656 333.574 371.656 333.232 371.433 332.983ZM264.004 340.423C260.624 340.423 257.85 337.746 257.85 334.415C257.85 331.115 260.592 328.406 264.004 328.406C267.384 328.406 270.158 331.084 270.158 334.415C270.158 337.746 267.416 340.423 264.004 340.423ZM315.693 318.102C315.693 317.697 315.853 317.292 316.14 317.012C316.746 316.421 317.766 316.421 318.404 317.012C318.691 317.292 318.882 317.697 318.882 318.102C318.882 318.444 318.755 318.756 318.563 319.036L315.311 323.238L315.693 318.102Z" fill="black"/>
</g>
<defs>
<filter id="filter0_f_1117_49" x="-37.4196" y="-8.41951" width="206.69" height="206.69" filterUnits="userSpaceOnUse" color-interpolation-filters="sRGB">
<feFlood flood-opacity="0" result="BackgroundImageFix"/>
<feBlend mode="normal" in="SourceGraphic" in2="BackgroundImageFix" result="shape"/>
<feGaussianBlur stdDeviation="7.4" result="effect1_foregroundBlur_1117_49"/>
</filter>
<filter id="filter1_i_1117_49" x="-27.3416" y="1.65857" width="181.812" height="181.812" filterUnits="userSpaceOnUse" color-interpolation-filters="sRGB">
<feFlood flood-opacity="0" result="BackgroundImageFix"/>
<feBlend mode="normal" in="SourceGraphic" in2="BackgroundImageFix" result="shape"/>
<feColorMatrix in="SourceAlpha" type="matrix" values="0 0 0 0 0 0 0 0 0 0 0 0 0 0 0 0 0 0 127 0" result="hardAlpha"/>
<feOffset dx="-4.72192" dy="-4.72192"/>
<feGaussianBlur stdDeviation="8.8536"/>
<feComposite in2="hardAlpha" operator="arithmetic" k2="-1" k3="1"/>
<feColorMatrix type="matrix" values="0 0 0 0 1 0 0 0 0 1 0 0 0 0 1 0 0 0 0.159732 0"/>
<feBlend mode="normal" in2="shape" result="effect1_innerShadow_1117_49"/>
</filter>
<filter id="filter2_f_1117_49" x="53.3954" y="81.2733" width="126.276" height="123.796" filterUnits="userSpaceOnUse" color-interpolation-filters="sRGB">
<feFlood flood-opacity="0" result="BackgroundImageFix"/>
<feBlend mode="normal" in="SourceGraphic" in2="BackgroundImageFix" result="shape"/>
<feGaussianBlur stdDeviation="15.5699" result="effect1_foregroundBlur_1117_49"/>
</filter>
<filter id="filter3_f_1117_49" x="278.713" y="80.7127" width="280.867" height="280.867" filterUnits="userSpaceOnUse" color-interpolation-filters="sRGB">
<feFlood flood-opacity="0" result="BackgroundImageFix"/>
<feBlend mode="normal" in="SourceGraphic" in2="BackgroundImageFix" result="shape"/>
<feGaussianBlur stdDeviation="16.1405" result="effect1_foregroundBlur_1117_49"/>
</filter>
<filter id="filter4_i_1117_49" x="305.227" y="107.226" width="222.072" height="222.073" filterUnits="userSpaceOnUse" color-interpolation-filters="sRGB">
<feFlood flood-opacity="0" result="BackgroundImageFix"/>
<feBlend mode="normal" in="SourceGraphic" in2="BackgroundImageFix" result="shape"/>
<feColorMatrix in="SourceAlpha" type="matrix" values="0 0 0 0 0 0 0 0 0 0 0 0 0 0 0 0 0 0 127 0" result="hardAlpha"/>
<feOffset dx="-5.76755" dy="-5.76755"/>
<feGaussianBlur stdDeviation="10.8142"/>
<feComposite in2="hardAlpha" operator="arithmetic" k2="-1" k3="1"/>
<feColorMatrix type="matrix" values="0 0 0 0 1 0 0 0 0 1 0 0 0 0 1 0 0 0 0.159732 0"/>
<feBlend mode="normal" in2="shape" result="effect1_innerShadow_1117_49"/>
</filter>
<filter id="filter5_f_1117_49" x="403.842" y="204.471" width="154.239" height="151.21" filterUnits="userSpaceOnUse" color-interpolation-filters="sRGB">
<feFlood flood-opacity="0" result="BackgroundImageFix"/>
<feBlend mode="normal" in="SourceGraphic" in2="BackgroundImageFix" result="shape"/>
<feGaussianBlur stdDeviation="19.0177" result="effect1_foregroundBlur_1117_49"/>
</filter>
<filter id="filter6_f_1117_49" x="177.953" y="130.397" width="180" height="123.25" filterUnits="userSpaceOnUse" color-interpolation-filters="sRGB">
<feFlood flood-opacity="0" result="BackgroundImageFix"/>
<feBlend mode="normal" in="SourceGraphic" in2="BackgroundImageFix" result="shape"/>
<feGaussianBlur stdDeviation="8.08594" result="effect1_foregroundBlur_1117_49"/>
</filter>
<filter id="filter7_f_1117_49" x="196.234" y="154.36" width="134.549" height="82.5386" filterUnits="userSpaceOnUse" color-interpolation-filters="sRGB">
<feFlood flood-opacity="0" result="BackgroundImageFix"/>
<feBlend mode="normal" in="SourceGraphic" in2="BackgroundImageFix" result="shape"/>
<feGaussianBlur stdDeviation="1.40625" result="effect1_foregroundBlur_1117_49"/>
</filter>
<filter id="filter8_f_1117_49" x="236.312" y="167.406" width="15.4688" height="69.6094" filterUnits="userSpaceOnUse" color-interpolation-filters="sRGB">
<feFlood flood-opacity="0" result="BackgroundImageFix"/>
<feBlend mode="normal" in="SourceGraphic" in2="BackgroundImageFix" result="shape"/>
<feGaussianBlur stdDeviation="1.40625" result="effect1_foregroundBlur_1117_49"/>
</filter>
<filter id="filter9_f_1117_49" x="191.875" y="142.656" width="128.25" height="61.459" filterUnits="userSpaceOnUse" color-interpolation-filters="sRGB">
<feFlood flood-opacity="0" result="BackgroundImageFix"/>
<feBlend mode="normal" in="SourceGraphic" in2="BackgroundImageFix" result="shape"/>
<feGaussianBlur stdDeviation="1.82812" result="effect1_foregroundBlur_1117_49"/>
</filter>
<filter id="filter10_f_1117_49" x="191.875" y="142.656" width="128.25" height="52.7217" filterUnits="userSpaceOnUse" color-interpolation-filters="sRGB">
<feFlood flood-opacity="0" result="BackgroundImageFix"/>
<feBlend mode="normal" in="SourceGraphic" in2="BackgroundImageFix" result="shape"/>
<feGaussianBlur stdDeviation="1.82812" result="effect1_foregroundBlur_1117_49"/>
</filter>
<filter id="filter11_di_1117_49" x="271.538" y="172.825" width="34.7749" height="49.4576" filterUnits="userSpaceOnUse" color-interpolation-filters="sRGB">
<feFlood flood-opacity="0" result="BackgroundImageFix"/>
<feColorMatrix in="SourceAlpha" type="matrix" values="0 0 0 0 0 0 0 0 0 0 0 0 0 0 0 0 0 0 127 0" result="hardAlpha"/>
<feOffset dy="1.40625"/>
<feComposite in2="hardAlpha" operator="out"/>
<feColorMatrix type="matrix" values="0 0 0 0 1 0 0 0 0 1 0 0 0 0 1 0 0 0 0.25 0"/>
<feBlend mode="normal" in2="BackgroundImageFix" result="effect1_dropShadow_1117_49"/>
<feBlend mode="normal" in="SourceGraphic" in2="effect1_dropShadow_1117_49" result="shape"/>
<feColorMatrix in="SourceAlpha" type="matrix" values="0 0 0 0 0 0 0 0 0 0 0 0 0 0 0 0 0 0 127 0" result="hardAlpha"/>
<feOffset dx="-2.8125"/>
<feComposite in2="hardAlpha" operator="arithmetic" k2="-1" k3="1"/>
<feColorMatrix type="matrix" values="0 0 0 0 0.797213 0 0 0 0 0.793599 0 0 0 0 0.139446 0 0 0 1 0"/>
<feBlend mode="normal" in2="shape" result="effect2_innerShadow_1117_49"/>
</filter>
<filter id="filter12_f_1117_49" x="282.438" y="161.739" width="41.896" height="36.6472" filterUnits="userSpaceOnUse" color-interpolation-filters="sRGB">
<feFlood flood-opacity="0" result="BackgroundImageFix"/>
<feBlend mode="normal" in="SourceGraphic" in2="BackgroundImageFix" result="shape"/>
<feGaussianBlur stdDeviation="1.89844" result="effect1_foregroundBlur_1117_49"/>
</filter>
<filter id="filter13_i_1117_49" x="189.906" y="97.307" width="132.188" height="81.4153" filterUnits="userSpaceOnUse" color-interpolation-filters="sRGB">
<feFlood flood-opacity="0" result="BackgroundImageFix"/>
<feBlend mode="normal" in="SourceGraphic" in2="BackgroundImageFix" result="shape"/>
<feColorMatrix in="SourceAlpha" type="matrix" values="0 0 0 0 0 0 0 0 0 0 0 0 0 0 0 0 0 0 127 0" result="hardAlpha"/>
<feOffset/>
<feGaussianBlur stdDeviation="2.10938"/>
<feComposite in2="hardAlpha" operator="arithmetic" k2="-1" k3="1"/>
<feColorMatrix type="matrix" values="0 0 0 0 1 0 0 0 0 1 0 0 0 0 1 0 0 0 1 0"/>
<feBlend mode="normal" in2="shape" result="effect1_innerShadow_1117_49"/>
</filter>
<filter id="filter14_f_1117_49" x="253.188" y="88.6562" width="21.0938" height="70.3125" filterUnits="userSpaceOnUse" color-interpolation-filters="sRGB">
<feFlood flood-opacity="0" result="BackgroundImageFix"/>
<feBlend mode="normal" in="SourceGraphic" in2="BackgroundImageFix" result="shape"/>
<feGaussianBlur stdDeviation="1.40625" result="effect1_foregroundBlur_1117_49"/>
</filter>
<filter id="filter15_di_1117_49" x="195.525" y="114.105" width="121.177" height="71.5409" filterUnits="userSpaceOnUse" color-interpolation-filters="sRGB">
<feFlood flood-opacity="0" result="BackgroundImageFix"/>
<feColorMatrix in="SourceAlpha" type="matrix" values="0 0 0 0 0 0 0 0 0 0 0 0 0 0 0 0 0 0 127 0" result="hardAlpha"/>
<feOffset/>
<feGaussianBlur stdDeviation="1.33594"/>
<feComposite in2="hardAlpha" operator="out"/>
<feColorMatrix type="matrix" values="0 0 0 0 1 0 0 0 0 1 0 0 0 0 1 0 0 0 0.5 0"/>
<feBlend mode="normal" in2="BackgroundImageFix" result="effect1_dropShadow_1117_49"/>
<feBlend mode="normal" in="SourceGraphic" in2="effect1_dropShadow_1117_49" result="shape"/>
<feColorMatrix in="SourceAlpha" type="matrix" values="0 0 0 0 0 0 0 0 0 0 0 0 0 0 0 0 0 0 127 0" result="hardAlpha"/>
<feOffset dy="2.8125"/>
<feGaussianBlur stdDeviation="2.8125"/>
<feComposite in2="hardAlpha" operator="arithmetic" k2="-1" k3="1"/>
<feColorMatrix type="matrix" values="0 0 0 0 0 0 0 0 0 0 0 0 0 0 0 0 0 0 0.25 0"/>
<feBlend mode="normal" in2="shape" result="effect2_innerShadow_1117_49"/>
</filter>
<filter id="filter16_di_1117_49" x="225.063" y="132.217" width="20.96" height="38.3561" filterUnits="userSpaceOnUse" color-interpolation-filters="sRGB">
<feFlood flood-opacity="0" result="BackgroundImageFix"/>
<feColorMatrix in="SourceAlpha" type="matrix" values="0 0 0 0 0 0 0 0 0 0 0 0 0 0 0 0 0 0 127 0" result="hardAlpha"/>
<feOffset dy="1.40625"/>
<feComposite in2="hardAlpha" operator="out"/>
<feColorMatrix type="matrix" values="0 0 0 0 1 0 0 0 0 1 0 0 0 0 1 0 0 0 0.25 0"/>
<feBlend mode="normal" in2="BackgroundImageFix" result="effect1_dropShadow_1117_49"/>
<feBlend mode="normal" in="SourceGraphic" in2="effect1_dropShadow_1117_49" result="shape"/>
<feColorMatrix in="SourceAlpha" type="matrix" values="0 0 0 0 0 0 0 0 0 0 0 0 0 0 0 0 0 0 127 0" result="hardAlpha"/>
<feOffset dx="-1.40625"/>
<feComposite in2="hardAlpha" operator="arithmetic" k2="-1" k3="1"/>
<feColorMatrix type="matrix" values="0 0 0 0 0.797213 0 0 0 0 0.793599 0 0 0 0 0.139446 0 0 0 1 0"/>
<feBlend mode="normal" in2="shape" result="effect2_innerShadow_1117_49"/>
</filter>
<filter id="filter17_di_1117_49" x="265.78" y="132.217" width="20.96" height="38.3564" filterUnits="userSpaceOnUse" color-interpolation-filters="sRGB">
<feFlood flood-opacity="0" result="BackgroundImageFix"/>
<feColorMatrix in="SourceAlpha" type="matrix" values="0 0 0 0 0 0 0 0 0 0 0 0 0 0 0 0 0 0 127 0" result="hardAlpha"/>
<feOffset dy="1.40625"/>
<feComposite in2="hardAlpha" operator="out"/>
<feColorMatrix type="matrix" values="0 0 0 0 1 0 0 0 0 1 0 0 0 0 1 0 0 0 0.25 0"/>
<feBlend mode="normal" in2="BackgroundImageFix" result="effect1_dropShadow_1117_49"/>
<feBlend mode="normal" in="SourceGraphic" in2="effect1_dropShadow_1117_49" result="shape"/>
<feColorMatrix in="SourceAlpha" type="matrix" values="0 0 0 0 0 0 0 0 0 0 0 0 0 0 0 0 0 0 127 0" result="hardAlpha"/>
<feOffset dx="1.40625"/>
<feComposite in2="hardAlpha" operator="arithmetic" k2="-1" k3="1"/>
<feColorMatrix type="matrix" values="0 0 0 0 0.692533 0 0 0 0 0.689107 0 0 0 0 0.0690998 0 0 0 1 0"/>
<feBlend mode="normal" in2="shape" result="effect2_innerShadow_1117_49"/>
</filter>
<filter id="filter18_di_1117_49" x="208.499" y="172.825" width="36.1812" height="49.4576" filterUnits="userSpaceOnUse" color-interpolation-filters="sRGB">
<feFlood flood-opacity="0" result="BackgroundImageFix"/>
<feColorMatrix in="SourceAlpha" type="matrix" values="0 0 0 0 0 0 0 0 0 0 0 0 0 0 0 0 0 0 127 0" result="hardAlpha"/>
<feOffset dx="1.40625" dy="1.40625"/>
<feComposite in2="hardAlpha" operator="out"/>
<feColorMatrix type="matrix" values="0 0 0 0 1 0 0 0 0 1 0 0 0 0 1 0 0 0 0.5 0"/>
<feBlend mode="normal" in2="BackgroundImageFix" result="effect1_dropShadow_1117_49"/>
<feBlend mode="normal" in="SourceGraphic" in2="effect1_dropShadow_1117_49" result="shape"/>
<feColorMatrix in="SourceAlpha" type="matrix" values="0 0 0 0 0 0 0 0 0 0 0 0 0 0 0 0 0 0 127 0" result="hardAlpha"/>
<feOffset dx="2.8125"/>
<feComposite in2="hardAlpha" operator="arithmetic" k2="-1" k3="1"/>
<feColorMatrix type="matrix" values="0 0 0 0 0.709867 0 0 0 0 0.706883 0 0 0 0 0.166842 0 0 0 1 0"/>
<feBlend mode="normal" in2="shape" result="effect2_innerShadow_1117_49"/>
</filter>
<filter id="filter19_d_1117_49" x="222.175" y="121.999" width="6.86475" height="5.95789" filterUnits="userSpaceOnUse" color-interpolation-filters="sRGB">
<feFlood flood-opacity="0" result="BackgroundImageFix"/>
<feColorMatrix in="SourceAlpha" type="matrix" values="0 0 0 0 0 0 0 0 0 0 0 0 0 0 0 0 0 0 127 0" result="hardAlpha"/>
<feOffset dx="-1.40625"/>
<feComposite in2="hardAlpha" operator="out"/>
<feColorMatrix type="matrix" values="0 0 0 0 0 0 0 0 0 0 0 0 0 0 0 0 0 0 0.25 0"/>
<feBlend mode="normal" in2="BackgroundImageFix" result="effect1_dropShadow_1117_49"/>
<feBlend mode="normal" in="SourceGraphic" in2="effect1_dropShadow_1117_49" result="shape"/>
</filter>
<linearGradient id="paint0_linear_1117_49" x1="256" y1="0" x2="256" y2="512" gradientUnits="userSpaceOnUse">
<stop stop-color="#1E2329"/>
<stop offset="1"/>
</linearGradient>
<linearGradient id="paint1_linear_1117_49" x1="387.5" y1="63" x2="369.423" y2="454.325" gradientUnits="userSpaceOnUse">
<stop stop-color="#C9C9C9"/>
<stop offset="1" stop-color="#FBFBFB"/>
</linearGradient>
<linearGradient id="paint2_linear_1117_49" x1="-30.115" y1="-51.2064" x2="-76.5278" y2="188.481" gradientUnits="userSpaceOnUse">
<stop stop-color="white"/>
<stop offset="1" stop-color="#0C0F11"/>
</linearGradient>
<radialGradient id="paint3_radial_1117_49" cx="0" cy="0" r="1" gradientUnits="userSpaceOnUse" gradientTransform="translate(81.5032 32.597) rotate(164.799) scale(94.6102 69.0141)">
<stop stop-color="white" stop-opacity="0.838032"/>
<stop offset="1" stop-color="#A7B6C0" stop-opacity="0.137964"/>
</radialGradient>
<radialGradient id="paint4_radial_1117_49" cx="0" cy="0" r="1" gradientTransform="matrix(-35.6363 13.226 -3.14018 -21.0701 118.771 116.759)" gradientUnits="userSpaceOnUse">
<stop stop-color="white" stop-opacity="0.838032"/>
<stop offset="1" stop-color="#A7B6C0" stop-opacity="0.137964"/>
</radialGradient>
<linearGradient id="paint5_linear_1117_49" x1="301.839" y1="42.6547" x2="245.148" y2="335.418" gradientUnits="userSpaceOnUse">
<stop stop-color="white"/>
<stop offset="1" stop-color="#0C0F11"/>
</linearGradient>
<radialGradient id="paint6_radial_1117_49" cx="0" cy="0" r="1" gradientUnits="userSpaceOnUse" gradientTransform="translate(438.174 145.016) rotate(164.799) scale(115.561 84.2967)">
<stop stop-color="white" stop-opacity="0.838032"/>
<stop offset="1" stop-color="#A7B6C0" stop-opacity="0.137964"/>
</radialGradient>
<radialGradient id="paint7_radial_1117_49" cx="0" cy="0" r="1" gradientTransform="matrix(-43.5277 16.1547 -3.83555 -25.7359 483.694 247.815)" gradientUnits="userSpaceOnUse">
<stop stop-color="white" stop-opacity="0.838032"/>
<stop offset="1" stop-color="#A7B6C0" stop-opacity="0.137964"/>
</radialGradient>
<linearGradient id="paint8_linear_1117_49" x1="292.562" y1="139.281" x2="186.391" y2="245.453" gradientUnits="userSpaceOnUse">
<stop offset="0.403518" stop-color="#C7C7C7"/>
<stop offset="1" stop-color="white"/>
</linearGradient>
<linearGradient id="paint9_linear_1117_49" x1="227.172" y1="225.766" x2="315.063" y2="174.437" gradientUnits="userSpaceOnUse">
<stop stop-color="#9A9A9A"/>
<stop offset="1" stop-color="#525252"/>
</linearGradient>
<linearGradient id="paint10_linear_1117_49" x1="227.172" y1="225.766" x2="328.422" y2="186.391" gradientUnits="userSpaceOnUse">
<stop offset="0.809204" stop-color="#9A9A9A"/>
<stop offset="1" stop-color="#525252" stop-opacity="0"/>
</linearGradient>
<linearGradient id="paint11_linear_1117_49" x1="324.906" y1="175.141" x2="313.656" y2="171.625" gradientUnits="userSpaceOnUse">
<stop stop-color="#707070"/>
<stop offset="1"/>
</linearGradient>
<linearGradient id="paint12_linear_1117_49" x1="326.312" y1="158.969" x2="305.922" y2="187.797" gradientUnits="userSpaceOnUse">
<stop/>
<stop offset="1" stop-color="#666666"/>
</linearGradient>
<linearGradient id="paint13_linear_1117_49" x1="197.641" y1="177.25" x2="317.875" y2="177.25" gradientUnits="userSpaceOnUse">
<stop stop-color="#FFFFCF"/>
<stop offset="0.0576923" stop-color="#FFFE49"/>
<stop offset="0.401369" stop-color="#FFFE49"/>
<stop offset="0.626445" stop-color="#BAB927"/>
<stop offset="0.879808" stop-color="#BAB927"/>
<stop offset="1" stop-color="#E1E030"/>
</linearGradient>
<linearGradient id="paint14_linear_1117_49" x1="197.641" y1="177.25" x2="317.875" y2="177.25" gradientUnits="userSpaceOnUse">
<stop stop-color="#FFFFCF"/>
<stop offset="0.0576923" stop-color="#FFFE49"/>
<stop offset="0.401369" stop-color="#FFFE49"/>
<stop offset="0.626445" stop-color="#BAB927"/>
<stop offset="0.879808" stop-color="#BAB927"/>
<stop offset="1" stop-color="#E1E030"/>
</linearGradient>
<linearGradient id="paint15_linear_1117_49" x1="199.047" y1="161.781" x2="266.547" y2="194.125" gradientUnits="userSpaceOnUse">
<stop stop-color="#F0EF43"/>
<stop offset="1" stop-color="#B3B21D"/>
</linearGradient>
<linearGradient id="paint16_linear_1117_49" x1="199.047" y1="161.781" x2="266.547" y2="194.125" gradientUnits="userSpaceOnUse">
<stop stop-color="#B9B816"/>
<stop offset="1" stop-color="#919007"/>
</linearGradient>
<linearGradient id="paint17_linear_1117_49" x1="189.906" y1="135.063" x2="324.203" y2="137.875" gradientUnits="userSpaceOnUse">
<stop stop-color="#FFFE9A"/>
<stop offset="0.540731" stop-color="#FEFD5F"/>
</linearGradient>
<linearGradient id="paint18_linear_1117_49" x1="196.283" y1="125.132" x2="319.314" y2="125.132" gradientUnits="userSpaceOnUse">
<stop stop-color="#BAB927"/>
<stop offset="0.400224" stop-color="#BAB927"/>
<stop offset="0.598631" stop-color="#D1D03D"/>
<stop offset="1" stop-color="#C5C429"/>
</linearGradient>
<linearGradient id="paint19_linear_1117_49" x1="196.283" y1="125.132" x2="319.314" y2="125.132" gradientUnits="userSpaceOnUse">
<stop stop-color="#BAB927"/>
<stop offset="0.400224" stop-color="#BAB927"/>
<stop offset="0.598631" stop-color="#D1D03D"/>
<stop offset="1" stop-color="#C5C429"/>
</linearGradient>
<linearGradient id="paint20_linear_1117_49" x1="258.109" y1="119.594" x2="271.469" y2="121" gradientUnits="userSpaceOnUse">
<stop stop-color="#FEFE6B"/>
<stop offset="1" stop-color="#FEFE6B" stop-opacity="0"/>
</linearGradient>
<linearGradient id="paint21_linear_1117_49" x1="196.283" y1="137.788" x2="319.314" y2="137.788" gradientUnits="userSpaceOnUse">
<stop stop-color="#7F7F13"/>
<stop offset="0.400224" stop-color="#9A991E"/>
<stop offset="0.598631" stop-color="#D1D03D"/>
<stop offset="1" stop-color="#C5C429"/>
</linearGradient>
<linearGradient id="paint22_linear_1117_49" x1="264.438" y1="173.734" x2="248.266" y2="174.438" gradientUnits="userSpaceOnUse">
<stop stop-color="#DAD922"/>
<stop offset="1" stop-color="#B9B82E"/>
</linearGradient>
<linearGradient id="paint23_linear_1117_49" x1="189.906" y1="144.203" x2="323.631" y2="144.82" gradientUnits="userSpaceOnUse">
<stop stop-color="#FFFEA0"/>
<stop offset="0.0272806" stop-color="#FFFE28"/>
<stop offset="0.401369" stop-color="#FFFE49"/>
<stop offset="0.626445" stop-color="#BAB927"/>
<stop offset="0.949693" stop-color="#BAB927"/>
<stop offset="1" stop-color="#E1E030"/>
</linearGradient>
<linearGradient id="paint24_linear_1117_49" x1="326.312" y1="191.312" x2="286.937" y2="173.734" gradientUnits="userSpaceOnUse">
<stop/>
<stop offset="1" stop-color="#666666"/>
</linearGradient>
<linearGradient id="paint25_linear_1117_49" x1="290.574" y1="168.23" x2="294.551" y2="172.207" gradientUnits="userSpaceOnUse">
<stop stop-color="#353535"/>
<stop offset="1" stop-color="#5D5D5D"/>
</linearGradient>
<linearGradient id="paint26_linear_1117_49" x1="224.239" y1="122.989" x2="228.216" y2="126.966" gradientUnits="userSpaceOnUse">
<stop stop-color="#353535"/>
<stop offset="1" stop-color="#5D5D5D"/>
</linearGradient>
<clipPath id="clip0_1117_49">
<rect width="512" height="512" fill="white"/>
</clipPath>
</defs>
</svg>
