<svg width="137" height="128" viewBox="0 0 137 128" fill="none" xmlns="http://www.w3.org/2000/svg">
<path d="M0 64C0 41.5979 0 30.3968 4.35974 21.8404C8.19467 14.3139 14.3139 8.19467 21.8404 4.35974C30.3968 0 41.5979 0 64 0C86.4021 0 97.6031 0 106.16 4.35974C113.686 8.19467 119.805 14.3139 123.64 21.8404C128 30.3968 128 41.5979 128 64C128 86.4021 128 97.6031 123.64 106.16C119.805 113.686 113.686 119.805 106.16 123.64C97.6031 128 86.4021 128 64 128C41.5979 128 30.3968 128 21.8404 123.64C14.3139 119.805 8.19467 113.686 4.35974 106.16C0 97.6031 0 86.4021 0 64Z" fill="url(#paint0_linear_1205_525)"/>
<g filter="url(#filter0_f_1205_525)">
<path d="M20 87.5099C20 85.9506 20.8104 84.5033 22.14 83.6884L72.4791 52.8354C78.3108 49.2611 85.6644 49.3009 91.4571 52.9382L122.191 72.236C123.939 73.3337 125 75.253 125 77.3173V77.6509C125 79.7325 123.921 81.6653 122.149 82.7579L74.4905 112.148C68.6761 115.733 61.3331 115.718 55.5331 112.109L22.1142 91.3155C20.7994 90.4974 20 89.0585 20 87.5099Z" fill="url(#paint1_linear_1205_525)" fill-opacity="0.5"/>
</g>
<g filter="url(#filter1_f_1205_525)">
<path d="M23.5 87.3874C23.5 85.888 24.2197 84.4798 25.4348 83.6013L56.5128 61.1353C61.7593 57.3427 68.6382 56.6595 74.5281 59.3462L111.669 76.2877C116.055 78.2884 116.41 84.3833 112.286 86.8796L74.3911 109.816C68.6243 113.306 61.3905 113.282 55.6472 109.753L25.726 91.3678C24.3428 90.5179 23.5 89.0108 23.5 87.3874Z" fill="url(#paint2_linear_1205_525)" fill-opacity="0.5"/>
</g>
<path d="M97 53L110.451 60.5664C112.026 61.452 113 63.1179 113 64.9242V75C113 71.9114 111.334 69.0629 108.642 67.5487L97 61V53Z" fill="url(#paint3_linear_1205_525)"/>
<path d="M109.508 60.6086L101 56V54.9944L110 60.1906C112.475 61.6197 114 64.2607 114 67.1188V77L105 79.5L87.7639 70.882C86.07 70.035 85 68.3037 85 66.4098V65.9721C85 62.9986 88.1293 61.0646 90.7889 62.3944L108.087 71.0433C109.971 71.9857 112.215 70.7423 112.415 68.6445L112.624 66.4532C112.852 64.0564 111.625 61.7553 109.508 60.6086Z" fill="url(#paint4_linear_1205_525)"/>
<path d="M21 50L55.6262 70.4609C61.3893 73.8664 68.566 73.7925 74.2577 70.269L107 50L103.284 87.1556C103.104 88.955 102.123 90.5772 100.612 91.5711L74.6439 108.655C68.767 112.522 61.1763 112.61 55.2108 108.882L27.4972 91.5608C25.9221 90.5763 24.8918 88.918 24.707 87.0698L21 50Z" fill="url(#paint5_linear_1205_525)"/>
<mask id="mask0_1205_525" style="mask-type:alpha" maskUnits="userSpaceOnUse" x="21" y="50" width="86" height="62">
<path d="M21 50L55.6262 70.4609C61.3893 73.8664 68.566 73.7925 74.2577 70.269L107 50L103.284 87.1556C103.104 88.955 102.123 90.5772 100.612 91.5711L74.6439 108.655C68.767 112.522 61.1763 112.61 55.2108 108.882L27.4972 91.5608C25.9221 90.5763 24.8918 88.918 24.707 87.0698L21 50Z" fill="url(#paint6_linear_1205_525)"/>
</mask>
<g mask="url(#mask0_1205_525)">
<g filter="url(#filter2_f_1205_525)">
<path d="M52 67L59 70V112.5L54 110.5L52 67Z" fill="#FEFE6B"/>
</g>
<g opacity="0.6" filter="url(#filter3_f_1205_525)">
<path d="M21 50L55.6262 70.4609C61.3893 73.8664 68.566 73.7925 74.2577 70.269L107 50L104.869 69.6047C104.64 71.7097 103.319 73.5382 101.392 74.4162L74.0332 86.8836C68.4103 89.446 61.866 88.9449 56.6987 85.5565L22.3 63L21 50Z" fill="url(#paint7_linear_1205_525)"/>
</g>
<g filter="url(#filter4_f_1205_525)">
<path d="M21 50L55.6262 70.4609C61.3893 73.8664 68.566 73.7925 74.2577 70.269L107 50L105.86 59.4979C105.634 61.3862 104.525 63.0552 102.873 63.9966L74.8979 79.9316C69.3811 83.074 62.6168 83.0777 57.0966 79.9412L22 60L21 50Z" fill="url(#paint8_linear_1205_525)"/>
</g>
<g filter="url(#filter5_di_1205_525)">
<path fill-rule="evenodd" clip-rule="evenodd" d="M77.4583 82.8811C78.1349 82.4947 78.9744 82.9957 78.9544 83.7746L78.5511 99.5061C78.5189 100.761 77.8991 101.93 76.8773 102.659L76.6312 102.835C75.96 103.315 75.0296 102.821 75.0501 101.996L75.4437 86.2541C75.4787 84.8548 76.243 83.5755 77.4583 82.8811ZM88.3617 75.9358C89.0567 75.5388 89.9211 76.0749 89.8626 76.8733L88.6371 93.6282C88.5502 94.8141 87.9396 95.8999 86.972 96.591L86.7298 96.7639C86.0411 97.2558 85.0905 96.7233 85.1507 95.8791L86.348 79.1291C86.443 77.7986 87.2035 76.5976 88.3617 75.9358ZM98.2708 68.9875C98.9828 68.5807 99.8653 69.1506 99.7708 69.9651L97.7044 87.7385C97.5739 88.8602 96.975 89.8741 96.056 90.5305L95.8285 90.6936C95.1237 91.197 94.1555 90.6273 94.2533 89.7668L96.2708 72.0149C96.4148 70.7484 97.1642 69.62 98.2708 68.9875Z" fill="#919019"/>
</g>
<g filter="url(#filter6_f_1205_525)">
<path d="M89.1079 63.6699L109.893 75.6699L104.893 84.3301L85.5 71L89.1079 63.6699Z" fill="#626200" fill-opacity="0.61"/>
</g>
</g>
<g filter="url(#filter7_i_1205_525)">
<path d="M17 44.385C17 42.284 18.099 40.336 19.8973 39.2495L55.4908 17.7452C61.3198 14.2235 68.6373 14.2931 74.3983 17.925L108.2 39.2347C109.943 40.3335 111 42.2498 111 44.3102V44.628C111 46.722 109.908 48.6645 108.12 49.7532L74.163 70.4225C68.5176 73.8589 61.443 73.9251 55.7343 70.595L19.9768 49.7364C18.1335 48.6612 17 46.6878 17 44.5538V44.385Z" fill="url(#paint9_linear_1205_525)"/>
</g>
<path d="M56.3212 21.2046C61.5291 18.019 68.0958 18.0746 73.249 21.3479L104.025 40.8967C105.877 42.0734 105.881 44.7758 104.031 45.9572L73.2831 65.5998C68.1135 68.9023 61.5109 68.9583 56.286 65.7441L24.1655 45.9844C22.2585 44.8112 22.262 42.0382 24.1719 40.87L56.3212 21.2046Z" fill="url(#paint10_linear_1205_525)"/>
<mask id="mask1_1205_525" style="mask-type:alpha" maskUnits="userSpaceOnUse" x="22" y="18" width="84" height="51">
<path d="M56.3212 21.2046C61.5291 18.019 68.0958 18.0746 73.249 21.3479L104.025 40.8967C105.877 42.0734 105.881 44.7758 104.031 45.9572L73.2831 65.5998C68.1135 68.9023 61.5109 68.9583 56.286 65.7441L24.1655 45.9844C22.2585 44.8112 22.262 42.0382 24.1719 40.87L56.3212 21.2046Z" fill="url(#paint11_linear_1205_525)"/>
</mask>
<g mask="url(#mask1_1205_525)">
<g opacity="0.3" filter="url(#filter8_f_1205_525)">
<path d="M64 11L75 14.033V57L64 57V11Z" fill="url(#paint12_linear_1205_525)"/>
</g>
<g filter="url(#filter9_di_1205_525)">
<path d="M55.5154 31.4897C61.2477 28.1112 68.3762 28.1706 74.0515 31.644L103.832 49.8706C105.741 51.039 105.744 53.8107 103.838 54.9841L74.091 73.2982C68.3963 76.8043 61.2272 76.8641 55.4746 73.4536L24.3655 55.01C22.4025 53.8462 22.4062 51.0037 24.3722 49.845L55.5154 31.4897Z" fill="url(#paint13_linear_1205_525)"/>
</g>
<path d="M55.5154 66.4897C61.2477 63.1112 68.3762 63.1706 74.0515 66.644L103.832 84.8706C105.741 86.039 105.744 88.8107 103.838 89.9841L74.091 108.298C68.3963 111.804 61.2272 111.864 55.4746 108.454L24.3655 90.01C22.4025 88.8462 22.4062 86.0037 24.3722 84.845L55.5154 66.4897Z" fill="url(#paint14_linear_1205_525)"/>
<mask id="mask2_1205_525" style="mask-type:alpha" maskUnits="userSpaceOnUse" x="42" y="39" width="15" height="28">
<path fill-rule="evenodd" clip-rule="evenodd" d="M54.4972 60.1192C53.8207 60.5053 52.9812 60.0035 53.0011 59.2247L53.4045 43.4932C53.4366 42.2381 54.0567 41.0707 55.0783 40.3409L55.3254 40.1651C55.9964 39.6859 56.9257 40.1787 56.9054 41.003L56.5119 56.7452C56.4769 58.1445 55.7126 59.4247 54.4972 60.1192ZM43.4972 66.1192C42.8207 66.5055 41.9812 66.0035 42.0011 65.2247L42.4045 49.4932C42.4366 48.238 43.0566 47.0707 44.0783 46.3409L44.3244 46.1651C44.9955 45.6858 45.9257 46.1787 45.9054 47.003L45.5119 62.7452C45.4769 64.1445 44.7126 65.4247 43.4972 66.1192Z" fill="#E6E6E6"/>
</mask>
<g mask="url(#mask2_1205_525)">
<path fill-rule="evenodd" clip-rule="evenodd" d="M54.4972 60.1184C53.8207 60.5049 52.9812 60.0038 53.0011 59.2249L53.4045 43.4934C53.4366 42.2383 54.0567 41.0709 55.0783 40.3411L55.3254 40.1643C55.9965 39.6855 56.9258 40.179 56.9054 41.0032L56.5119 56.7454C56.4769 58.1447 55.7125 59.424 54.4972 60.1184ZM43.4972 66.1184C42.8207 66.505 41.9812 66.0039 42.0011 65.2249L42.4045 49.4934C42.4366 48.2382 43.0566 47.0709 44.0783 46.3411L44.3244 46.1643C44.9955 45.685 45.9258 46.1788 45.9054 47.0032L45.5119 62.7454C45.4769 64.1447 44.7125 65.424 43.4972 66.1184Z" fill="#E6E6E6"/>
<path d="M105.5 66L65.5 46.5L38 38V33L65.5 38.5L106 58L105.5 66Z" fill="#222222"/>
<g filter="url(#filter10_di_1205_525)">
<path d="M54.498 60.1186C53.8215 60.5052 52.982 60.004 53.002 59.225L53.4053 43.4936C53.4375 42.2383 54.0573 41.0701 55.0791 40.3403L55.3252 40.1645C55.9964 39.6853 56.9268 40.1789 56.9062 41.0034L56.5127 56.7455C56.4777 58.1447 55.7132 59.4241 54.498 60.1186ZM43.4971 66.1186C42.8205 66.5049 41.981 66.0039 42.001 65.225L42.4043 49.4936C42.4365 48.2383 43.0563 47.0701 44.0781 46.3403L44.3252 46.1645C44.9963 45.6855 45.9258 46.179 45.9053 47.0034L45.5117 62.7455C45.4767 64.1448 44.7124 65.4241 43.4971 66.1186Z" fill="#E6E6E6" fill-opacity="0.01" shape-rendering="crispEdges"/>
</g>
</g>
<mask id="mask3_1205_525" style="mask-type:alpha" maskUnits="userSpaceOnUse" x="70" y="39" width="16" height="28">
<path fill-rule="evenodd" clip-rule="evenodd" d="M73.3636 60.1196C74.0401 60.5056 74.8797 60.0038 74.8597 59.225L74.4564 43.4936C74.4242 42.2385 73.8042 41.0711 72.7826 40.3413L72.5355 40.1655C71.8644 39.6862 70.9351 40.1791 70.9554 41.0034L71.349 56.7456C71.3839 58.1449 72.1483 59.4251 73.3636 60.1196ZM84.3636 66.1196C85.0401 66.5059 85.8797 66.0039 85.8597 65.225L85.4564 49.4936C85.4242 48.2384 84.8043 47.0711 83.7826 46.3413L83.5365 46.1655C82.8654 45.6861 81.9352 46.1791 81.9554 47.0034L82.349 62.7456C82.3839 64.1449 83.1483 65.4251 84.3636 66.1196Z" fill="#E6E6E6"/>
</mask>
<g mask="url(#mask3_1205_525)">
<path fill-rule="evenodd" clip-rule="evenodd" d="M73.3631 60.1189C74.0397 60.5053 74.8792 60.0042 74.8592 59.2253L74.4559 43.4939C74.4237 42.2387 73.8036 41.0714 72.7821 40.3415L72.535 40.1648C71.8639 39.6859 70.9345 40.1794 70.9549 41.0036L71.3485 56.7458C71.3835 58.1451 72.1478 59.4244 73.3631 60.1189ZM84.3631 66.1189C85.0397 66.5055 85.8792 66.0043 85.8592 65.2253L85.4559 49.4939C85.4237 48.2387 84.8037 47.0714 83.7821 46.3415L83.536 46.1648C82.8648 45.6854 81.9345 46.1792 81.9549 47.0036L82.3485 62.7458C82.3835 64.1451 83.1478 65.4244 84.3631 66.1189Z" fill="#E6E6E6"/>
<path d="M105.5 66L65.5 46.5L38 38V33L65.5 38.5L106 58L105.5 66Z" fill="#222222"/>
<g filter="url(#filter11_di_1205_525)">
<path d="M73.3628 60.1194C74.0392 60.5058 74.8786 60.0046 74.8589 59.2259L74.4556 43.4935C74.4234 42.2382 73.8035 41.071 72.7817 40.3411L72.5356 40.1653C71.8644 39.6859 70.934 40.1796 70.9546 41.0042L71.3481 56.7454C71.3831 58.1447 72.1475 59.425 73.3628 60.1194ZM84.3628 66.1194C85.0393 66.506 85.8786 66.0047 85.8589 65.2259L85.4556 49.4935C85.4234 48.2382 84.8035 47.071 83.7817 46.3411L83.5356 46.1653C82.8644 45.6859 81.934 46.1796 81.9546 47.0042L82.3481 62.7464C82.3833 64.1455 83.1476 65.425 84.3628 66.1194Z" fill="#E6E6E6" fill-opacity="0.01" shape-rendering="crispEdges"/>
</g>
</g>
</g>
<path d="M17 42V44.5538C17 46.6878 18.1335 48.6612 19.9768 49.7365L55.7343 70.595C61.443 73.9251 68.5176 73.8589 74.163 70.4225L108.12 49.7532C109.908 48.6645 111 46.722 111 44.628V42V52.628C111 54.722 109.908 56.6645 108.12 57.7532L74.163 78.4225C68.5176 81.8589 61.443 81.9251 55.7343 78.595L19.9768 57.7364C18.1335 56.6612 17 54.6878 17 52.5538V42Z" fill="url(#paint15_linear_1205_525)"/>
<g filter="url(#filter12_di_1205_525)">
<path d="M51.0459 83.7747C51.0259 82.9957 51.8654 82.4945 52.542 82.8811C53.7572 83.5756 54.5216 84.8549 54.5566 86.2542L54.9502 101.996C54.9707 102.821 54.0403 103.314 53.3691 102.835L53.123 102.659C52.1013 101.93 51.4814 100.761 51.4492 99.5061L51.0459 83.7747ZM40.1377 76.8733C40.0793 76.0748 40.9436 75.5386 41.6387 75.9358C42.7968 76.5976 43.5573 77.7987 43.6523 79.1292L44.8486 95.8792C44.9089 96.7233 43.9582 97.2558 43.2695 96.7639L43.0273 96.5911C42.0598 95.8999 41.4501 94.814 41.3633 93.6282L40.1377 76.8733ZM30.2285 69.9651C30.1341 69.1507 31.0166 68.5809 31.7285 68.9875C32.8353 69.62 33.5855 70.7483 33.7295 72.0149L35.7461 89.7668C35.8439 90.6273 34.8766 91.1969 34.1719 90.6936L33.9434 90.5305C33.0246 89.8741 32.4255 88.8601 32.2949 87.7385L30.2285 69.9651Z" fill="#E7E546"/>
</g>
<path d="M90.7825 62.3785L110.204 72.0463C111.776 72.8287 112.343 74.7877 111.432 76.2886L111 77L105 79.5L87.7639 70.882C86.07 70.035 85 68.3037 85 66.4098V65.9593C85 62.9889 88.1233 61.0547 90.7825 62.3785Z" fill="#454545"/>
<path d="M86 66.3575C86 63.4366 89.0738 61.5369 91.6863 62.8432L109.528 71.7639C111.583 72.7913 114 71.2972 114 69V76V77.5279C114 80.5014 110.871 82.4354 108.211 81.1056L89.258 71.629C87.2613 70.6306 86 68.5899 86 66.3575Z" fill="url(#paint16_linear_1205_525)"/>
<path d="M88.7876 68.6162C87.895 67.7236 87.895 66.2764 88.7876 65.3838C89.4571 64.7143 90.5425 64.7143 91.212 65.3838L91.414 65.5858C92.1951 66.3668 92.1951 67.6332 91.414 68.4142L91.212 68.6162C90.5425 69.2857 89.4571 69.2857 88.7876 68.6162Z" fill="url(#paint17_linear_1205_525)"/>
<g filter="url(#filter13_d_1205_525)">
<path d="M41.6162 36.4447C40.7236 35.552 40.7236 34.1048 41.6162 33.2122C42.2857 32.5427 43.3711 32.5427 44.0406 33.2122L44.2426 33.4142C45.0237 34.1953 45.0237 35.4616 44.2426 36.2426L44.0406 36.4447C43.3711 37.1141 42.2857 37.1141 41.6162 36.4447Z" fill="url(#paint18_linear_1205_525)"/>
</g>
<defs>
<filter id="filter0_f_1205_525" x="8.5" y="38.6822" width="128" height="87.6443" filterUnits="userSpaceOnUse" color-interpolation-filters="sRGB">
<feFlood flood-opacity="0" result="BackgroundImageFix"/>
<feBlend mode="normal" in="SourceGraphic" in2="BackgroundImageFix" result="shape"/>
<feGaussianBlur stdDeviation="5.75" result="effect1_foregroundBlur_1205_525"/>
</filter>
<filter id="filter1_f_1205_525" x="21.5" y="55.7228" width="95.6792" height="58.6941" filterUnits="userSpaceOnUse" color-interpolation-filters="sRGB">
<feFlood flood-opacity="0" result="BackgroundImageFix"/>
<feBlend mode="normal" in="SourceGraphic" in2="BackgroundImageFix" result="shape"/>
<feGaussianBlur stdDeviation="1" result="effect1_foregroundBlur_1205_525"/>
</filter>
<filter id="filter2_f_1205_525" x="50" y="65" width="11" height="49.5" filterUnits="userSpaceOnUse" color-interpolation-filters="sRGB">
<feFlood flood-opacity="0" result="BackgroundImageFix"/>
<feBlend mode="normal" in="SourceGraphic" in2="BackgroundImageFix" result="shape"/>
<feGaussianBlur stdDeviation="1" result="effect1_foregroundBlur_1205_525"/>
</filter>
<filter id="filter3_f_1205_525" x="18.4" y="47.4" width="91.2" height="43.7042" filterUnits="userSpaceOnUse" color-interpolation-filters="sRGB">
<feFlood flood-opacity="0" result="BackgroundImageFix"/>
<feBlend mode="normal" in="SourceGraphic" in2="BackgroundImageFix" result="shape"/>
<feGaussianBlur stdDeviation="1.3" result="effect1_foregroundBlur_1205_525"/>
</filter>
<filter id="filter4_f_1205_525" x="18.4" y="47.4" width="91.2" height="37.491" filterUnits="userSpaceOnUse" color-interpolation-filters="sRGB">
<feFlood flood-opacity="0" result="BackgroundImageFix"/>
<feBlend mode="normal" in="SourceGraphic" in2="BackgroundImageFix" result="shape"/>
<feGaussianBlur stdDeviation="1.3" result="effect1_foregroundBlur_1205_525"/>
</filter>
<filter id="filter5_di_1205_525" x="75.0498" y="68.8529" width="24.728" height="35.1704" filterUnits="userSpaceOnUse" color-interpolation-filters="sRGB">
<feFlood flood-opacity="0" result="BackgroundImageFix"/>
<feColorMatrix in="SourceAlpha" type="matrix" values="0 0 0 0 0 0 0 0 0 0 0 0 0 0 0 0 0 0 127 0" result="hardAlpha"/>
<feOffset dy="1"/>
<feComposite in2="hardAlpha" operator="out"/>
<feColorMatrix type="matrix" values="0 0 0 0 1 0 0 0 0 1 0 0 0 0 1 0 0 0 0.25 0"/>
<feBlend mode="normal" in2="BackgroundImageFix" result="effect1_dropShadow_1205_525"/>
<feBlend mode="normal" in="SourceGraphic" in2="effect1_dropShadow_1205_525" result="shape"/>
<feColorMatrix in="SourceAlpha" type="matrix" values="0 0 0 0 0 0 0 0 0 0 0 0 0 0 0 0 0 0 127 0" result="hardAlpha"/>
<feOffset dx="-2"/>
<feComposite in2="hardAlpha" operator="arithmetic" k2="-1" k3="1"/>
<feColorMatrix type="matrix" values="0 0 0 0 0.797213 0 0 0 0 0.793599 0 0 0 0 0.139446 0 0 0 1 0"/>
<feBlend mode="normal" in2="shape" result="effect2_innerShadow_1205_525"/>
</filter>
<filter id="filter6_f_1205_525" x="82.8" y="60.9699" width="29.7926" height="26.0603" filterUnits="userSpaceOnUse" color-interpolation-filters="sRGB">
<feFlood flood-opacity="0" result="BackgroundImageFix"/>
<feBlend mode="normal" in="SourceGraphic" in2="BackgroundImageFix" result="shape"/>
<feGaussianBlur stdDeviation="1.35" result="effect1_foregroundBlur_1205_525"/>
</filter>
<filter id="filter7_i_1205_525" x="17" y="15.1517" width="94" height="57.8953" filterUnits="userSpaceOnUse" color-interpolation-filters="sRGB">
<feFlood flood-opacity="0" result="BackgroundImageFix"/>
<feBlend mode="normal" in="SourceGraphic" in2="BackgroundImageFix" result="shape"/>
<feColorMatrix in="SourceAlpha" type="matrix" values="0 0 0 0 0 0 0 0 0 0 0 0 0 0 0 0 0 0 127 0" result="hardAlpha"/>
<feOffset/>
<feGaussianBlur stdDeviation="1.5"/>
<feComposite in2="hardAlpha" operator="arithmetic" k2="-1" k3="1"/>
<feColorMatrix type="matrix" values="0 0 0 0 1 0 0 0 0 1 0 0 0 0 1 0 0 0 1 0"/>
<feBlend mode="normal" in2="shape" result="effect1_innerShadow_1205_525"/>
</filter>
<filter id="filter8_f_1205_525" x="62" y="9" width="15" height="50" filterUnits="userSpaceOnUse" color-interpolation-filters="sRGB">
<feFlood flood-opacity="0" result="BackgroundImageFix"/>
<feBlend mode="normal" in="SourceGraphic" in2="BackgroundImageFix" result="shape"/>
<feGaussianBlur stdDeviation="1" result="effect1_foregroundBlur_1205_525"/>
</filter>
<filter id="filter9_di_1205_525" x="20.9955" y="27.0968" width="86.1701" height="50.8735" filterUnits="userSpaceOnUse" color-interpolation-filters="sRGB">
<feFlood flood-opacity="0" result="BackgroundImageFix"/>
<feColorMatrix in="SourceAlpha" type="matrix" values="0 0 0 0 0 0 0 0 0 0 0 0 0 0 0 0 0 0 127 0" result="hardAlpha"/>
<feOffset/>
<feGaussianBlur stdDeviation="0.95"/>
<feComposite in2="hardAlpha" operator="out"/>
<feColorMatrix type="matrix" values="0 0 0 0 1 0 0 0 0 1 0 0 0 0 1 0 0 0 0.5 0"/>
<feBlend mode="normal" in2="BackgroundImageFix" result="effect1_dropShadow_1205_525"/>
<feBlend mode="normal" in="SourceGraphic" in2="effect1_dropShadow_1205_525" result="shape"/>
<feColorMatrix in="SourceAlpha" type="matrix" values="0 0 0 0 0 0 0 0 0 0 0 0 0 0 0 0 0 0 127 0" result="hardAlpha"/>
<feOffset dy="2"/>
<feGaussianBlur stdDeviation="2"/>
<feComposite in2="hardAlpha" operator="arithmetic" k2="-1" k3="1"/>
<feColorMatrix type="matrix" values="0 0 0 0 0 0 0 0 0 0 0 0 0 0 0 0 0 0 0.25 0"/>
<feBlend mode="normal" in2="shape" result="effect2_innerShadow_1205_525"/>
</filter>
<filter id="filter10_di_1205_525" x="42.0005" y="39.9765" width="14.9062" height="27.2754" filterUnits="userSpaceOnUse" color-interpolation-filters="sRGB">
<feFlood flood-opacity="0" result="BackgroundImageFix"/>
<feColorMatrix in="SourceAlpha" type="matrix" values="0 0 0 0 0 0 0 0 0 0 0 0 0 0 0 0 0 0 127 0" result="hardAlpha"/>
<feOffset dy="1"/>
<feComposite in2="hardAlpha" operator="out"/>
<feColorMatrix type="matrix" values="0 0 0 0 1 0 0 0 0 1 0 0 0 0 1 0 0 0 0.25 0"/>
<feBlend mode="normal" in2="BackgroundImageFix" result="effect1_dropShadow_1205_525"/>
<feBlend mode="normal" in="SourceGraphic" in2="effect1_dropShadow_1205_525" result="shape"/>
<feColorMatrix in="SourceAlpha" type="matrix" values="0 0 0 0 0 0 0 0 0 0 0 0 0 0 0 0 0 0 127 0" result="hardAlpha"/>
<feOffset dx="-1"/>
<feComposite in2="hardAlpha" operator="arithmetic" k2="-1" k3="1"/>
<feColorMatrix type="matrix" values="0 0 0 0 0.797213 0 0 0 0 0.793599 0 0 0 0 0.139446 0 0 0 1 0"/>
<feBlend mode="normal" in2="shape" result="effect2_innerShadow_1205_525"/>
</filter>
<filter id="filter11_di_1205_525" x="70.9541" y="39.9772" width="14.9053" height="27.2756" filterUnits="userSpaceOnUse" color-interpolation-filters="sRGB">
<feFlood flood-opacity="0" result="BackgroundImageFix"/>
<feColorMatrix in="SourceAlpha" type="matrix" values="0 0 0 0 0 0 0 0 0 0 0 0 0 0 0 0 0 0 127 0" result="hardAlpha"/>
<feOffset dy="1"/>
<feComposite in2="hardAlpha" operator="out"/>
<feColorMatrix type="matrix" values="0 0 0 0 1 0 0 0 0 1 0 0 0 0 1 0 0 0 0.25 0"/>
<feBlend mode="normal" in2="BackgroundImageFix" result="effect1_dropShadow_1205_525"/>
<feBlend mode="normal" in="SourceGraphic" in2="effect1_dropShadow_1205_525" result="shape"/>
<feColorMatrix in="SourceAlpha" type="matrix" values="0 0 0 0 0 0 0 0 0 0 0 0 0 0 0 0 0 0 127 0" result="hardAlpha"/>
<feOffset dx="1"/>
<feComposite in2="hardAlpha" operator="arithmetic" k2="-1" k3="1"/>
<feColorMatrix type="matrix" values="0 0 0 0 0.692533 0 0 0 0 0.689107 0 0 0 0 0.0690998 0 0 0 1 0"/>
<feBlend mode="normal" in2="shape" result="effect2_innerShadow_1205_525"/>
</filter>
<filter id="filter12_di_1205_525" x="30.2217" y="68.853" width="25.729" height="35.1703" filterUnits="userSpaceOnUse" color-interpolation-filters="sRGB">
<feFlood flood-opacity="0" result="BackgroundImageFix"/>
<feColorMatrix in="SourceAlpha" type="matrix" values="0 0 0 0 0 0 0 0 0 0 0 0 0 0 0 0 0 0 127 0" result="hardAlpha"/>
<feOffset dx="1" dy="1"/>
<feComposite in2="hardAlpha" operator="out"/>
<feColorMatrix type="matrix" values="0 0 0 0 1 0 0 0 0 1 0 0 0 0 1 0 0 0 0.5 0"/>
<feBlend mode="normal" in2="BackgroundImageFix" result="effect1_dropShadow_1205_525"/>
<feBlend mode="normal" in="SourceGraphic" in2="effect1_dropShadow_1205_525" result="shape"/>
<feColorMatrix in="SourceAlpha" type="matrix" values="0 0 0 0 0 0 0 0 0 0 0 0 0 0 0 0 0 0 127 0" result="hardAlpha"/>
<feOffset dx="2"/>
<feComposite in2="hardAlpha" operator="arithmetic" k2="-1" k3="1"/>
<feColorMatrix type="matrix" values="0 0 0 0 0.709867 0 0 0 0 0.706883 0 0 0 0 0.166842 0 0 0 1 0"/>
<feBlend mode="normal" in2="shape" result="effect2_innerShadow_1205_525"/>
</filter>
<filter id="filter13_d_1205_525" x="39.9468" y="32.7101" width="4.88184" height="4.23669" filterUnits="userSpaceOnUse" color-interpolation-filters="sRGB">
<feFlood flood-opacity="0" result="BackgroundImageFix"/>
<feColorMatrix in="SourceAlpha" type="matrix" values="0 0 0 0 0 0 0 0 0 0 0 0 0 0 0 0 0 0 127 0" result="hardAlpha"/>
<feOffset dx="-1"/>
<feComposite in2="hardAlpha" operator="out"/>
<feColorMatrix type="matrix" values="0 0 0 0 0 0 0 0 0 0 0 0 0 0 0 0 0 0 0.25 0"/>
<feBlend mode="normal" in2="BackgroundImageFix" result="effect1_dropShadow_1205_525"/>
<feBlend mode="normal" in="SourceGraphic" in2="effect1_dropShadow_1205_525" result="shape"/>
</filter>
<linearGradient id="paint0_linear_1205_525" x1="90" y1="45" x2="14.5" y2="120.5" gradientUnits="userSpaceOnUse">
<stop offset="0.403518" stop-color="#C7C7C7"/>
<stop offset="1" stop-color="white"/>
</linearGradient>
<linearGradient id="paint1_linear_1205_525" x1="43.5" y1="106.5" x2="106" y2="70" gradientUnits="userSpaceOnUse">
<stop stop-color="#9A9A9A"/>
<stop offset="1" stop-color="#525252"/>
</linearGradient>
<linearGradient id="paint2_linear_1205_525" x1="43.5" y1="106.5" x2="115.5" y2="78.5" gradientUnits="userSpaceOnUse">
<stop offset="0.809204" stop-color="#9A9A9A"/>
<stop offset="1" stop-color="#525252" stop-opacity="0"/>
</linearGradient>
<linearGradient id="paint3_linear_1205_525" x1="113" y1="70.5" x2="105" y2="68" gradientUnits="userSpaceOnUse">
<stop stop-color="#707070"/>
<stop offset="1"/>
</linearGradient>
<linearGradient id="paint4_linear_1205_525" x1="114" y1="59" x2="99.5" y2="79.5" gradientUnits="userSpaceOnUse">
<stop/>
<stop offset="1" stop-color="#666666"/>
</linearGradient>
<linearGradient id="paint5_linear_1205_525" x1="22.5" y1="72" x2="108" y2="72" gradientUnits="userSpaceOnUse">
<stop stop-color="#FFFFCF"/>
<stop offset="0.0576923" stop-color="#FFFE49"/>
<stop offset="0.401369" stop-color="#FFFE49"/>
<stop offset="0.626445" stop-color="#BAB927"/>
<stop offset="0.879808" stop-color="#BAB927"/>
<stop offset="1" stop-color="#E1E030"/>
</linearGradient>
<linearGradient id="paint6_linear_1205_525" x1="22.5" y1="72" x2="108" y2="72" gradientUnits="userSpaceOnUse">
<stop stop-color="#FFFFCF"/>
<stop offset="0.0576923" stop-color="#FFFE49"/>
<stop offset="0.401369" stop-color="#FFFE49"/>
<stop offset="0.626445" stop-color="#BAB927"/>
<stop offset="0.879808" stop-color="#BAB927"/>
<stop offset="1" stop-color="#E1E030"/>
</linearGradient>
<linearGradient id="paint7_linear_1205_525" x1="23.5" y1="61" x2="71.5" y2="84" gradientUnits="userSpaceOnUse">
<stop stop-color="#F0EF43"/>
<stop offset="1" stop-color="#B3B21D"/>
</linearGradient>
<linearGradient id="paint8_linear_1205_525" x1="23.5" y1="61" x2="71.5" y2="84" gradientUnits="userSpaceOnUse">
<stop stop-color="#B9B816"/>
<stop offset="1" stop-color="#919007"/>
</linearGradient>
<linearGradient id="paint9_linear_1205_525" x1="17" y1="42" x2="112.5" y2="44" gradientUnits="userSpaceOnUse">
<stop stop-color="#FFFE9A"/>
<stop offset="0.540731" stop-color="#FEFD5F"/>
</linearGradient>
<linearGradient id="paint10_linear_1205_525" x1="21.5349" y1="34.9385" x2="109.023" y2="34.9385" gradientUnits="userSpaceOnUse">
<stop stop-color="#BAB927"/>
<stop offset="0.400224" stop-color="#BAB927"/>
<stop offset="0.598631" stop-color="#D1D03D"/>
<stop offset="1" stop-color="#C5C429"/>
</linearGradient>
<linearGradient id="paint11_linear_1205_525" x1="21.5349" y1="34.9385" x2="109.023" y2="34.9385" gradientUnits="userSpaceOnUse">
<stop stop-color="#BAB927"/>
<stop offset="0.400224" stop-color="#BAB927"/>
<stop offset="0.598631" stop-color="#D1D03D"/>
<stop offset="1" stop-color="#C5C429"/>
</linearGradient>
<linearGradient id="paint12_linear_1205_525" x1="65.5" y1="31" x2="75" y2="32" gradientUnits="userSpaceOnUse">
<stop stop-color="#FEFE6B"/>
<stop offset="1" stop-color="#FEFE6B" stop-opacity="0"/>
</linearGradient>
<linearGradient id="paint13_linear_1205_525" x1="21.5349" y1="43.9385" x2="109.023" y2="43.9385" gradientUnits="userSpaceOnUse">
<stop stop-color="#7F7F13"/>
<stop offset="0.400224" stop-color="#9A991E"/>
<stop offset="0.598631" stop-color="#D1D03D"/>
<stop offset="1" stop-color="#C5C429"/>
</linearGradient>
<linearGradient id="paint14_linear_1205_525" x1="70" y1="69.5" x2="58.5" y2="70" gradientUnits="userSpaceOnUse">
<stop stop-color="#DAD922"/>
<stop offset="1" stop-color="#B9B82E"/>
</linearGradient>
<linearGradient id="paint15_linear_1205_525" x1="17" y1="48.5" x2="112.093" y2="48.9385" gradientUnits="userSpaceOnUse">
<stop stop-color="#FFFEA0"/>
<stop offset="0.0272806" stop-color="#FFFE28"/>
<stop offset="0.401369" stop-color="#FFFE49"/>
<stop offset="0.626445" stop-color="#BAB927"/>
<stop offset="0.949693" stop-color="#BAB927"/>
<stop offset="1" stop-color="#E1E030"/>
</linearGradient>
<linearGradient id="paint16_linear_1205_525" x1="114" y1="82" x2="86" y2="69.5" gradientUnits="userSpaceOnUse">
<stop/>
<stop offset="1" stop-color="#666666"/>
</linearGradient>
<linearGradient id="paint17_linear_1205_525" x1="88.5856" y1="65.5858" x2="91.414" y2="68.4142" gradientUnits="userSpaceOnUse">
<stop stop-color="#353535"/>
<stop offset="1" stop-color="#5D5D5D"/>
</linearGradient>
<linearGradient id="paint18_linear_1205_525" x1="41.4142" y1="33.4142" x2="44.2426" y2="36.2426" gradientUnits="userSpaceOnUse">
<stop stop-color="#353535"/>
<stop offset="1" stop-color="#5D5D5D"/>
</linearGradient>
</defs>
</svg>
