<svg width="195" height="195" viewBox="0 0 195 195" fill="none" xmlns="http://www.w3.org/2000/svg">
<g clip-path="url(#clip0_4595_358)">
<path d="M138.206 -0.243652H57.1594C25.5911 -0.243652 0 25.3475 0 56.9157V137.963C0 169.531 25.5911 195.122 57.1594 195.122H138.206C169.775 195.122 195.366 169.531 195.366 137.963V56.9157C195.366 25.3475 169.775 -0.243652 138.206 -0.243652Z" fill="url(#paint0_linear_4595_358)"/>
<path d="M166.554 82.3446C167.579 87.2445 168.149 92.2583 168.149 97.5C168.149 136.585 136.471 168.149 97.5 168.149C58.529 168.149 26.8508 136.585 26.8508 97.5C26.8508 58.4151 58.4151 26.8508 97.5 26.8508C102.742 26.8508 107.756 27.4206 112.655 28.4461L116.416 17.1651C110.376 15.6837 103.995 15 97.5 15C51.9199 15 15 51.9199 15 97.5C15 143.08 51.9199 180 97.5 180C143.08 180 180 143.08 180 97.5C180 91.0048 179.202 84.6236 177.835 78.5843L166.554 82.3446ZM56.25 91.5746C59.5546 91.5746 62.1754 94.1954 62.1754 97.5C62.1754 117.783 77.2169 132.825 97.5 132.825C100.805 132.825 103.425 135.445 103.425 138.75C103.425 142.055 100.805 144.675 97.5 144.675C70.7217 144.675 50.3246 124.392 50.3246 97.5C50.3246 94.1954 52.9454 91.5746 56.25 91.5746ZM146.271 48.7293L132.825 15.114L119.378 48.7293L85.7631 62.1754L119.378 75.6215L132.825 109.237L146.271 75.6215L179.886 62.1754L146.271 48.7293Z" fill="url(#paint1_linear_4595_358)"/>
<path d="M187.2 79.4623C186.956 77.3904 186.225 76.0498 182.935 75.6842C179.522 75.3186 139.425 72.3936 97.5002 72.3936C55.5752 72.3936 15.4783 75.3186 12.0658 75.6842C8.65332 76.0498 7.92207 77.3904 7.80019 79.4623C7.55644 81.5342 7.80019 102.131 9.62832 107.859C11.3346 113.587 11.7002 114.684 15.6002 115.903C20.9627 117.487 45.8252 123.703 60.9377 125.775C72.1502 127.359 78.6096 126.872 83.8502 116.878C88.8471 107.372 90.7971 102.74 92.3814 99.3279C93.4783 96.8904 95.5502 95.9154 97.5002 95.9154C99.4502 95.9154 101.644 96.8904 102.619 99.3279C104.203 102.862 106.153 107.372 111.15 116.878C116.391 126.872 122.972 127.359 134.063 125.775C149.175 123.703 174.038 117.487 179.4 115.903C183.3 114.806 183.666 113.587 185.372 107.859C187.078 102.131 187.322 81.5342 187.2 79.4623ZM84.8252 92.7467C83.3627 98.2311 80.9252 104.569 76.7814 113.465C74.3439 118.706 70.9314 119.315 67.8846 119.315C66.5439 119.315 65.2033 119.194 63.6189 118.95C57.6471 118.097 52.2846 117.365 41.5596 115.05C31.5658 112.978 30.8346 111.272 29.2502 107.737V107.494C27.6658 104.203 27.5439 96.5248 27.5439 91.4061V90.0654C27.5439 85.4342 28.1533 84.0936 33.1502 82.7529C37.9033 81.5342 48.8721 80.8029 62.6439 80.8029C66.1783 80.8029 69.9564 80.8029 73.7346 80.9248C79.8283 81.0467 81.5346 82.5092 82.8752 84.0936L83.1189 84.3373C84.8252 86.2873 86.0439 87.7498 84.7033 92.7467H84.8252ZM167.456 90.0654V91.4061C167.456 96.5248 167.335 104.203 165.872 107.494V107.737C164.166 111.272 163.435 112.978 153.441 115.05C142.716 117.244 137.353 118.097 131.381 118.95C129.797 119.194 128.456 119.315 127.116 119.315C124.069 119.315 120.535 118.584 118.219 113.465C114.197 104.69 111.638 98.2311 110.175 92.7467C108.835 87.7498 110.175 86.4092 111.76 84.3373L112.003 84.0936C113.344 82.5092 115.05 81.0467 121.144 80.9248C124.922 80.9248 128.7 80.8029 132.235 80.8029C146.006 80.8029 156.975 81.5342 161.728 82.7529C166.725 84.0936 167.456 85.5561 167.456 90.0654Z" fill="url(#paint2_linear_4595_358)"/>
<path d="M187.322 80.5595C187.078 78.4876 186.347 77.147 183.056 76.7813C179.644 76.4157 139.547 73.4907 97.6218 73.4907C55.6968 73.4907 15.5999 76.4157 12.1874 76.7813C8.7749 77.147 8.04365 78.4876 7.92177 80.5595C7.67802 82.6313 7.92177 103.228 9.7499 108.956C11.4561 114.684 11.8218 115.781 15.7218 117C21.0843 118.584 45.9468 124.8 61.0593 126.872C72.2718 128.456 78.7311 127.969 83.9718 117.975C88.9686 108.469 90.9186 103.838 92.503 100.425C93.5999 97.9876 95.6718 97.0126 97.6218 97.0126C99.5718 97.0126 101.766 97.9876 102.741 100.425C104.325 103.959 106.275 108.469 111.272 117.975C116.512 127.969 123.094 128.456 134.184 126.872C149.297 124.8 174.159 118.584 179.522 117C183.422 115.903 183.787 114.684 185.494 108.956C187.2 103.228 187.444 82.6313 187.322 80.5595ZM85.0686 93.8438C83.6061 99.3282 81.1686 105.666 77.0249 114.563C74.5874 119.803 71.1749 120.413 68.128 120.413C66.7874 120.413 65.4468 120.291 63.8624 120.047C57.8905 119.194 52.528 118.463 41.803 116.147C31.8093 114.075 31.078 112.369 29.4936 108.834V108.591C27.9093 105.3 27.7874 97.622 27.7874 92.5032V91.1626C27.7874 86.5313 28.3968 85.1907 33.3936 83.8501C38.1468 82.6313 49.1155 81.9001 62.8874 81.9001C66.4218 81.9001 70.1999 81.9001 73.978 82.022C80.0718 82.1438 81.778 83.6063 83.1187 85.1907L83.3624 85.4345C85.0686 87.3845 86.2874 88.847 84.9468 93.8438H85.0686ZM167.7 91.1626V92.5032C167.7 97.622 167.578 105.3 166.116 108.591V108.834C164.409 112.369 163.678 114.075 153.684 116.147C142.959 118.341 137.597 119.194 131.625 120.047C130.041 120.291 128.7 120.413 127.359 120.413C124.312 120.413 120.778 119.681 118.462 114.563C114.441 105.788 111.881 99.3282 110.419 93.8438C109.078 88.847 110.419 87.5063 112.003 85.4345L112.247 85.1907C113.587 83.6063 115.294 82.1438 121.387 82.022C125.166 82.022 128.944 81.9001 132.478 81.9001C146.25 81.9001 157.219 82.6313 161.972 83.8501C166.969 85.1907 167.7 86.6532 167.7 91.1626Z" fill="url(#paint3_linear_4595_358)"/>
<path d="M140.627 54.3735L132.5 34L124.373 54.3735L104 62.5L124.373 70.6265L132.5 91L140.627 70.6265L161 62.5L140.627 54.3735Z" fill="url(#paint4_radial_4595_358)"/>
</g>
<defs>
<linearGradient id="paint0_linear_4595_358" x1="97.7438" y1="-0.243652" x2="97.7438" y2="195.122" gradientUnits="userSpaceOnUse">
<stop stop-color="#4A4A4A"/>
<stop offset="0.8" stop-color="#151515"/>
</linearGradient>
<linearGradient id="paint1_linear_4595_358" x1="97.5" y1="18.4185" x2="97.5" y2="175.1" gradientUnits="userSpaceOnUse">
<stop stop-color="#A26ED3"/>
<stop offset="0.16" stop-color="#8B4FB7"/>
<stop offset="0.4" stop-color="#6C2793"/>
<stop offset="0.52" stop-color="#611886"/>
<stop offset="1" stop-color="#A26ED3"/>
</linearGradient>
<linearGradient id="paint2_linear_4595_358" x1="97.5002" y1="74.0998" x2="97.5002" y2="104.69" gradientUnits="userSpaceOnUse">
<stop stop-color="white"/>
<stop offset="0.09" stop-color="#5A5A5A"/>
<stop offset="0.2" stop-color="#6A6A6A"/>
<stop offset="0.41" stop-color="#939396"/>
<stop offset="0.61" stop-color="#C1C1C6"/>
<stop offset="0.82" stop-color="#C8C8CD"/>
</linearGradient>
<linearGradient id="paint3_linear_4595_358" x1="97.6218" y1="75.197" x2="97.6218" y2="105.788" gradientUnits="userSpaceOnUse">
<stop stop-color="#B0B0B0"/>
<stop offset="0.01" stop-color="#959595"/>
<stop offset="0.02" stop-color="#7F7F7F"/>
<stop offset="0.03" stop-color="#6E6E6E"/>
<stop offset="0.04" stop-color="#626262"/>
<stop offset="0.05" stop-color="#5B5B5B"/>
<stop offset="0.09" stop-color="#5A5A5A"/>
<stop offset="0.23" stop-color="#6A6A6A"/>
<stop offset="0.51" stop-color="#939396"/>
<stop offset="0.82" stop-color="#C8C8CD"/>
<stop offset="0.87" stop-color="#A2A2A5"/>
<stop offset="0.93" stop-color="#7B7B7D"/>
<stop offset="0.97" stop-color="#636364"/>
<stop offset="1" stop-color="#5B5B5B"/>
</linearGradient>
<radialGradient id="paint4_radial_4595_358" cx="0" cy="0" r="1" gradientUnits="userSpaceOnUse" gradientTransform="translate(132.5 62.5) scale(28.5)">
<stop stop-color="white"/>
<stop offset="0.28" stop-color="#E5E5E5"/>
<stop offset="0.75" stop-color="#BFBFBF"/>
<stop offset="1" stop-color="#B1B1B1"/>
</radialGradient>
<clipPath id="clip0_4595_358">
<rect width="195" height="195" fill="white"/>
</clipPath>
</defs>
</svg>
