<svg width="512" height="512" viewBox="0 0 512 512" fill="none" xmlns="http://www.w3.org/2000/svg">
<rect width="512" height="512" fill="#A2D063"/>
<path d="M62 155H450V392.161C450 421.343 430.748 445 407 445H105C81.2518 445 62 421.343 62 392.161V155Z" fill="#2D3239"/>
<path d="M62 110C62 86.2518 81.2518 67 105 67H407C430.748 67 450 86.2518 450 110V155H62V110Z" fill="#1A1D21"/>
<rect x="385" y="95" width="32" height="32" rx="8" fill="#C3D2DF"/>
<path fill-rule="evenodd" clip-rule="evenodd" d="M396.917 110.788C396.187 109.909 394.818 109.74 393.86 110.409C392.901 111.079 392.716 112.334 393.446 113.212L396.771 117.212C397.692 118.32 399.534 118.247 400.348 117.072L408.66 105.072C409.306 104.14 409.005 102.904 407.987 102.312C406.97 101.72 405.622 101.996 404.976 102.928L398.344 112.504L396.917 110.788Z" fill="#333333"/>
<rect x="94" y="101" width="140" height="20" rx="10" fill="#C3D2DF"/>
<circle cx="310.684" cy="300.316" r="53.3165" fill="#FFFB00"/>
<rect x="178.076" y="300.316" width="62.2263" height="14.6415" rx="6" fill="#FFFB00"/>
<rect x="156.202" y="324.924" width="62.2263" height="14.6415" rx="6" fill="#FFFB00"/>
<rect x="203.832" y="275.709" width="14.6415" height="14.6415" rx="6" fill="#FFFB00"/>
<rect x="148" y="275.709" width="51.2452" height="14.6415" rx="6" fill="#FFFB00"/>
</svg>
